{"glyphs":{"0":{"ha":806,"x_min":40,"x_max":765,"o":"m 765 499 q 737 272 765 368 q 660 114 709 176 q 545 20 611 51 q 402 -10 478 -10 q 259 20 326 -10 q 144 114 193 51 q 68 272 96 176 q 40 499 40 368 q 68 725 40 629 q 144 884 96 822 q 259 978 193 947 q 402 1008 326 1008 q 545 978 478 1008 q 660 884 611 947 q 737 725 709 822 q 765 499 765 629 m 625 499 q 607 687 625 611 q 557 809 588 763 q 486 874 526 855 q 402 894 446 894 q 318 874 358 894 q 247 809 278 855 q 198 687 216 763 q 180 499 180 611 q 198 310 180 386 q 247 189 216 235 q 318 124 278 143 q 402 104 358 104 q 486 124 446 104 q 557 189 526 143 q 607 310 588 235 q 625 499 625 386 z "},"1":{"ha":806,"x_min":108,"x_max":710,"o":"m 710 103 l 710 0 l 171 0 l 171 103 l 382 103 l 382 757 q 384 822 382 788 l 215 678 q 195 668 205 670 q 177 667 185 666 q 161 673 168 669 q 151 683 155 678 l 108 742 l 407 999 l 517 999 l 517 103 l 710 103 z "},"2":{"ha":806,"x_min":63,"x_max":732,"o":"m 685 128 q 719 116 707 128 q 732 82 732 103 l 732 0 l 63 0 l 63 47 q 68 76 63 60 q 87 104 74 92 l 402 420 q 474 497 442 460 q 528 570 506 533 q 562 644 550 606 q 574 725 574 683 q 561 798 574 767 q 525 851 548 830 q 471 882 502 872 q 403 892 440 892 q 337 882 367 892 q 283 853 307 872 q 244 808 260 834 q 221 753 228 783 q 196 717 211 726 q 153 713 181 708 l 82 726 q 120 848 92 795 q 192 936 149 901 q 291 990 235 972 q 411 1008 347 1008 q 532 989 476 1008 q 627 934 587 970 q 690 846 667 898 q 713 729 713 794 q 697 626 713 674 q 652 535 681 578 q 587 452 624 492 q 508 369 550 411 l 256 111 q 314 124 285 119 q 370 128 344 128 l 685 128 z "},"3":{"ha":806,"x_min":56,"x_max":731,"o":"m 86 726 q 125 848 97 795 q 197 936 153 901 q 295 990 240 972 q 416 1008 351 1008 q 535 990 481 1008 q 627 938 589 972 q 688 857 666 904 q 709 753 709 810 q 697 668 709 705 q 664 603 685 631 q 610 557 642 576 q 540 525 579 538 q 683 439 635 499 q 731 289 731 380 q 705 163 731 219 q 633 68 678 107 q 526 9 587 30 q 397 -11 465 -11 q 262 8 318 -11 q 166 61 206 27 q 100 144 126 96 q 56 250 74 192 l 115 275 q 160 281 138 285 q 191 256 181 276 q 215 209 201 235 q 251 160 228 183 q 309 121 274 137 q 395 105 343 105 q 483 121 445 105 q 545 164 520 138 q 583 222 570 190 q 595 285 595 253 q 585 356 595 324 q 548 412 576 389 q 472 449 521 435 q 346 462 424 462 l 346 560 q 454 574 410 561 q 525 608 498 586 q 564 661 552 631 q 576 729 576 692 q 564 801 576 770 q 529 852 551 831 q 475 882 506 872 q 408 892 444 892 q 342 882 372 892 q 288 853 311 872 q 248 808 264 834 q 225 753 232 783 q 200 717 215 726 q 158 713 185 708 l 86 726 z "},"4":{"ha":806,"x_min":13,"x_max":767,"o":"m 504 364 l 504 753 q 505 795 504 773 q 510 842 506 818 l 160 364 l 504 364 m 767 364 l 767 285 q 760 265 767 274 q 738 257 752 257 l 623 257 l 623 0 l 504 0 l 504 257 l 67 257 q 41 266 51 257 q 27 288 31 274 l 13 357 l 495 998 l 623 998 l 623 364 l 767 364 z "},"5":{"ha":806,"x_min":74,"x_max":717,"o":"m 259 625 q 397 641 335 641 q 535 618 475 641 q 635 554 594 594 q 696 458 676 513 q 717 338 717 403 q 689 194 717 259 q 613 84 661 130 q 498 14 564 38 q 355 -11 431 -11 q 269 -2 310 -11 q 193 22 228 7 q 127 56 158 37 q 74 97 97 76 l 115 156 q 151 175 128 175 q 183 164 165 175 q 225 140 201 153 q 283 116 249 127 q 362 106 316 106 q 453 122 413 106 q 522 168 494 138 q 565 240 550 198 q 580 332 580 281 q 567 413 580 377 q 527 475 553 449 q 461 514 501 501 q 369 528 422 528 q 212 501 295 528 l 126 526 l 208 997 l 685 997 l 685 938 q 667 891 685 909 q 606 872 649 872 l 302 872 l 259 625 z "},"6":{"ha":806,"x_min":71,"x_max":749,"o":"m 401 102 q 488 118 449 102 q 555 160 527 133 q 598 225 583 188 q 613 306 613 263 q 598 392 613 354 q 557 456 583 430 q 492 497 530 483 q 409 510 455 510 q 323 494 361 510 q 258 450 285 478 q 216 386 231 423 q 201 309 201 349 q 215 225 201 263 q 253 160 228 187 q 316 117 279 133 q 401 102 353 102 m 338 626 q 314 597 326 611 q 292 569 303 583 q 366 602 326 590 q 454 614 407 614 q 567 594 513 614 q 661 538 620 575 q 725 444 701 500 q 749 317 749 389 q 724 188 749 248 q 653 84 699 128 q 544 14 608 40 q 404 -11 481 -11 q 266 13 328 -11 q 161 82 205 38 q 94 191 118 127 q 71 332 71 254 q 100 473 71 399 q 191 631 128 547 l 440 965 q 469 988 451 978 q 513 997 488 997 l 633 997 l 338 626 z "},"7":{"ha":806,"x_min":72,"x_max":753,"o":"m 753 997 l 753 937 q 747 894 753 910 q 735 866 741 878 l 331 48 q 304 14 322 28 q 258 0 287 0 l 160 0 l 571 806 q 592 842 581 826 q 615 872 602 858 l 105 872 q 82 882 92 872 q 72 905 72 892 l 72 997 l 753 997 z "},"8":{"ha":806,"x_min":64,"x_max":742,"o":"m 403 97 q 487 110 450 97 q 549 147 524 123 q 588 204 575 171 q 601 277 601 238 q 585 361 601 326 q 542 418 569 396 q 479 452 515 441 q 403 463 443 463 q 326 452 362 463 q 263 418 290 441 q 220 361 235 396 q 204 277 204 326 q 217 204 204 238 q 256 147 231 171 q 319 110 282 123 q 403 97 356 97 m 403 904 q 327 891 360 904 q 274 856 295 878 q 241 805 252 834 q 231 742 231 776 q 240 679 231 710 q 270 624 249 648 q 323 585 290 600 q 403 571 356 571 q 482 585 449 571 q 536 624 515 600 q 566 679 556 648 q 575 742 575 710 q 564 805 575 776 q 532 856 553 834 q 478 891 510 878 q 403 904 446 904 m 552 520 q 693 431 645 492 q 742 274 742 369 q 717 156 742 209 q 648 66 692 103 q 540 9 603 29 q 403 -11 478 -11 q 265 9 328 -11 q 158 66 203 29 q 89 156 113 103 q 64 274 64 209 q 112 431 64 369 q 253 520 160 492 q 138 607 176 549 q 99 745 99 665 q 120 849 99 801 q 182 933 142 897 q 278 988 222 968 q 403 1008 335 1008 q 527 988 471 1008 q 623 933 583 968 q 685 849 663 897 q 707 745 707 801 q 668 607 707 665 q 552 520 629 549 z "},"9":{"ha":806,"x_min":69,"x_max":723,"o":"m 205 703 q 255 560 205 610 q 394 510 305 510 q 478 526 442 510 q 541 568 515 542 q 579 628 566 594 q 592 700 592 663 q 578 782 592 745 q 538 843 564 818 q 477 882 513 869 q 400 896 442 896 q 320 882 356 896 q 258 842 284 867 q 219 781 233 816 q 205 703 205 745 m 478 394 q 529 464 506 430 q 445 421 492 435 q 347 406 399 406 q 242 425 292 406 q 153 480 192 444 q 92 570 115 517 q 69 693 69 624 q 93 816 69 758 q 161 916 117 874 q 267 984 206 959 q 402 1008 328 1008 q 534 985 475 1008 q 635 918 594 961 q 700 816 677 876 q 723 685 723 756 q 715 601 723 641 q 692 524 707 562 q 656 450 677 487 q 608 376 635 414 l 368 32 q 340 9 358 18 q 298 0 322 0 l 174 0 l 478 394 z "},"\u0000":{"ha":0,"x_min":0,"x_max":0,"o":""}," ":{"ha":351,"x_min":0,"x_max":0,"o":""},"A":{"ha":947,"x_min":1,"x_max":945,"o":"m 653 372 l 505 758 q 473 858 489 798 q 457 803 465 828 q 442 757 449 777 l 294 372 l 653 372 m 945 0 l 831 0 q 799 10 812 0 q 781 35 787 19 l 693 266 l 253 266 l 165 35 q 147 11 160 22 q 115 0 134 0 l 1 0 l 399 997 l 548 997 l 945 0 z "},"Ą":{"ha":945,"x_min":1,"x_max":991,"o":"m 652 372 l 504 758 q 472 858 488 798 q 457 803 465 828 q 441 757 449 777 l 294 372 l 652 372 m 991 -202 q 937 -228 969 -218 q 868 -237 904 -237 q 770 -210 805 -237 q 735 -137 735 -183 q 761 -62 735 -97 q 831 0 788 -27 q 799 10 811 0 q 781 35 786 19 l 692 266 l 253 266 l 165 35 q 147 11 160 22 q 115 0 133 0 l 1 0 l 398 997 l 547 997 l 944 0 l 916 0 q 888 -18 902 -8 q 862 -42 874 -28 q 843 -70 851 -55 q 836 -103 836 -86 q 852 -142 836 -128 q 896 -157 869 -157 q 921 -155 911 -157 q 938 -150 931 -152 q 949 -145 944 -147 q 956 -142 953 -142 q 970 -151 967 -142 l 991 -202 z "},"Æ":{"ha":1293,"x_min":-7,"x_max":1234,"o":"m 647 372 l 583 885 q 542 780 565 827 l 334 372 l 647 372 m 1234 120 l 1233 0 l 692 0 l 660 266 l 280 266 l 162 34 q 140 9 154 19 q 106 0 126 0 l -7 0 l 515 997 l 1233 997 l 1233 877 l 723 877 l 763 561 l 1142 561 l 1142 445 l 777 445 l 817 120 l 1234 120 z "},"B":{"ha":902,"x_min":123,"x_max":835,"o":"m 479 117 q 575 131 535 117 q 641 167 615 144 q 678 221 666 190 q 690 290 690 253 q 638 407 690 365 q 479 450 587 450 l 271 450 l 271 117 l 479 117 m 271 881 l 271 555 l 441 555 q 603 599 550 555 q 656 718 656 643 q 606 842 656 803 q 448 881 555 881 l 271 881 m 448 997 q 609 979 542 997 q 719 927 676 961 q 782 845 762 893 q 803 735 803 797 q 792 666 803 699 q 758 604 781 633 q 700 552 735 575 q 618 514 665 529 q 835 287 835 471 q 812 170 835 223 q 743 80 788 118 q 632 21 698 42 q 482 0 566 0 l 123 0 l 123 997 l 448 997 z "},"C":{"ha":926,"x_min":63,"x_max":899,"o":"m 819 214 q 841 204 832 214 l 899 140 q 750 28 838 68 q 539 -11 663 -11 q 343 26 431 -11 q 193 131 255 64 q 97 292 131 199 q 63 499 63 386 q 98 705 63 611 q 199 866 134 799 q 353 971 263 933 q 552 1008 443 1008 q 741 974 658 1008 q 885 881 824 939 l 836 813 q 824 800 831 805 q 805 795 817 795 q 774 808 792 795 q 727 838 756 822 q 656 867 699 854 q 551 881 614 881 q 415 855 476 881 q 308 780 353 828 q 239 659 263 731 q 214 499 214 588 q 240 337 214 408 q 310 217 265 266 q 417 142 356 167 q 549 116 478 116 q 626 121 592 116 q 689 137 660 126 q 744 164 718 147 q 794 203 769 180 q 806 211 800 208 q 819 214 813 214 z "},"Ç":{"ha":926,"x_min":63,"x_max":899,"o":"m 899 140 q 764 35 843 74 q 577 -10 685 -4 l 566 -49 q 659 -88 631 -63 q 687 -150 687 -112 q 675 -191 687 -173 q 643 -222 664 -209 q 594 -241 623 -234 q 531 -248 565 -248 q 477 -243 503 -248 q 430 -228 452 -237 l 442 -185 q 460 -172 447 -172 q 469 -175 464 -172 q 482 -180 475 -177 q 500 -184 490 -182 q 524 -187 510 -187 q 566 -176 551 -187 q 580 -148 580 -165 q 552 -113 580 -123 q 470 -96 524 -103 l 499 -10 q 319 38 399 -3 q 181 144 238 78 q 93 301 124 211 q 63 499 63 391 q 98 705 63 611 q 199 866 134 799 q 353 971 263 933 q 552 1008 443 1008 q 741 974 658 1008 q 885 881 824 939 l 836 813 q 824 800 831 805 q 805 795 817 795 q 774 808 792 795 q 727 838 756 822 q 656 867 699 854 q 551 881 614 881 q 415 855 476 881 q 308 780 353 828 q 239 659 263 731 q 214 499 214 588 q 240 337 214 408 q 310 217 265 266 q 417 142 356 167 q 549 116 478 116 q 626 121 592 116 q 689 137 660 126 q 744 164 718 147 q 794 203 769 180 q 806 211 800 208 q 819 214 813 214 q 841 204 832 214 l 899 140 z "},"D":{"ha":1056,"x_min":123,"x_max":993,"o":"m 993 499 q 957 295 993 387 q 856 138 922 203 q 700 36 791 72 q 498 0 609 0 l 123 0 l 123 997 l 498 997 q 700 961 609 997 q 856 859 791 925 q 957 702 922 794 q 993 499 993 610 m 842 499 q 817 658 842 588 q 748 777 793 728 q 640 852 703 826 q 498 878 576 878 l 272 878 l 272 119 l 498 119 q 640 145 576 119 q 748 220 703 171 q 817 339 793 269 q 842 499 842 409 z "},"Ð":{"ha":1068,"x_min":1,"x_max":1005,"o":"m 510 119 q 652 145 588 119 q 760 220 715 171 q 829 339 805 269 q 853 499 853 409 q 829 658 853 588 q 760 777 805 728 q 652 852 715 826 q 510 878 588 878 l 283 878 l 283 546 l 481 546 l 481 460 l 283 460 l 283 119 l 510 119 m 510 997 q 712 961 621 997 q 868 859 803 925 q 969 702 933 794 q 1005 499 1005 610 q 969 295 1005 387 q 868 138 933 203 q 712 36 803 72 q 510 0 621 0 l 135 0 l 135 460 l 1 460 l 1 546 l 135 546 l 135 997 l 510 997 z "},"E":{"ha":801,"x_min":123,"x_max":742,"o":"m 742 120 l 741 0 l 123 0 l 123 997 l 741 997 l 741 877 l 272 877 l 272 561 l 649 561 l 649 445 l 272 445 l 272 120 l 742 120 z "},"Ę":{"ha":801,"x_min":123,"x_max":753,"o":"m 753 -202 q 699 -228 731 -218 q 630 -237 666 -237 q 532 -210 567 -237 q 497 -137 497 -183 q 523 -62 497 -97 q 592 0 549 -27 l 123 0 l 123 997 l 741 997 l 741 877 l 272 877 l 272 561 l 649 561 l 649 445 l 272 445 l 272 120 l 742 120 l 741 0 l 678 0 q 650 -18 664 -8 q 624 -42 635 -28 q 605 -70 613 -55 q 598 -103 598 -86 q 614 -142 598 -128 q 658 -157 631 -157 q 683 -155 673 -157 q 700 -150 693 -152 q 710 -145 706 -147 q 718 -142 715 -142 q 732 -151 728 -142 l 753 -202 z "},"F":{"ha":785,"x_min":123,"x_max":741,"o":"m 272 877 l 272 543 l 672 543 l 672 423 l 272 423 l 272 0 l 123 0 l 123 997 l 741 997 l 741 877 l 272 877 z "},"G":{"ha":1013,"x_min":62,"x_max":937,"o":"m 937 485 l 937 97 q 776 16 861 42 q 590 -11 690 -11 q 371 26 469 -11 q 205 131 274 64 q 99 292 136 199 q 62 499 62 386 q 98 706 62 612 q 200 867 133 800 q 361 971 267 934 q 574 1008 456 1008 q 685 999 634 1008 q 780 974 736 990 q 861 934 824 957 q 930 881 898 910 l 888 815 q 862 794 878 799 q 827 802 846 790 q 787 826 809 813 q 735 852 765 840 q 665 872 705 864 q 569 881 624 881 q 422 854 488 881 q 309 777 356 827 q 238 657 263 727 q 213 499 213 586 q 239 334 213 407 q 314 211 265 262 q 431 135 362 161 q 585 108 500 108 q 648 112 619 108 q 703 123 676 116 q 754 140 729 130 q 803 163 778 151 l 803 372 l 656 372 q 633 381 642 372 q 624 401 624 389 l 624 485 l 937 485 z "},"H":{"ha":1063,"x_min":123,"x_max":940,"o":"m 940 997 l 940 0 l 792 0 l 792 449 l 272 449 l 272 0 l 123 0 l 123 997 l 272 997 l 272 557 l 792 557 l 792 997 l 940 997 z "},"Ħ":{"ha":1074,"x_min":17,"x_max":1056,"o":"m 797 720 l 277 720 l 277 557 l 797 557 l 797 720 m 1056 720 l 945 720 l 945 0 l 797 0 l 797 449 l 277 449 l 277 0 l 128 0 l 128 720 l 17 720 l 17 808 l 128 808 l 128 997 l 277 997 l 277 808 l 797 808 l 797 997 l 945 997 l 945 808 l 1056 808 l 1056 720 z "},"I":{"ha":394,"x_min":123,"x_max":272,"o":"m 272 0 l 123 0 l 123 997 l 272 997 l 272 0 z "},"Į":{"ha":395,"x_min":69,"x_max":325,"o":"m 325 -202 q 271 -228 303 -218 q 202 -237 238 -237 q 104 -210 139 -237 q 69 -137 69 -183 q 95 -62 69 -97 q 165 0 122 -27 l 124 0 l 124 997 l 272 997 l 272 0 l 250 0 q 222 -18 236 -8 q 196 -42 208 -28 q 177 -70 185 -55 q 170 -103 170 -86 q 186 -142 170 -128 q 230 -157 203 -157 q 255 -155 245 -157 q 272 -150 265 -152 q 283 -145 278 -147 q 290 -142 287 -142 q 304 -151 301 -142 l 325 -202 z "},"J":{"ha":590,"x_min":16,"x_max":476,"o":"m 476 347 q 456 197 476 264 q 395 84 435 131 q 295 14 355 38 q 159 -11 236 -11 q 16 8 90 -11 l 24 96 q 34 116 26 108 q 58 124 42 124 q 90 118 69 124 q 144 113 110 113 q 223 126 188 113 q 281 167 257 139 q 316 239 304 195 q 328 344 328 283 l 328 997 l 476 997 l 476 347 z "},"K":{"ha":928,"x_min":123,"x_max":932,"o":"m 271 566 l 319 566 q 362 573 346 566 q 392 595 378 579 l 709 964 q 740 990 724 983 q 780 997 756 997 l 906 997 l 537 572 q 509 543 523 554 q 481 524 496 532 q 548 471 519 511 l 932 0 l 803 0 q 780 2 790 0 q 762 8 769 4 q 749 17 755 12 q 738 31 743 23 l 410 419 q 396 435 403 428 q 380 445 389 441 q 359 450 371 449 q 331 452 347 452 l 271 452 l 271 0 l 123 0 l 123 997 l 271 997 l 271 566 z "},"L":{"ha":715,"x_min":123,"x_max":694,"o":"m 694 124 l 694 0 l 123 0 l 123 997 l 271 997 l 271 124 l 694 124 z "},"Ł":{"ha":735,"x_min":15,"x_max":714,"o":"m 714 124 l 714 0 l 143 0 l 143 379 l 15 314 l 15 417 q 33 446 15 437 l 143 503 l 143 997 l 291 997 l 291 571 l 553 704 l 553 604 q 533 572 553 579 l 291 445 l 291 124 l 714 124 z "},"Ľ":{"ha":715,"x_min":123,"x_max":694,"o":"m 694 124 l 694 0 l 123 0 l 123 997 l 271 997 l 271 124 l 694 124 m 524 1026 q 544 1019 540 1026 q 549 1003 549 1011 q 546 985 549 997 q 537 953 544 974 q 519 901 531 933 q 490 822 508 869 q 471 801 482 806 q 441 796 460 796 l 394 796 l 434 1026 l 524 1026 z "},"M":{"ha":1295,"x_min":123,"x_max":1172,"o":"m 1172 997 l 1172 0 l 1042 0 l 1042 710 q 1043 744 1042 726 q 1046 781 1044 762 l 714 172 q 660 138 697 138 l 640 138 q 587 172 603 138 l 249 783 q 253 710 253 744 l 253 0 l 123 0 l 123 997 l 233 997 q 263 993 252 997 q 283 972 274 990 l 617 375 q 635 337 626 357 q 651 297 643 317 q 685 376 665 338 l 1012 972 q 1032 993 1021 990 q 1062 997 1042 997 l 1172 997 z "},"N":{"ha":1063,"x_min":123,"x_max":940,"o":"m 940 997 l 940 0 l 865 0 q 836 6 847 0 q 813 26 824 13 l 249 755 q 252 718 251 736 q 253 684 253 700 l 253 0 l 123 0 l 123 997 l 199 997 q 228 993 219 997 q 250 972 238 988 l 815 243 q 811 282 813 263 q 810 318 810 301 l 810 997 l 940 997 z "},"Ŋ":{"ha":1063,"x_min":123,"x_max":940,"o":"m 940 997 l 940 11 q 926 -94 940 -47 q 885 -177 913 -142 q 813 -230 857 -211 q 707 -249 769 -249 q 645 -242 673 -249 q 586 -223 617 -236 l 601 -163 q 614 -141 606 -147 q 631 -136 622 -136 q 655 -141 641 -136 q 694 -146 669 -146 q 780 -111 751 -146 q 810 -5 810 -76 l 810 30 l 249 755 q 252 718 251 736 q 253 684 253 700 l 253 0 l 123 0 l 123 997 l 199 997 q 228 993 219 997 q 250 972 238 988 l 815 243 q 811 282 813 263 q 810 318 810 301 l 810 997 l 940 997 z "},"O":{"ha":1115,"x_min":62,"x_max":1052,"o":"m 1052 499 q 1016 293 1052 387 q 915 132 981 200 q 759 27 850 65 q 557 -10 668 -10 q 355 27 447 -10 q 199 132 264 65 q 98 293 134 200 q 62 499 62 387 q 98 703 62 610 q 199 865 134 797 q 355 970 264 933 q 557 1008 447 1008 q 759 970 668 1008 q 915 865 850 933 q 1016 703 981 797 q 1052 499 1052 610 m 901 499 q 876 658 901 588 q 807 778 852 729 q 699 854 763 828 q 557 881 635 881 q 415 854 478 881 q 306 778 351 828 q 237 658 261 729 q 213 499 213 588 q 237 339 213 409 q 306 219 261 268 q 415 143 351 169 q 557 117 478 117 q 699 143 635 117 q 807 219 763 169 q 876 339 852 268 q 901 499 901 409 z "},"Ø":{"ha":1115,"x_min":62,"x_max":1052,"o":"m 378 161 q 461 128 416 140 q 557 117 506 117 q 699 143 635 117 q 807 219 763 169 q 876 339 852 268 q 901 499 901 409 q 880 649 901 582 q 820 764 859 715 l 378 161 m 753 826 q 664 866 713 852 q 557 881 615 881 q 415 854 478 881 q 306 778 351 828 q 237 658 261 729 q 213 499 213 588 q 237 337 213 408 q 308 217 262 267 l 753 826 m 903 878 q 1013 713 974 809 q 1052 499 1052 616 q 1016 293 1052 387 q 915 132 981 200 q 759 27 850 65 q 557 -10 668 -10 q 419 6 483 -10 q 300 54 355 23 l 235 -35 q 196 -66 219 -57 q 152 -76 174 -76 l 93 -76 l 226 106 q 105 275 149 175 q 62 499 62 375 q 98 703 62 610 q 199 865 134 797 q 355 970 264 933 q 557 1008 447 1008 q 706 989 637 1008 q 832 933 774 969 l 884 1005 q 898 1023 892 1015 q 911 1034 904 1030 q 926 1040 918 1038 q 947 1042 935 1042 l 1024 1042 l 903 878 z "},"Œ":{"ha":1511,"x_min":64,"x_max":1452,"o":"m 525 114 q 653 141 596 114 q 750 217 710 167 q 812 338 790 267 q 833 499 833 409 q 812 659 833 588 q 750 781 790 731 q 653 858 710 831 q 525 885 596 885 q 397 858 454 885 q 299 781 339 831 q 236 659 258 731 q 215 499 215 588 q 236 338 215 409 q 299 217 258 267 q 397 141 339 167 q 525 114 454 114 m 1452 120 l 1451 0 l 851 0 l 851 156 q 705 34 792 78 q 510 -10 619 -10 q 328 28 410 -10 q 187 133 246 65 q 96 293 128 200 q 64 499 64 387 q 96 703 64 610 q 187 865 128 797 q 328 970 246 933 q 510 1008 410 1008 q 705 964 619 1008 q 851 842 792 920 l 851 997 l 1451 997 l 1451 877 l 982 877 l 982 561 l 1360 561 l 1360 445 l 982 445 l 982 120 l 1452 120 z "},"P":{"ha":840,"x_min":123,"x_max":801,"o":"m 425 484 q 524 499 481 484 q 595 540 567 513 q 639 604 624 567 q 653 686 653 641 q 597 829 653 777 q 425 881 540 881 l 271 881 l 271 484 l 425 484 m 425 997 q 592 975 521 997 q 709 912 663 953 q 778 814 756 872 q 801 686 801 756 q 776 557 801 616 q 705 456 752 499 q 587 391 658 414 q 425 367 517 367 l 271 367 l 271 0 l 123 0 l 123 997 l 425 997 z "},"Þ":{"ha":837,"x_min":123,"x_max":801,"o":"m 425 304 q 524 319 481 304 q 595 360 567 333 q 639 423 624 386 q 653 506 653 460 q 597 649 653 597 q 425 701 540 701 l 271 701 l 271 304 l 425 304 m 425 817 q 592 795 521 817 q 709 732 663 773 q 778 633 756 691 q 801 506 801 576 q 776 377 801 435 q 705 276 752 318 q 587 210 658 234 q 425 187 517 187 l 271 187 l 271 0 l 123 0 l 123 997 l 271 997 l 271 817 l 425 817 z "},"Q":{"ha":1115,"x_min":63,"x_max":1101,"o":"m 213 499 q 238 339 213 409 q 307 219 262 268 q 416 143 352 169 q 558 117 479 117 q 700 143 636 117 q 808 219 763 169 q 877 339 853 268 q 901 499 901 409 q 877 658 901 588 q 808 778 853 729 q 700 854 763 828 q 558 881 636 881 q 416 854 479 881 q 307 778 352 828 q 238 658 262 729 q 213 499 213 588 m 1101 -203 l 978 -203 q 931 -195 951 -203 q 892 -169 910 -188 l 724 15 q 558 -10 647 -10 q 356 27 447 -10 q 200 132 265 65 q 99 293 135 200 q 63 499 63 387 q 99 703 63 610 q 200 865 135 797 q 356 970 265 933 q 558 1008 447 1008 q 760 970 669 1008 q 916 865 851 933 q 1017 703 981 797 q 1053 499 1053 610 q 1039 366 1053 429 q 998 249 1024 303 q 933 151 972 195 q 846 73 894 106 l 1101 -203 z "},"R":{"ha":876,"x_min":123,"x_max":871,"o":"m 406 517 q 506 531 463 517 q 578 570 549 544 q 622 630 608 595 q 637 708 637 665 q 580 838 637 794 q 410 881 524 881 l 271 881 l 271 517 l 406 517 m 871 0 l 739 0 q 681 31 699 0 l 435 377 q 409 402 423 394 q 367 409 395 409 l 271 409 l 271 0 l 123 0 l 123 997 l 410 997 q 577 977 507 997 q 692 921 647 958 q 759 833 738 885 q 781 718 781 782 q 765 620 781 666 q 718 538 749 574 q 643 475 688 501 q 542 435 599 449 q 590 388 570 418 l 871 0 z "},"S":{"ha":756,"x_min":42,"x_max":696,"o":"m 639 835 q 624 817 632 823 q 605 812 617 812 q 576 823 592 812 q 536 849 560 835 q 479 875 513 863 q 399 886 446 886 q 323 875 356 886 q 267 843 290 863 q 234 797 245 824 q 222 739 222 770 q 243 672 222 699 q 297 627 263 646 q 372 594 330 608 q 459 566 415 581 q 546 531 503 551 q 622 482 588 512 q 675 410 655 453 q 696 306 696 367 q 673 182 696 240 q 608 81 651 124 q 502 14 565 38 q 359 -11 439 -11 q 266 -2 311 -11 q 181 25 221 8 q 105 66 140 42 q 42 119 70 90 l 85 190 q 100 204 91 199 q 119 210 108 210 q 153 194 134 210 q 200 161 172 179 q 268 127 228 142 q 363 112 307 112 q 445 124 409 112 q 506 159 481 136 q 544 213 531 181 q 557 284 557 245 q 537 356 557 328 q 483 402 517 383 q 408 434 450 421 q 321 461 365 447 q 234 494 276 476 q 158 543 192 513 q 105 619 125 574 q 85 731 85 665 q 106 835 85 785 q 166 923 126 885 q 265 985 206 962 q 398 1008 323 1008 q 552 982 482 1008 q 675 905 623 955 l 639 835 z "},"Ş":{"ha":756,"x_min":42,"x_max":696,"o":"m 639 835 q 624 817 632 823 q 605 812 617 812 q 576 823 592 812 q 536 849 560 835 q 479 875 513 863 q 399 886 446 886 q 323 875 356 886 q 267 843 290 863 q 234 797 245 824 q 222 739 222 770 q 243 672 222 699 q 297 627 263 646 q 372 594 330 608 q 459 566 415 581 q 546 531 503 551 q 622 482 588 512 q 675 410 655 453 q 696 306 696 367 q 677 194 696 247 q 624 100 659 141 q 538 31 590 58 q 422 -6 487 3 l 410 -49 q 502 -88 474 -63 q 531 -150 531 -112 q 519 -191 531 -173 q 487 -222 508 -209 q 438 -241 467 -234 q 375 -248 409 -248 q 321 -243 347 -248 q 274 -228 296 -237 l 286 -185 q 303 -172 290 -172 q 313 -175 308 -172 q 326 -180 319 -177 q 344 -184 333 -182 q 368 -187 354 -187 q 409 -176 395 -187 q 424 -148 424 -165 q 395 -113 424 -123 q 314 -96 367 -103 l 342 -10 q 173 28 250 -7 q 42 119 97 63 l 85 190 q 100 204 91 199 q 119 210 108 210 q 153 194 134 210 q 200 161 172 179 q 268 127 228 142 q 363 112 307 112 q 445 124 409 112 q 506 159 481 136 q 544 213 531 181 q 557 284 557 245 q 537 356 557 328 q 483 402 517 383 q 408 434 450 421 q 321 461 365 447 q 234 494 276 476 q 158 543 192 513 q 105 619 125 574 q 85 731 85 665 q 106 835 85 785 q 166 923 126 885 q 265 985 206 962 q 398 1008 323 1008 q 552 982 482 1008 q 675 905 623 955 l 639 835 z "},"T":{"ha":824,"x_min":21,"x_max":803,"o":"m 803 874 l 486 874 l 486 0 l 339 0 l 339 874 l 21 874 l 21 997 l 803 997 l 803 874 z "},"Ŧ":{"ha":843,"x_min":31,"x_max":813,"o":"m 496 874 l 496 592 l 719 592 l 719 506 l 496 506 l 496 0 l 349 0 l 349 506 l 124 506 l 124 592 l 349 592 l 349 874 l 31 874 l 31 997 l 813 997 l 813 874 l 496 874 z "},"U":{"ha":1024,"x_min":110,"x_max":913,"o":"m 512 119 q 619 139 572 119 q 699 195 666 159 q 749 282 731 232 q 766 394 766 333 l 766 997 l 913 997 l 913 394 q 885 232 913 306 q 806 103 858 158 q 679 19 753 49 q 512 -12 605 -12 q 344 19 419 -12 q 218 103 270 49 q 138 232 166 158 q 110 394 110 306 l 110 997 l 258 997 l 258 394 q 275 283 258 333 q 325 195 292 232 q 405 139 358 159 q 512 119 452 119 z "},"Ų":{"ha":1024,"x_min":110,"x_max":913,"o":"m 913 997 l 913 394 q 890 246 913 315 q 824 124 867 177 q 719 37 781 72 q 578 -8 657 3 q 552 -26 565 -15 q 530 -49 540 -36 q 513 -76 519 -61 q 507 -106 507 -90 q 523 -145 507 -131 q 567 -160 540 -160 q 592 -157 582 -160 q 609 -152 602 -155 q 619 -148 615 -150 q 627 -145 624 -145 q 641 -154 638 -145 l 662 -205 q 608 -231 640 -221 q 539 -240 575 -240 q 441 -213 476 -240 q 406 -140 406 -185 q 428 -70 406 -103 q 489 -11 451 -37 q 331 25 401 -7 q 211 111 260 57 q 136 237 163 165 q 110 394 110 309 l 110 997 l 258 997 l 258 394 q 275 283 258 333 q 325 195 292 232 q 405 139 358 159 q 512 119 452 119 q 619 139 572 119 q 699 195 666 159 q 749 282 731 232 q 766 394 766 333 l 766 997 l 913 997 z "},"V":{"ha":947,"x_min":1,"x_max":945,"o":"m 945 997 l 540 0 l 407 0 l 1 997 l 119 997 q 151 988 139 997 q 169 963 163 978 l 439 285 q 458 230 449 260 q 475 167 467 200 q 490 230 482 200 q 508 285 499 260 l 777 963 q 795 987 782 976 q 826 997 808 997 l 945 997 z "},"W":{"ha":1444,"x_min":19,"x_max":1425,"o":"m 1425 997 l 1114 0 l 981 0 l 738 740 q 723 793 729 762 q 708 740 715 761 l 463 0 l 330 0 l 19 997 l 142 997 q 175 988 162 997 q 192 963 188 978 l 389 295 q 399 253 394 276 q 408 205 403 230 q 418 253 413 230 q 431 295 424 276 l 656 963 q 673 987 660 976 q 706 997 687 997 l 748 997 q 780 988 767 997 q 798 963 792 978 l 1022 295 q 1044 208 1035 257 q 1063 295 1053 256 l 1260 963 q 1277 987 1263 976 q 1310 997 1291 997 l 1425 997 z "},"X":{"ha":908,"x_min":10,"x_max":897,"o":"m 897 0 l 750 0 q 724 9 734 0 q 709 27 715 17 l 451 438 q 438 408 446 420 l 188 27 q 172 9 181 17 q 149 0 163 0 l 10 0 l 351 513 l 25 997 l 172 997 q 195 992 188 997 q 208 978 203 988 l 460 587 q 476 620 466 605 l 712 975 q 726 992 718 986 q 745 997 733 997 l 886 997 l 558 519 l 897 0 z "},"Y":{"ha":875,"x_min":-1,"x_max":876,"o":"m 511 394 l 511 0 l 364 0 l 364 394 l -1 997 l 128 997 q 160 988 148 997 q 179 963 172 978 l 396 590 q 420 542 409 565 q 439 497 431 519 q 457 542 447 519 q 480 590 467 565 l 696 963 q 715 986 703 976 q 746 997 727 997 l 876 997 l 511 394 z "},"Z":{"ha":838,"x_min":35,"x_max":794,"o":"m 794 942 q 779 894 794 917 l 228 120 l 785 120 l 785 0 l 35 0 l 35 58 q 39 81 35 70 q 49 101 42 91 l 601 877 l 63 877 l 63 997 l 794 997 l 794 942 z "},"a":{"ha":694,"x_min":42,"x_max":607,"o":"m 474 313 q 334 300 392 310 q 240 274 276 290 q 188 234 204 257 q 172 184 172 212 q 181 139 172 158 q 205 107 190 119 q 240 90 219 95 q 283 84 260 84 q 341 90 315 84 q 390 108 367 97 q 433 136 413 119 q 474 174 454 153 l 474 313 m 77 607 q 205 691 136 663 q 357 719 274 719 q 464 699 417 719 q 542 644 510 679 q 591 559 574 608 q 607 450 607 510 l 607 0 l 547 0 q 516 7 526 0 q 499 31 506 13 l 485 93 q 431 49 458 68 q 376 16 405 30 q 315 -4 347 3 q 242 -11 282 -11 q 164 0 201 -11 q 101 35 128 12 q 58 94 74 59 q 42 177 42 130 q 65 257 42 219 q 139 326 88 296 q 272 376 190 357 q 474 399 354 396 l 474 450 q 440 569 474 530 q 340 609 406 609 q 266 598 296 609 q 214 573 235 587 q 175 549 192 560 q 142 538 159 538 q 118 545 128 538 q 101 563 108 553 l 77 607 z "},"ą":{"ha":694,"x_min":42,"x_max":682,"o":"m 474 313 q 334 300 392 310 q 240 274 276 290 q 188 234 204 257 q 172 184 172 212 q 181 139 172 158 q 205 107 190 119 q 240 90 219 95 q 283 84 260 84 q 341 90 315 84 q 390 108 367 97 q 433 136 413 119 q 474 174 454 153 l 474 313 m 682 -202 q 628 -228 660 -218 q 559 -237 595 -237 q 461 -210 496 -237 q 426 -137 426 -183 q 453 -61 426 -97 q 526 2 481 -25 q 499 31 507 8 l 485 93 q 431 49 458 68 q 376 16 405 30 q 315 -4 347 3 q 242 -11 282 -11 q 164 0 201 -11 q 101 35 128 12 q 58 94 74 59 q 42 177 42 130 q 65 257 42 219 q 139 326 88 296 q 272 376 190 357 q 474 399 354 396 l 474 450 q 440 569 474 530 q 340 609 406 609 q 266 598 296 609 q 214 573 235 587 q 175 549 192 560 q 142 538 159 538 q 118 545 128 538 q 101 563 108 553 l 77 607 q 205 691 136 663 q 357 719 274 719 q 464 699 417 719 q 542 644 510 679 q 591 559 574 608 q 607 450 607 510 l 607 0 q 579 -18 593 -8 q 553 -42 565 -28 q 534 -70 542 -55 q 527 -103 527 -86 q 543 -142 527 -128 q 587 -157 560 -157 q 612 -155 602 -157 q 629 -150 622 -152 q 640 -145 635 -147 q 647 -142 644 -142 q 661 -151 658 -142 l 682 -202 z "},"æ":{"ha":1119,"x_min":44,"x_max":1067,"o":"m 476 333 q 335 318 393 329 q 242 288 278 306 q 190 245 206 269 q 174 194 174 222 q 207 110 174 136 q 294 84 240 84 q 366 96 333 84 q 423 132 399 108 q 461 194 447 157 q 476 282 476 231 l 476 333 m 946 417 q 935 496 946 460 q 905 560 925 533 q 855 602 885 587 q 788 617 826 617 q 716 603 747 617 q 661 564 684 590 q 624 501 638 538 q 605 417 610 464 l 946 417 m 603 333 q 623 229 607 274 q 664 156 638 185 q 726 112 690 126 q 804 97 761 97 q 883 107 852 97 q 935 128 915 117 q 969 150 956 140 q 994 160 983 160 q 1011 156 1005 160 q 1022 147 1018 153 l 1058 101 q 1003 50 1034 72 q 937 16 972 29 q 865 -3 902 3 q 792 -10 828 -10 q 646 28 712 -10 q 540 144 580 66 q 491 73 521 103 q 424 25 460 44 q 345 -2 387 6 q 263 -11 304 -11 q 173 1 213 -11 q 105 39 133 14 q 60 100 76 63 q 44 187 44 138 q 67 268 44 228 q 140 341 89 308 q 273 394 191 373 q 476 418 356 415 l 476 450 q 442 572 476 530 q 342 613 408 613 q 267 601 297 613 q 215 575 237 590 q 177 549 193 561 q 143 538 160 538 q 119 545 129 538 q 103 563 109 553 l 78 607 q 201 691 138 663 q 344 719 265 719 q 478 684 427 719 q 553 590 528 650 q 651 683 590 649 q 794 717 711 717 q 901 694 851 717 q 988 629 951 672 q 1046 525 1025 586 q 1067 386 1067 464 q 1060 344 1067 355 q 1035 333 1054 333 l 603 333 z "},"b":{"ha":781,"x_min":95,"x_max":724,"o":"m 231 174 q 303 113 264 130 q 388 95 342 95 q 533 163 482 95 q 584 366 584 230 q 539 550 584 492 q 411 609 494 609 q 310 583 353 609 q 231 508 267 556 l 231 174 m 231 608 q 330 687 274 657 q 456 717 385 717 q 568 693 518 717 q 652 624 617 669 q 706 515 687 579 q 724 371 724 451 q 703 215 724 285 q 643 95 682 145 q 547 18 603 45 q 421 -10 491 -10 q 358 -3 387 -10 q 306 16 330 3 q 262 47 282 28 q 224 88 242 65 l 217 28 q 183 0 212 0 l 95 0 l 95 1025 l 231 1025 l 231 608 z "},"c":{"ha":665,"x_min":55,"x_max":633,"o":"m 590 574 q 577 561 583 566 q 560 557 572 557 q 537 566 549 557 q 507 584 525 574 q 462 603 488 594 q 398 612 436 612 q 310 594 348 612 q 246 542 272 576 q 208 461 221 509 q 194 353 194 413 q 208 243 194 292 q 248 162 222 195 q 310 112 274 129 q 392 95 347 95 q 465 106 436 95 q 512 129 493 117 q 543 152 531 142 q 569 163 556 163 q 594 151 585 163 l 633 101 q 579 50 609 71 q 515 16 549 29 q 443 -3 481 3 q 368 -10 406 -10 q 245 15 302 -10 q 145 85 188 39 q 79 200 103 132 q 55 353 55 267 q 77 499 55 432 q 141 614 99 565 q 247 689 184 662 q 390 717 309 717 q 523 692 465 717 q 626 624 581 668 l 590 574 z "},"ç":{"ha":665,"x_min":55,"x_max":633,"o":"m 633 101 q 534 24 592 49 q 411 -8 476 -2 l 399 -49 q 492 -88 464 -63 q 519 -150 519 -112 q 508 -191 519 -173 q 476 -222 497 -209 q 427 -241 456 -234 q 365 -248 399 -248 q 311 -243 336 -248 q 263 -228 285 -237 l 276 -185 q 293 -172 280 -172 q 302 -175 297 -172 q 315 -180 308 -177 q 333 -184 323 -182 q 357 -187 343 -187 q 399 -176 385 -187 q 413 -148 413 -165 q 384 -113 413 -123 q 303 -96 356 -103 l 333 -8 q 222 26 273 -1 q 134 99 172 53 q 76 209 97 145 q 55 353 55 273 q 77 499 55 432 q 141 614 99 565 q 247 689 184 662 q 390 717 309 717 q 523 692 465 717 q 626 624 581 668 l 590 574 q 577 561 583 566 q 560 557 572 557 q 537 566 549 557 q 507 584 525 574 q 462 603 488 594 q 398 612 436 612 q 310 594 348 612 q 246 542 272 576 q 208 461 221 509 q 194 353 194 413 q 208 243 194 292 q 248 162 222 195 q 310 112 274 129 q 392 95 347 95 q 465 106 436 95 q 512 129 493 117 q 543 152 531 142 q 569 163 556 163 q 594 151 585 163 l 633 101 z "},"d":{"ha":781,"x_min":57,"x_max":686,"o":"m 550 535 q 478 596 517 578 q 392 613 440 613 q 248 546 299 613 q 197 351 197 479 q 208 236 197 283 q 241 158 219 188 q 295 114 263 128 q 367 99 327 99 q 469 126 426 99 q 550 200 513 152 l 550 535 m 686 1025 l 686 0 l 604 0 q 569 27 576 0 l 557 108 q 455 23 512 55 q 322 -10 397 -10 q 213 14 262 -10 q 129 83 164 38 q 76 196 94 128 q 57 351 57 263 q 78 497 57 429 q 138 613 99 564 q 234 691 178 663 q 361 719 290 719 q 470 698 425 719 q 550 639 515 677 l 550 1025 l 686 1025 z "},"ď":{"ha":781,"x_min":57,"x_max":908,"o":"m 550 535 q 478 596 517 578 q 392 613 440 613 q 248 546 299 613 q 197 351 197 479 q 208 236 197 283 q 241 158 219 188 q 295 114 263 128 q 367 99 327 99 q 469 126 426 99 q 550 200 513 152 l 550 535 m 686 1025 l 686 0 l 604 0 q 569 27 576 0 l 557 108 q 455 23 512 55 q 322 -10 397 -10 q 213 14 262 -10 q 129 83 164 38 q 76 196 94 128 q 57 351 57 263 q 78 497 57 429 q 138 613 99 564 q 234 691 178 663 q 361 719 290 719 q 470 698 425 719 q 550 639 515 677 l 550 1025 l 686 1025 m 883 1026 q 903 1019 899 1026 q 908 1003 908 1011 q 905 985 908 997 q 896 953 903 974 q 878 901 890 933 q 849 822 867 869 q 830 801 841 806 q 800 796 819 796 l 753 796 l 793 1026 l 883 1026 z "},"đ":{"ha":781,"x_min":58,"x_max":789,"o":"m 551 518 q 479 579 518 561 q 393 597 440 597 q 249 533 300 597 q 197 342 197 470 q 209 229 197 275 q 242 154 220 183 q 296 112 264 125 q 368 99 328 99 q 470 126 427 99 q 551 200 513 152 l 551 518 m 789 792 l 687 792 l 687 0 l 605 0 q 569 27 576 0 l 558 108 q 456 23 513 55 q 323 -10 398 -10 q 214 13 263 -10 q 130 79 165 35 q 76 189 95 123 q 58 342 58 255 q 78 487 58 421 q 139 600 99 553 q 235 675 178 648 q 362 701 291 701 q 470 681 426 701 q 551 622 515 660 l 551 792 l 388 792 l 388 878 l 551 878 l 551 1025 l 687 1025 l 687 878 l 789 878 l 789 792 z "},"ð":{"ha":788,"x_min":54,"x_max":724,"o":"m 384 96 q 470 114 431 96 q 536 168 508 131 q 579 260 563 204 q 597 392 594 315 q 568 447 585 421 q 525 494 550 474 q 467 527 500 515 q 392 539 434 539 q 304 522 342 539 q 241 477 266 506 q 202 409 215 448 q 189 324 189 369 q 204 226 189 269 q 246 155 219 184 q 308 111 273 126 q 384 96 344 96 m 542 850 q 616 773 583 816 q 674 676 650 729 q 711 559 698 623 q 724 420 724 495 q 702 241 724 320 q 637 105 680 161 q 529 20 594 49 q 381 -10 465 -10 q 252 13 312 -10 q 149 79 192 36 q 80 184 105 122 q 54 325 54 247 q 76 448 54 390 q 138 549 98 506 q 236 619 178 593 q 366 644 294 644 q 495 616 435 644 q 599 531 555 588 q 546 683 585 620 q 442 789 507 745 l 313 696 l 287 739 q 281 765 278 753 q 298 786 284 778 l 365 831 q 234 874 306 856 q 206 894 216 878 q 206 938 197 910 l 222 985 q 352 953 289 974 q 472 899 416 932 l 590 982 l 616 938 q 620 913 624 925 q 606 892 617 901 l 542 850 z "},"e":{"ha":735,"x_min":55,"x_max":685,"o":"m 563 431 q 551 506 563 472 q 517 565 540 540 q 463 603 495 590 q 390 617 431 617 q 255 568 304 617 q 193 431 206 519 l 563 431 m 674 101 q 617 50 649 72 q 547 16 584 29 q 471 -3 510 3 q 394 -10 432 -10 q 259 15 321 -10 q 151 87 197 40 q 80 205 106 135 q 55 367 55 276 q 78 505 55 441 q 143 615 101 568 q 248 690 186 663 q 387 717 310 717 q 506 695 451 717 q 600 634 560 674 q 662 535 640 594 q 685 400 685 476 q 678 358 685 369 q 652 347 671 347 l 190 347 q 208 237 192 284 q 252 159 224 190 q 319 113 280 128 q 406 97 358 97 q 484 108 451 97 q 541 130 517 118 q 581 153 565 142 q 610 163 597 163 q 635 151 626 163 l 674 101 z "},"ę":{"ha":735,"x_min":55,"x_max":685,"o":"m 563 431 q 551 506 563 472 q 517 565 540 540 q 463 603 495 590 q 390 617 431 617 q 255 568 304 617 q 193 431 206 519 l 563 431 m 553 -202 q 499 -228 532 -218 q 431 -237 467 -237 q 332 -210 367 -237 q 297 -137 297 -183 q 319 -69 297 -101 q 379 -10 342 -36 q 249 19 309 -7 q 147 92 190 44 q 79 209 103 140 q 55 367 55 278 q 78 505 55 441 q 143 615 101 568 q 248 690 186 663 q 387 717 310 717 q 506 695 451 717 q 600 634 560 674 q 662 535 640 594 q 685 400 685 476 q 678 358 685 369 q 652 347 671 347 l 190 347 q 208 237 192 284 q 252 159 224 190 q 319 113 280 128 q 406 97 358 97 q 484 108 451 97 q 541 130 517 118 q 581 153 565 142 q 610 163 597 163 q 635 151 626 163 l 674 101 q 584 32 637 57 q 473 -3 531 6 q 447 -22 460 -11 q 423 -44 433 -32 q 405 -72 412 -57 q 399 -103 399 -87 q 415 -142 399 -128 q 458 -157 431 -157 q 484 -155 474 -157 q 500 -150 494 -152 q 511 -145 507 -147 q 519 -142 515 -142 q 533 -151 529 -142 l 553 -202 z "},"f":{"ha":490,"x_min":32,"x_max":477,"o":"m 142 0 l 142 594 l 68 603 q 42 615 52 607 q 32 638 32 623 l 32 694 l 142 694 l 142 758 q 159 866 142 819 q 209 946 176 913 q 286 996 241 979 q 389 1013 332 1013 q 477 999 437 1013 l 474 931 q 469 918 474 922 q 456 911 464 913 q 436 909 448 909 q 412 908 425 908 q 355 901 381 908 q 311 875 329 893 q 283 827 293 857 q 274 754 274 798 l 274 694 l 472 694 l 472 596 l 278 596 l 278 0 l 142 0 z "},"ﬀ":{"ha":930,"x_min":32,"x_max":918,"o":"m 142 0 l 142 594 l 68 603 q 42 615 52 607 q 32 638 32 623 l 32 694 l 142 694 l 142 747 q 159 855 142 808 q 209 935 176 902 q 286 985 241 968 q 389 1002 332 1002 q 477 988 437 1002 l 474 919 q 469 907 474 911 q 456 900 464 902 q 436 898 448 898 q 412 897 425 897 q 355 890 381 897 q 311 864 329 882 q 283 816 293 846 q 274 743 274 787 l 274 694 l 582 694 l 582 767 q 599 874 582 827 q 649 955 617 922 q 727 1005 681 988 q 830 1022 773 1022 q 918 1008 876 1022 l 915 940 q 909 926 914 931 q 897 919 905 922 q 877 917 888 917 q 852 917 866 917 q 795 909 821 917 q 751 883 769 901 q 724 836 733 865 q 714 763 714 806 l 714 694 l 912 694 l 912 596 l 718 596 l 718 0 l 582 0 l 582 596 l 278 596 l 278 0 l 142 0 z "},"ﬁ":{"ha":805,"x_min":33,"x_max":703,"o":"m 142 0 l 142 594 l 69 603 q 43 615 53 607 q 33 638 33 623 l 33 694 l 142 694 l 142 728 q 163 848 142 793 q 225 942 183 902 q 327 1003 266 981 q 472 1025 389 1025 q 527 1022 498 1025 q 576 1011 556 1018 l 572 940 q 554 926 570 926 q 510 925 538 925 q 402 913 447 925 q 329 875 358 900 q 288 812 301 850 q 274 724 274 774 l 274 694 l 703 694 l 703 0 l 567 0 l 567 596 l 278 596 l 278 0 l 142 0 z "},"ﬃ":{"ha":1245,"x_min":33,"x_max":1144,"o":"m 142 0 l 142 594 l 69 603 q 43 615 53 607 q 33 638 33 623 l 33 694 l 142 694 l 142 747 q 160 855 142 808 q 209 935 177 902 q 288 985 242 968 q 390 1002 333 1002 q 478 988 437 1002 l 475 919 q 469 907 474 911 q 457 900 465 902 q 437 898 449 898 q 413 897 426 897 q 356 890 381 897 q 312 864 330 882 q 284 816 294 846 q 274 743 274 787 l 274 694 l 583 694 l 583 728 q 604 848 583 793 q 665 942 624 902 q 768 1003 706 981 q 913 1025 830 1025 q 968 1022 939 1025 q 1017 1011 997 1018 l 1012 940 q 994 926 1010 926 q 951 925 978 925 q 843 913 888 925 q 769 875 798 900 q 728 812 741 850 q 715 724 715 774 l 715 694 l 1144 694 l 1144 0 l 1008 0 l 1008 596 l 719 596 l 719 0 l 583 0 l 583 596 l 278 596 l 278 0 l 142 0 z "},"ﬂ":{"ha":826,"x_min":33,"x_max":728,"o":"m 142 0 l 142 594 l 69 603 q 43 615 53 607 q 33 638 33 623 l 33 694 l 142 694 l 142 729 q 160 840 142 788 q 215 931 178 892 q 305 994 251 971 q 433 1017 360 1017 q 547 1012 493 1017 q 653 1008 601 1008 l 728 1008 l 728 0 l 593 0 l 593 913 q 518 916 556 914 q 454 918 481 918 q 321 868 367 918 q 274 729 274 819 l 274 694 l 453 694 l 453 596 l 278 596 l 278 0 l 142 0 z "},"ﬄ":{"ha":1266,"x_min":32,"x_max":1168,"o":"m 142 0 l 142 594 l 68 603 q 42 615 52 607 q 32 638 32 623 l 32 694 l 142 694 l 142 747 q 159 855 142 808 q 209 935 176 902 q 286 985 241 968 q 389 1002 332 1002 q 477 988 437 1002 l 474 919 q 469 907 474 911 q 456 900 464 902 q 436 898 448 898 q 412 897 425 897 q 355 890 381 897 q 311 864 329 882 q 283 816 293 846 q 274 743 274 787 l 274 694 l 582 694 l 582 729 q 600 840 582 788 q 655 931 618 892 q 745 994 691 971 q 874 1017 800 1017 q 978 1013 928 1017 q 1076 1008 1028 1008 l 1168 1008 l 1168 0 l 1033 0 l 1033 913 q 959 916 997 914 q 894 918 921 918 q 761 868 808 918 q 714 729 714 819 l 714 694 l 912 694 l 912 596 l 718 596 l 718 0 l 582 0 l 582 596 l 278 596 l 278 0 l 142 0 z "},"g":{"ha":725,"x_min":41,"x_max":697,"o":"m 343 352 q 407 362 379 352 q 452 389 434 372 q 480 432 471 407 q 490 487 490 457 q 452 584 490 548 q 343 621 415 621 q 234 584 272 621 q 197 487 197 548 q 207 432 197 457 q 234 390 216 408 q 280 362 253 372 q 343 352 308 352 m 559 -37 q 545 3 559 -12 q 507 27 531 18 q 451 39 483 35 q 384 45 419 43 q 313 49 349 47 q 242 56 276 51 q 182 12 206 38 q 159 -49 159 -14 q 170 -90 159 -71 q 206 -124 182 -110 q 266 -146 230 -138 q 353 -154 303 -154 q 442 -145 403 -154 q 506 -121 480 -137 q 545 -84 532 -106 q 559 -37 559 -62 m 697 679 l 697 628 q 665 597 697 603 l 590 586 q 605 541 599 565 q 610 490 610 517 q 590 396 610 438 q 535 324 570 354 q 450 278 499 294 q 343 263 401 263 q 253 273 295 263 q 222 245 233 260 q 211 216 211 231 q 232 180 211 192 q 285 163 252 168 q 361 156 318 158 q 448 152 403 155 q 534 141 492 149 q 610 115 577 133 q 664 66 643 97 q 684 -14 684 35 q 661 -103 684 -60 q 596 -179 639 -146 q 491 -233 553 -212 q 351 -253 429 -253 q 214 -237 272 -253 q 118 -197 156 -222 q 60 -137 79 -171 q 41 -66 41 -103 q 73 21 41 -15 q 161 77 105 57 q 113 115 131 91 q 94 178 94 139 q 100 210 94 194 q 117 243 106 226 q 145 274 128 259 q 185 300 163 288 q 103 377 133 329 q 73 490 73 426 q 93 584 73 542 q 149 656 113 626 q 234 701 185 685 q 343 717 284 717 q 501 679 435 717 l 697 679 z "},"h":{"ha":777,"x_min":95,"x_max":690,"o":"m 231 616 q 329 689 275 661 q 453 717 383 717 q 555 697 511 717 q 629 643 599 678 q 674 558 659 608 q 690 449 690 509 l 690 0 l 553 0 l 553 449 q 519 567 553 525 q 413 609 484 609 q 315 584 360 609 q 231 517 269 560 l 231 0 l 95 0 l 95 1025 l 231 1025 l 231 616 z "},"ĥ":{"ha":777,"x_min":-65,"x_max":690,"o":"m 389 1074 l 290 1074 q 269 1077 281 1074 q 244 1096 256 1080 l 168 1188 l 160 1200 l 151 1188 l 76 1096 q 51 1077 63 1080 q 29 1074 38 1074 l -65 1074 l 101 1263 l 223 1263 l 389 1074 m 231 616 q 329 689 275 661 q 453 717 383 717 q 555 697 511 717 q 629 643 599 678 q 674 558 659 608 q 690 449 690 509 l 690 0 l 553 0 l 553 449 q 519 567 553 525 q 413 609 484 609 q 315 584 360 609 q 231 517 269 560 l 231 0 l 95 0 l 95 1025 l 231 1025 l 231 616 z "},"ħ":{"ha":777,"x_min":-10,"x_max":689,"o":"m 231 600 q 328 673 275 646 q 452 700 382 700 q 555 681 510 700 q 628 626 599 661 q 674 542 658 591 q 689 433 689 492 l 689 0 l 553 0 l 553 433 q 518 550 553 508 q 413 592 483 592 q 315 568 360 592 q 231 501 269 544 l 231 0 l 94 0 l 94 800 l -10 800 l -10 886 l 94 886 l 94 1025 l 231 1025 l 231 886 l 432 886 l 432 800 l 231 800 l 231 600 z "},"i":{"ha":338,"x_min":76,"x_max":263,"o":"m 237 706 l 237 0 l 101 0 l 101 706 l 237 706 m 263 924 q 255 888 263 905 q 234 858 247 871 q 204 838 222 845 q 168 831 187 831 q 133 838 149 831 q 103 858 116 845 q 83 888 90 871 q 76 924 76 905 q 83 960 76 943 q 103 990 90 977 q 133 1010 116 1003 q 168 1017 149 1017 q 204 1010 187 1017 q 234 990 222 1003 q 255 960 247 977 q 263 924 263 943 z "},"į":{"ha":338,"x_min":44,"x_max":300,"o":"m 168 831 q 133 838 149 831 q 103 858 116 845 q 83 888 90 871 q 76 924 76 905 q 83 960 76 943 q 103 990 90 977 q 133 1010 116 1003 q 168 1017 149 1017 q 204 1010 187 1017 q 234 990 222 1003 q 255 960 247 977 q 263 924 263 943 q 255 888 263 905 q 234 858 247 871 q 204 838 222 845 q 168 831 187 831 m 300 -202 q 246 -228 278 -218 q 177 -237 213 -237 q 79 -210 114 -237 q 44 -137 44 -183 q 70 -62 44 -97 q 140 0 97 -27 l 101 0 l 101 706 l 237 706 l 237 0 l 225 0 q 197 -18 211 -8 q 171 -42 183 -28 q 152 -70 160 -55 q 145 -103 145 -86 q 161 -142 145 -128 q 205 -157 178 -157 q 230 -155 220 -157 q 247 -150 240 -152 q 258 -145 253 -147 q 265 -142 262 -142 q 279 -151 276 -142 l 300 -202 z "},"ı":{"ha":339,"x_min":101,"x_max":238,"o":"m 238 706 l 238 0 l 101 0 l 101 706 l 238 706 z "},"j":{"ha":338,"x_min":-50,"x_max":263,"o":"m 237 706 l 237 -44 q 225 -126 237 -88 q 189 -192 214 -164 q 125 -236 165 -220 q 31 -252 86 -252 q -11 -249 8 -252 q -50 -239 -31 -245 l -44 -165 q -32 -151 -42 -152 q 3 -149 -23 -149 q 79 -125 57 -149 q 101 -44 101 -101 l 101 706 l 237 706 m 263 924 q 255 888 263 905 q 234 858 247 871 q 204 838 221 845 q 167 831 187 831 q 132 838 149 831 q 102 858 115 845 q 82 888 90 871 q 75 924 75 905 q 82 960 75 943 q 102 990 90 977 q 132 1010 115 1003 q 167 1017 149 1017 q 204 1010 187 1017 q 234 990 221 1003 q 255 960 247 977 q 263 924 263 943 z "},"ȷ":{"ha":339,"x_min":-49,"x_max":238,"o":"m 238 706 l 238 -44 q 226 -126 238 -88 q 190 -192 215 -164 q 125 -236 165 -220 q 31 -252 86 -252 q -11 -249 8 -252 q -49 -239 -30 -245 l -44 -165 q -40 -155 -43 -158 q -32 -151 -37 -152 q -18 -149 -27 -149 q 3 -149 -10 -149 q 79 -125 57 -149 q 101 -44 101 -100 l 101 706 l 238 706 z "},"k":{"ha":715,"x_min":95,"x_max":709,"o":"m 231 1025 l 231 426 l 263 426 q 287 430 277 426 q 307 447 297 434 l 518 679 q 540 699 528 692 q 569 706 551 706 l 693 706 l 444 433 q 401 393 424 407 q 424 372 414 384 q 444 347 434 360 l 709 0 l 588 0 q 559 6 571 0 q 537 26 547 11 l 319 309 q 298 330 308 325 q 267 334 288 334 l 231 334 l 231 0 l 95 0 l 95 1025 l 231 1025 z "},"ĸ":{"ha":715,"x_min":95,"x_max":709,"o":"m 231 706 l 231 426 l 263 426 q 287 430 277 426 q 307 447 297 434 l 518 679 q 540 699 528 692 q 569 706 551 706 l 693 706 l 444 433 q 401 393 424 407 q 424 372 414 384 q 444 347 434 360 l 709 0 l 588 0 q 559 6 571 0 q 537 26 547 11 l 319 309 q 298 330 308 325 q 267 334 288 334 l 231 334 l 231 0 l 95 0 l 95 706 l 231 706 z "},"ł":{"ha":435,"x_min":29,"x_max":417,"o":"m 417 705 l 417 626 q 397 594 417 602 l 288 547 l 288 0 l 152 0 l 152 497 l 29 445 l 29 526 q 47 555 29 546 l 152 601 l 152 1025 l 288 1025 l 288 651 l 417 705 z "},"ľ":{"ha":332,"x_min":98,"x_max":465,"o":"m 234 1025 l 234 0 l 98 0 l 98 1025 l 234 1025 m 441 1026 q 461 1019 457 1026 q 465 1003 465 1011 q 463 985 465 997 q 454 953 460 974 q 436 901 447 933 q 406 822 424 869 q 388 801 399 806 q 358 796 376 796 l 310 796 l 351 1026 l 441 1026 z "},"m":{"ha":1148,"x_min":95,"x_max":1060,"o":"m 95 0 l 95 706 l 176 706 q 212 678 205 706 l 222 611 q 308 687 260 658 q 419 717 356 717 q 533 678 490 717 q 597 574 577 640 q 637 638 613 611 q 691 683 661 665 q 755 708 721 700 q 823 717 788 717 q 923 699 879 717 q 998 647 967 681 q 1044 563 1028 613 q 1060 449 1060 513 l 1060 0 l 924 0 l 924 449 q 890 569 924 528 q 790 609 856 609 q 734 599 760 609 q 688 569 708 589 q 657 519 668 549 q 645 449 645 489 l 645 0 l 509 0 l 509 449 q 476 570 509 531 q 381 609 444 609 q 299 586 337 609 q 231 524 262 563 l 231 0 l 95 0 z "},"n":{"ha":777,"x_min":95,"x_max":690,"o":"m 222 608 q 270 652 245 632 q 323 686 295 672 q 384 709 351 701 q 453 717 416 717 q 555 697 511 717 q 629 643 599 678 q 674 558 659 608 q 690 449 690 509 l 690 0 l 553 0 l 553 449 q 519 567 553 525 q 413 609 484 609 q 315 584 360 609 q 231 517 269 560 l 231 0 l 95 0 l 95 706 l 176 706 q 212 678 205 706 l 222 608 z "},"ŋ":{"ha":777,"x_min":95,"x_max":690,"o":"m 222 608 q 270 652 245 632 q 323 686 295 672 q 384 709 351 701 q 453 717 416 717 q 555 697 511 717 q 629 643 599 678 q 674 558 659 608 q 690 449 690 509 l 690 6 q 675 -99 690 -51 q 632 -181 661 -147 q 558 -234 603 -215 q 451 -253 513 -253 q 389 -247 417 -253 q 330 -227 361 -241 l 344 -168 q 357 -146 349 -151 q 375 -141 365 -141 q 399 -145 385 -141 q 438 -150 413 -150 q 524 -115 494 -150 q 553 -9 553 -81 l 553 449 q 519 567 553 525 q 413 609 484 609 q 315 584 360 609 q 231 517 269 560 l 231 0 l 95 0 l 95 706 l 176 706 q 212 678 205 706 l 222 608 z "},"o":{"ha":790,"x_min":55,"x_max":735,"o":"m 396 717 q 536 691 474 717 q 643 618 599 666 q 711 504 688 571 q 735 353 735 437 q 711 203 735 270 q 643 88 688 135 q 536 16 599 41 q 396 -10 474 -10 q 255 16 317 -10 q 147 88 192 41 q 79 203 103 135 q 55 353 55 270 q 79 504 55 437 q 147 618 103 571 q 255 691 192 666 q 396 717 317 717 m 396 96 q 545 163 496 96 q 594 353 594 231 q 545 543 594 475 q 396 610 496 610 q 245 543 294 610 q 195 353 195 475 q 245 163 195 231 q 396 96 294 96 z "},"ø":{"ha":789,"x_min":48,"x_max":756,"o":"m 280 122 q 396 92 327 92 q 484 109 446 92 q 549 161 523 127 q 589 243 576 194 q 603 353 603 292 q 570 515 603 452 l 280 122 m 515 580 q 396 615 468 615 q 306 597 345 615 q 241 545 267 578 q 200 463 214 511 q 187 353 187 414 q 223 184 187 249 l 515 580 m 645 616 q 712 502 689 569 q 735 353 735 436 q 711 203 735 270 q 643 88 688 135 q 536 16 599 41 q 396 -10 474 -10 q 215 35 292 -10 l 181 -12 q 143 -44 166 -35 q 98 -53 120 -53 l 48 -53 l 150 85 q 80 201 104 133 q 55 353 55 268 q 79 504 55 437 q 147 618 103 571 q 255 691 192 666 q 396 717 317 717 q 581 669 503 717 l 626 729 q 652 759 639 751 q 689 767 665 767 l 756 767 l 645 616 z "},"œ":{"ha":1214,"x_min":56,"x_max":1160,"o":"m 1040 417 q 1029 496 1040 460 q 999 560 1019 533 q 950 602 979 587 q 883 617 921 617 q 811 603 842 617 q 756 564 779 590 q 719 501 733 538 q 700 417 705 464 l 1040 417 m 381 96 q 519 163 474 96 q 565 353 565 231 q 519 543 565 475 q 381 610 474 610 q 241 543 287 610 q 195 353 195 475 q 241 163 195 231 q 381 96 287 96 m 699 333 q 718 229 702 274 q 759 156 733 185 q 821 112 785 126 q 899 97 856 97 q 971 108 941 97 q 1023 130 1001 118 q 1061 153 1045 142 q 1090 163 1076 163 q 1115 151 1106 163 l 1153 101 q 1098 50 1129 72 q 1032 16 1067 29 q 960 -3 997 3 q 887 -10 923 -10 q 740 29 806 -10 q 634 147 674 67 q 529 31 597 72 q 368 -10 461 -10 q 241 16 299 -10 q 142 88 183 41 q 78 203 101 135 q 56 353 56 270 q 78 504 56 437 q 143 618 101 571 q 243 691 185 666 q 373 717 301 717 q 529 677 463 717 q 633 563 595 637 q 733 675 669 633 q 889 717 797 717 q 996 694 947 717 q 1082 629 1046 672 q 1140 525 1119 586 q 1160 386 1160 464 q 1154 344 1160 355 q 1129 333 1148 333 l 699 333 z "},"p":{"ha":781,"x_min":95,"x_max":724,"o":"m 231 174 q 302 113 264 130 q 389 95 341 95 q 533 162 482 95 q 584 358 584 229 q 573 473 584 425 q 539 550 561 520 q 485 595 517 581 q 413 609 453 609 q 311 583 354 609 q 231 508 267 556 l 231 174 m 224 600 q 271 648 246 626 q 326 686 297 670 q 388 710 355 701 q 458 719 421 719 q 568 695 519 719 q 651 626 617 672 q 705 513 686 580 q 724 358 724 445 q 703 212 724 279 q 643 96 682 145 q 547 18 603 47 q 419 -10 490 -10 q 311 11 356 -10 q 231 69 266 32 l 231 -237 l 95 -237 l 95 706 l 176 706 q 212 678 205 706 l 224 600 z "},"þ":{"ha":781,"x_min":95,"x_max":724,"o":"m 231 174 q 302 113 264 130 q 389 95 341 95 q 533 162 482 95 q 584 358 584 229 q 573 473 584 425 q 539 550 561 520 q 485 595 517 581 q 413 609 453 609 q 311 583 354 609 q 231 508 267 556 l 231 174 m 231 608 q 330 687 274 657 q 458 717 386 717 q 568 693 519 717 q 651 625 617 670 q 705 513 686 580 q 724 358 724 445 q 703 212 724 279 q 643 96 682 145 q 547 18 603 47 q 419 -10 490 -10 q 310 14 355 -10 q 231 79 266 38 l 231 -237 l 95 -237 l 95 1025 l 231 1025 l 231 608 z "},"q":{"ha":780,"x_min":57,"x_max":686,"o":"m 550 535 q 479 595 519 577 q 392 613 439 613 q 248 546 299 613 q 197 351 197 479 q 208 236 197 283 q 241 158 219 188 q 295 114 263 128 q 367 99 327 99 q 469 126 426 99 q 550 200 513 152 l 550 535 m 686 706 l 686 -237 l 550 -237 l 550 101 q 451 20 506 51 q 322 -10 395 -10 q 213 14 262 -10 q 129 83 164 38 q 76 196 94 128 q 57 351 57 263 q 78 497 57 429 q 138 613 99 564 q 234 691 178 663 q 361 719 290 719 q 424 713 395 719 q 476 694 452 706 q 521 666 501 683 q 560 628 542 649 l 569 678 q 604 706 576 706 l 686 706 z "},"r":{"ha":509,"x_min":95,"x_max":499,"o":"m 223 570 q 305 679 257 640 q 420 719 353 719 q 464 714 443 719 q 499 698 484 708 l 490 596 q 467 577 485 577 q 438 581 458 577 q 397 585 419 585 q 339 575 364 585 q 294 548 314 566 q 259 502 274 529 q 231 442 244 476 l 231 0 l 95 0 l 95 706 l 173 706 q 203 698 195 706 q 215 669 211 690 l 223 570 z "},"s":{"ha":603,"x_min":43,"x_max":552,"o":"m 511 584 q 499 571 506 575 q 483 567 493 567 q 459 575 472 567 q 426 592 445 583 q 381 608 407 601 q 320 616 356 616 q 267 609 291 616 q 226 589 243 601 q 201 558 210 576 q 192 520 192 540 q 207 476 192 494 q 248 447 223 459 q 306 424 274 434 q 372 403 338 414 q 438 377 406 392 q 495 342 470 363 q 536 291 521 321 q 552 218 552 261 q 534 127 552 169 q 482 54 517 85 q 397 6 448 24 q 281 -11 347 -11 q 147 13 208 -11 q 43 75 85 38 l 75 127 q 89 142 81 137 q 111 147 97 147 q 138 138 124 147 q 172 116 152 128 q 219 95 191 105 q 288 86 247 86 q 349 95 323 86 q 391 118 374 103 q 417 153 408 133 q 425 194 425 172 q 409 240 425 222 q 368 272 394 258 q 310 294 343 285 q 244 315 278 304 q 177 341 210 326 q 119 378 144 356 q 78 432 94 400 q 63 510 63 464 q 80 588 63 551 q 129 654 97 626 q 209 700 161 683 q 317 717 256 717 q 444 694 388 717 q 541 633 501 672 l 511 584 z "},"ş":{"ha":603,"x_min":43,"x_max":552,"o":"m 511 584 q 499 571 506 575 q 483 567 493 567 q 459 575 472 567 q 426 592 445 583 q 381 608 407 601 q 320 616 356 616 q 267 609 291 616 q 226 589 243 601 q 201 558 210 576 q 192 520 192 540 q 207 476 192 494 q 248 447 223 459 q 306 424 274 434 q 372 403 338 414 q 438 377 406 392 q 495 342 470 363 q 536 291 521 321 q 552 218 552 261 q 537 134 552 173 q 493 65 522 95 q 422 16 465 35 q 324 -9 379 -3 l 313 -49 q 406 -88 378 -63 q 434 -150 434 -112 q 423 -191 434 -173 q 391 -222 411 -209 q 341 -241 370 -234 q 278 -248 313 -248 q 225 -243 250 -248 q 177 -228 199 -237 l 190 -185 q 207 -172 194 -172 q 217 -175 211 -172 q 230 -180 222 -177 q 247 -184 237 -182 q 272 -187 258 -187 q 313 -176 299 -187 q 327 -148 327 -165 q 299 -113 327 -123 q 217 -96 271 -103 l 246 -10 q 132 19 183 -4 q 43 75 80 42 l 75 127 q 89 142 81 137 q 111 147 97 147 q 138 138 124 147 q 172 116 152 128 q 219 95 191 105 q 288 86 247 86 q 349 95 323 86 q 391 118 374 103 q 417 153 408 133 q 425 194 425 172 q 409 240 425 222 q 368 272 394 258 q 310 294 343 285 q 244 315 278 304 q 177 341 210 326 q 119 378 144 356 q 78 432 94 400 q 63 510 63 464 q 80 588 63 551 q 129 654 97 626 q 209 700 161 683 q 317 717 256 717 q 444 694 388 717 q 541 633 501 672 l 511 584 z "},"ß":{"ha":814,"x_min":94,"x_max":771,"o":"m 439 1013 q 566 992 513 1013 q 655 937 620 970 q 706 865 689 904 q 722 790 722 826 q 708 720 722 749 q 671 668 693 690 q 624 628 649 645 q 577 594 599 610 q 540 561 555 578 q 526 523 526 544 q 544 479 526 497 q 589 445 562 461 q 648 413 617 430 q 707 372 680 397 q 753 311 735 347 q 771 222 771 275 q 751 123 771 166 q 695 50 731 80 q 612 5 660 20 q 510 -11 565 -11 q 387 13 443 -11 q 290 75 331 38 l 321 127 q 335 142 327 137 q 357 147 344 147 q 384 138 370 147 q 417 116 399 128 q 461 95 435 105 q 522 86 486 86 q 572 95 549 86 q 611 119 595 103 q 636 155 627 134 q 644 200 644 176 q 633 248 644 228 q 604 283 622 268 q 562 310 585 299 q 514 334 539 322 q 466 360 490 347 q 425 393 443 374 q 395 436 406 411 q 384 496 384 461 q 399 561 384 534 q 438 611 415 589 q 488 651 460 633 q 538 690 515 669 q 576 734 560 710 q 591 790 591 758 q 582 834 591 813 q 555 874 574 856 q 506 902 536 891 q 433 913 476 913 q 349 898 387 913 q 285 855 312 883 q 245 783 259 826 q 231 683 231 740 l 231 0 l 94 0 l 94 687 q 119 820 94 760 q 188 923 143 880 q 297 990 233 966 q 439 1013 360 1013 z "},"ſ":{"ha":401,"x_min":33,"x_max":479,"o":"m 142 758 q 160 866 142 819 q 209 946 177 913 q 288 996 242 979 q 390 1013 333 1013 q 479 999 438 1013 l 474 928 q 469 918 474 921 q 456 913 464 915 q 436 912 447 912 q 413 913 425 913 q 356 904 381 913 q 314 877 331 896 q 288 828 297 858 q 278 754 278 798 l 278 0 l 142 0 l 142 594 l 69 603 q 43 615 53 607 q 33 638 33 623 l 33 694 l 142 694 l 142 758 z "},"t":{"ha":503,"x_min":28,"x_max":490,"o":"m 316 -11 q 184 37 231 -11 q 138 174 138 85 l 138 596 l 56 596 q 36 603 44 596 q 28 625 28 610 l 28 680 l 143 696 l 174 906 q 184 925 176 918 q 205 931 192 931 l 274 931 l 274 694 l 474 694 l 474 596 l 274 596 l 274 183 q 294 120 274 141 q 347 100 315 100 q 379 105 365 100 q 402 116 392 110 q 419 126 412 122 q 431 131 426 131 q 442 128 438 131 q 450 118 446 125 l 490 53 q 411 6 457 22 q 316 -11 365 -11 z "},"ť":{"ha":501,"x_min":27,"x_max":569,"o":"m 315 -11 q 183 37 229 -11 q 137 174 137 85 l 137 596 l 55 596 q 35 603 43 596 q 27 625 27 610 l 27 680 l 142 696 l 172 906 q 183 925 175 918 q 203 931 191 931 l 272 931 l 272 694 l 472 694 l 472 596 l 272 596 l 272 183 q 293 120 272 141 q 345 100 313 100 q 377 105 364 100 q 401 116 391 110 q 417 126 410 122 q 430 131 424 131 q 441 128 437 131 q 449 118 444 125 l 489 53 q 410 6 456 22 q 315 -11 364 -11 m 545 1026 q 565 1019 561 1026 q 569 1003 569 1011 q 567 985 569 997 q 558 953 565 974 q 540 901 551 933 q 510 822 528 869 q 492 801 503 806 q 462 796 481 796 l 415 796 l 455 1026 l 545 1026 z "},"ŧ":{"ha":508,"x_min":31,"x_max":492,"o":"m 44 481 l 140 481 l 140 596 l 58 596 q 39 603 47 596 q 31 625 31 610 l 31 680 l 145 696 l 176 906 q 186 925 178 918 q 207 931 194 931 l 276 931 l 276 694 l 476 694 l 476 596 l 276 596 l 276 481 l 478 481 l 478 395 l 276 395 l 276 183 q 296 120 276 141 q 349 100 317 100 q 381 105 367 100 q 404 116 394 110 q 421 126 414 122 q 433 131 428 131 q 444 128 440 131 q 452 118 448 125 l 492 53 q 413 6 459 22 q 318 -11 367 -11 q 186 37 233 -11 q 140 174 140 85 l 140 395 l 44 395 l 44 481 z "},"u":{"ha":776,"x_min":88,"x_max":682,"o":"m 682 706 l 682 0 l 601 0 q 565 27 573 0 l 555 98 q 507 53 532 74 q 453 19 482 33 q 393 -3 425 5 q 324 -11 361 -11 q 222 8 266 -11 q 148 63 178 28 q 103 147 118 98 q 88 256 88 197 l 88 706 l 224 706 l 224 256 q 258 139 224 181 q 365 97 293 97 q 462 121 417 97 q 547 189 507 146 l 547 706 l 682 706 z "},"ų":{"ha":776,"x_min":88,"x_max":757,"o":"m 757 -202 q 703 -228 735 -218 q 634 -237 670 -237 q 536 -210 571 -237 q 501 -137 501 -183 q 527 -62 501 -97 q 597 0 553 -27 q 565 27 572 2 l 555 98 q 507 53 532 74 q 453 19 482 33 q 393 -3 425 5 q 324 -11 361 -11 q 222 8 266 -11 q 148 63 178 28 q 103 147 118 98 q 88 256 88 197 l 88 706 l 224 706 l 224 256 q 258 139 224 181 q 365 97 293 97 q 462 121 417 97 q 547 189 507 146 l 547 706 l 682 706 l 682 0 q 654 -18 668 -8 q 628 -42 640 -28 q 609 -70 617 -55 q 602 -103 602 -86 q 618 -142 602 -128 q 662 -157 635 -157 q 687 -155 677 -157 q 704 -150 697 -152 q 715 -145 710 -147 q 722 -142 719 -142 q 736 -151 733 -142 l 757 -202 z "},"v":{"ha":721,"x_min":13,"x_max":708,"o":"m 708 706 l 422 0 l 299 0 l 13 706 l 125 706 q 151 698 141 706 q 165 678 162 690 l 334 245 q 350 191 343 218 q 362 138 356 165 q 374 191 367 165 q 391 245 381 217 l 562 678 q 576 698 566 690 q 601 706 587 706 l 708 706 z "},"w":{"ha":1097,"x_min":20,"x_max":1076,"o":"m 1076 706 l 849 0 l 741 0 q 715 26 722 0 l 566 485 q 556 520 560 503 q 549 554 552 537 q 531 484 542 518 l 381 26 q 351 0 374 0 l 248 0 l 20 706 l 127 706 q 154 698 143 706 q 168 678 165 690 l 295 245 q 306 194 301 219 q 315 144 311 169 q 329 194 322 169 q 344 245 336 219 l 485 681 q 498 700 488 693 q 522 708 508 708 l 581 708 q 606 700 596 708 q 619 681 616 693 l 757 245 q 772 193 765 219 q 784 142 778 168 q 794 193 788 167 q 806 245 799 218 l 935 678 q 950 698 939 690 q 974 706 960 706 l 1076 706 z "},"x":{"ha":700,"x_min":13,"x_max":687,"o":"m 687 0 l 556 0 q 531 9 540 0 q 516 27 522 17 l 346 296 q 339 276 342 285 q 330 258 335 266 l 174 27 q 158 9 167 17 q 134 0 149 0 l 13 0 l 259 363 l 23 706 l 153 706 q 177 701 169 706 q 190 686 184 696 l 357 428 q 365 449 360 439 q 376 470 369 459 l 519 683 q 553 706 532 706 l 677 706 l 441 369 l 687 0 z "},"y":{"ha":720,"x_min":12,"x_max":712,"o":"m 712 706 l 320 -205 q 303 -228 314 -220 q 273 -237 293 -237 l 172 -237 l 301 44 l 12 706 l 130 706 q 157 697 147 706 q 171 678 167 689 l 350 255 q 361 223 356 239 q 369 190 366 206 q 380 223 374 207 q 392 256 385 240 l 565 678 q 580 698 569 690 q 603 706 590 706 l 712 706 z "},"z":{"ha":631,"x_min":39,"x_max":587,"o":"m 587 649 q 582 620 587 634 q 568 597 576 606 l 198 106 l 574 106 l 574 0 l 39 0 l 39 57 q 44 80 39 67 q 58 106 49 94 l 430 599 l 60 599 l 60 706 l 587 706 l 587 649 z "},"ª":{"ha":510,"x_min":66,"x_max":423,"o":"m 326 763 q 248 756 280 762 q 197 742 216 751 q 169 721 177 733 q 160 696 160 710 q 177 658 160 669 q 222 647 194 647 q 278 659 255 647 q 326 694 302 671 l 326 763 m 88 943 q 168 994 125 978 q 263 1010 210 1010 q 330 998 300 1010 q 381 965 360 986 q 412 914 401 943 q 423 849 423 884 l 423 583 l 377 583 q 356 588 363 583 q 344 605 349 592 l 335 637 q 302 611 318 622 q 270 593 287 600 q 234 582 253 585 q 191 578 215 578 q 141 585 164 578 q 101 606 118 592 q 75 641 85 620 q 66 691 66 663 q 79 738 66 715 q 122 781 92 762 q 202 811 153 799 q 326 825 252 824 l 326 849 q 307 910 326 891 q 251 930 288 930 q 208 924 225 930 q 178 911 191 918 q 156 898 166 904 q 134 892 146 892 q 117 899 124 892 q 105 911 110 905 l 88 943 z "},"º":{"ha":558,"x_min":62,"x_max":497,"o":"m 280 1009 q 369 994 328 1009 q 437 951 409 979 q 481 883 465 923 q 497 793 497 843 q 481 702 497 742 q 437 634 465 662 q 369 590 409 606 q 280 575 328 575 q 190 590 231 575 q 122 634 150 606 q 77 702 93 662 q 62 793 62 742 q 77 883 62 843 q 122 951 93 923 q 190 994 150 979 q 280 1009 231 1009 m 280 656 q 390 792 390 656 q 280 928 390 928 q 195 894 222 928 q 168 792 168 860 q 195 691 168 725 q 280 656 222 656 z "},"ⁿ":{"ha":426,"x_min":56,"x_max":375,"o":"m 138 948 q 187 988 160 972 q 253 1003 214 1003 q 306 992 283 1003 q 344 964 328 982 q 367 920 359 946 q 375 865 375 895 l 375 635 l 280 635 l 280 865 q 266 910 280 894 q 224 926 252 926 q 185 918 203 926 q 151 894 167 909 l 151 635 l 56 635 l 56 997 l 106 997 q 132 977 124 997 l 138 948 z "},"`":{"ha":556,"x_min":82,"x_max":370,"o":"m 210 1008 q 247 1000 235 1008 q 268 976 258 992 l 370 808 l 293 808 q 267 813 277 808 q 247 829 257 817 l 82 1008 l 210 1008 z "},"´":{"ha":556,"x_min":197,"x_max":490,"o":"m 490 1008 l 325 829 q 305 813 315 817 q 279 808 295 808 l 197 808 l 300 976 q 321 1000 310 992 q 357 1008 333 1008 l 490 1008 z "},"ˆ":{"ha":556,"x_min":58,"x_max":497,"o":"m 497 812 l 406 812 q 390 815 398 812 q 373 826 382 817 l 292 913 q 280 926 286 918 q 268 913 274 918 l 185 826 q 170 815 178 819 q 153 812 161 812 l 58 812 l 215 997 l 341 997 l 497 812 z "},"ˇ":{"ha":556,"x_min":58,"x_max":497,"o":"m 497 997 l 341 812 l 215 812 l 58 997 l 153 997 q 169 994 161 997 q 182 987 177 991 l 267 897 q 279 882 273 890 q 292 897 285 890 l 377 987 q 390 994 382 990 q 406 997 398 997 l 497 997 z "},"̕":{"ha":0,"x_min":206,"x_max":360,"o":"m 336 1026 q 356 1019 352 1026 q 360 1003 360 1011 q 358 985 360 997 q 349 953 356 974 q 331 901 342 933 q 301 822 319 869 q 283 801 294 806 q 253 796 272 796 l 206 796 l 246 1026 l 336 1026 z "},"˜":{"ha":556,"x_min":72,"x_max":487,"o":"m 354 926 q 391 940 378 926 q 404 985 403 954 l 487 985 q 477 922 487 950 q 451 873 468 893 q 411 841 435 852 q 359 830 388 830 q 314 840 335 830 q 274 861 292 849 q 238 883 255 873 q 206 892 221 892 q 170 878 183 892 q 156 833 157 863 l 72 833 q 82 896 72 867 q 108 945 91 925 q 149 977 126 965 q 201 988 172 988 q 247 978 226 988 q 287 957 268 969 q 322 936 306 946 q 354 926 339 926 z "},"¨":{"ha":556,"x_min":61,"x_max":494,"o":"m 226 896 q 219 864 226 879 q 201 838 213 849 q 174 821 190 827 q 142 815 159 815 q 111 821 126 815 q 85 838 97 827 q 68 864 74 849 q 61 896 61 879 q 68 928 61 913 q 85 955 74 944 q 111 973 97 967 q 142 980 126 980 q 174 973 159 980 q 201 955 190 967 q 219 928 213 944 q 226 896 226 913 m 494 896 q 488 864 494 879 q 470 838 481 849 q 444 821 459 827 q 412 815 428 815 q 380 821 395 815 q 353 838 365 827 q 336 864 342 849 q 329 896 329 879 q 336 928 329 913 q 353 955 342 944 q 380 973 365 967 q 412 980 395 980 q 444 973 428 980 q 470 955 459 967 q 488 928 481 944 q 494 896 494 913 z "},"¯":{"ha":556,"x_min":76,"x_max":479,"o":"m 76 940 l 479 940 l 479 852 l 76 852 l 76 940 z "},"˘":{"ha":556,"x_min":83,"x_max":473,"o":"m 278 808 q 186 823 223 808 q 126 864 149 838 q 93 924 103 890 q 83 997 83 958 l 178 997 q 183 956 178 975 q 199 924 188 938 q 230 903 210 910 q 278 896 249 896 q 326 903 307 896 q 357 924 345 910 q 373 956 368 938 q 377 997 377 975 l 473 997 q 463 924 473 958 q 430 864 453 890 q 370 823 407 838 q 278 808 333 808 z "},"˚":{"ha":556,"x_min":135,"x_max":422,"o":"m 135 915 q 146 969 135 945 q 177 1011 158 994 q 223 1039 197 1029 q 277 1049 249 1049 q 332 1039 306 1049 q 378 1011 358 1029 q 410 969 398 994 q 422 915 422 945 q 410 862 422 886 q 378 820 398 838 q 332 794 358 803 q 277 784 306 784 q 223 794 249 784 q 177 820 197 803 q 146 862 158 838 q 135 915 135 886 m 210 915 q 228 867 210 885 q 278 848 247 848 q 327 867 309 848 q 346 915 346 885 q 327 965 346 946 q 278 983 309 983 q 228 965 247 983 q 210 915 210 946 z "},"˝":{"ha":556,"x_min":124,"x_max":588,"o":"m 364 1008 l 226 829 q 206 813 217 817 q 180 808 196 808 l 124 808 l 217 976 q 239 1000 226 992 q 275 1008 251 1008 l 364 1008 m 588 1008 l 418 829 q 398 813 408 817 q 372 808 388 808 l 307 808 l 432 976 q 443 990 438 984 q 454 1000 448 996 q 469 1006 460 1004 q 489 1008 477 1008 l 588 1008 z "},"˙":{"ha":556,"x_min":185,"x_max":372,"o":"m 372 928 q 364 892 372 909 q 343 862 356 875 q 313 842 331 849 q 277 835 296 835 q 242 842 258 835 q 212 862 225 849 q 192 892 199 875 q 185 928 185 909 q 192 965 185 947 q 212 995 199 982 q 242 1015 225 1008 q 277 1022 258 1022 q 313 1015 296 1022 q 343 995 331 1008 q 364 965 356 982 q 372 928 372 947 z "},"¸":{"ha":556,"x_min":166,"x_max":423,"o":"m 302 -49 q 395 -88 367 -63 q 423 -150 423 -112 q 411 -191 423 -173 q 380 -222 400 -209 q 330 -241 359 -234 q 267 -248 301 -248 q 214 -243 239 -248 q 166 -228 188 -237 l 178 -185 q 196 -172 183 -172 q 206 -175 200 -172 q 218 -180 211 -177 q 236 -184 226 -182 q 260 -187 247 -187 q 302 -176 288 -187 q 316 -148 316 -165 q 288 -113 316 -123 q 206 -96 260 -103 l 244 19 l 322 19 l 302 -49 z "},"˛":{"ha":556,"x_min":156,"x_max":412,"o":"m 377 -142 q 391 -151 388 -142 l 412 -202 q 358 -228 390 -218 q 289 -237 325 -237 q 191 -210 226 -237 q 156 -137 156 -183 q 186 -57 156 -94 q 267 9 217 -19 l 337 0 q 309 -18 323 -8 q 283 -42 294 -28 q 264 -70 272 -55 q 257 -103 257 -86 q 273 -142 257 -128 q 317 -157 290 -157 q 342 -155 332 -157 q 359 -150 352 -152 q 369 -145 365 -147 q 377 -142 374 -142 z "},"Γ":{"ha":762,"x_min":123,"x_max":741,"o":"m 741 881 l 272 881 l 272 0 l 123 0 l 123 997 l 741 997 l 741 881 z "},"Δ":{"ha":949,"x_min":17,"x_max":931,"o":"m 170 119 l 764 119 l 503 758 q 487 807 496 779 q 470 867 478 835 q 453 807 463 834 q 435 757 444 779 l 170 119 m 913 132 q 931 44 931 88 l 931 0 l 17 0 l 17 42 q 22 85 17 63 q 35 130 26 107 l 401 997 l 551 997 l 913 132 z "},"Θ":{"ha":1115,"x_min":62,"x_max":1052,"o":"m 364 563 l 749 563 l 749 443 l 364 443 l 364 563 m 1052 499 q 1016 293 1052 387 q 915 132 981 200 q 759 27 850 65 q 557 -10 668 -10 q 355 27 447 -10 q 199 132 264 65 q 98 293 134 200 q 62 499 62 387 q 98 703 62 610 q 199 865 134 797 q 355 970 264 933 q 557 1008 447 1008 q 759 970 668 1008 q 915 865 850 933 q 1016 703 981 797 q 1052 499 1052 610 m 901 499 q 876 658 901 588 q 807 778 852 729 q 699 854 763 828 q 557 881 635 881 q 415 854 478 881 q 306 778 351 828 q 237 658 261 729 q 213 499 213 588 q 237 339 213 409 q 306 219 261 268 q 415 143 351 169 q 557 117 478 117 q 699 143 635 117 q 807 219 763 169 q 876 339 852 268 q 901 499 901 409 z "},"Λ":{"ha":944,"x_min":0,"x_max":944,"o":"m 944 0 l 817 0 q 786 10 798 0 q 767 35 774 19 l 498 713 q 479 767 488 738 q 462 830 469 797 q 447 767 455 797 q 428 713 438 738 l 160 35 q 142 11 155 22 q 110 0 129 0 l 0 0 l 406 997 l 538 997 l 944 0 z "},"Ξ":{"ha":861,"x_min":58,"x_max":807,"o":"m 807 997 l 807 873 l 58 873 l 58 997 l 807 997 m 807 124 l 807 0 l 58 0 l 58 124 l 807 124 m 230 567 l 633 567 l 633 439 l 230 439 l 230 567 z "},"Π":{"ha":1063,"x_min":123,"x_max":940,"o":"m 940 0 l 792 0 l 792 881 l 272 881 l 272 0 l 123 0 l 123 997 l 940 997 l 940 0 z "},"Σ":{"ha":847,"x_min":45,"x_max":794,"o":"m 317 881 q 256 884 283 881 q 201 892 228 886 q 255 858 231 876 q 299 816 278 840 l 487 582 q 506 558 499 568 q 517 540 513 548 q 523 524 522 531 q 524 511 524 517 q 518 478 525 495 q 486 433 510 460 l 271 170 q 235 132 250 146 q 206 109 221 118 q 256 114 233 113 q 299 116 279 116 l 794 116 l 794 0 l 45 0 l 45 56 q 53 89 45 72 q 72 117 60 105 l 394 497 l 63 891 q 50 910 55 899 q 45 933 45 922 l 45 997 l 794 997 l 794 881 l 317 881 z "},"Φ":{"ha":1163,"x_min":47,"x_max":1117,"o":"m 651 170 q 785 197 725 171 q 886 268 844 224 q 951 373 928 313 q 974 501 974 433 q 951 628 974 568 q 886 733 928 688 q 785 804 844 778 q 651 832 725 831 l 651 170 m 512 832 q 378 804 438 831 q 277 733 319 778 q 212 628 235 688 q 190 501 190 568 q 212 373 190 433 q 277 268 235 313 q 378 197 319 224 q 512 170 438 171 l 512 832 m 651 947 q 845 911 759 947 q 992 815 931 875 q 1084 673 1052 754 q 1117 501 1117 592 q 1084 328 1117 409 q 992 187 1052 248 q 845 91 931 126 q 651 55 759 56 l 651 -79 l 512 -79 l 512 55 q 318 91 404 56 q 172 187 232 126 q 79 328 111 248 q 47 501 47 409 q 79 673 47 592 q 172 815 112 754 q 319 911 233 875 q 512 947 405 947 l 512 1076 l 651 1076 l 651 947 z "},"Ψ":{"ha":1139,"x_min":67,"x_max":1072,"o":"m 1072 997 l 1072 641 q 1044 481 1072 552 q 963 357 1017 409 q 828 276 908 306 q 642 242 748 247 l 642 0 l 494 0 l 494 242 q 309 276 389 247 q 175 358 229 306 q 94 481 122 409 q 67 641 67 553 l 67 997 l 165 997 q 202 983 189 997 q 215 947 215 968 l 215 641 q 230 526 215 576 q 280 440 246 476 q 366 385 313 405 q 494 362 419 365 l 494 997 l 642 997 l 642 362 q 771 385 717 365 q 858 440 824 405 q 908 526 892 476 q 924 641 924 576 l 924 947 q 936 983 924 968 q 973 997 949 997 l 1072 997 z "},"Ω":{"ha":1125,"x_min":69,"x_max":1056,"o":"m 1056 124 l 1056 48 q 1042 14 1056 27 q 1006 0 1028 0 l 642 0 l 642 170 q 743 213 697 180 q 825 295 790 245 q 879 408 859 344 q 899 543 899 472 q 872 690 899 627 q 798 796 844 753 q 691 859 752 838 q 563 880 630 880 q 434 859 495 880 q 327 796 373 838 q 253 690 281 753 q 226 543 226 627 q 245 408 226 472 q 300 295 265 344 q 382 213 335 245 q 483 170 428 180 l 483 0 l 119 0 q 83 14 97 0 q 69 48 69 27 l 69 124 l 258 124 q 314 122 285 124 q 369 115 342 119 q 253 177 306 136 q 161 274 200 218 q 101 398 123 329 q 79 544 79 467 q 117 733 79 647 q 220 879 155 818 q 374 974 286 940 q 563 1008 462 1008 q 751 974 663 1008 q 905 879 839 940 q 1008 733 970 818 q 1046 544 1046 647 q 1024 398 1046 467 q 964 274 1002 329 q 872 177 925 218 q 756 115 819 136 q 811 122 783 119 q 867 124 840 124 l 1056 124 z "},"α":{"ha":826,"x_min":56,"x_max":818,"o":"m 565 496 q 539 540 555 519 q 501 577 523 561 q 452 603 479 594 q 392 613 425 613 q 317 597 353 613 q 254 548 281 581 q 211 465 227 515 q 195 344 195 414 q 209 233 195 279 q 247 157 223 186 q 301 113 270 127 q 367 99 333 99 q 432 112 401 99 q 486 152 462 125 q 526 220 510 178 q 547 319 542 262 l 565 496 m 818 96 l 818 41 q 795 8 818 23 q 728 -6 772 -6 q 676 1 701 -6 q 630 24 651 8 q 593 62 609 39 q 567 118 576 85 q 517 60 544 84 q 460 20 490 35 q 398 -2 430 5 q 335 -10 367 -10 q 225 14 276 -10 q 136 83 174 38 q 77 193 99 128 q 56 340 56 258 q 80 497 56 426 q 146 616 103 567 q 245 692 188 665 q 369 719 302 719 q 497 689 442 719 q 585 613 551 658 l 598 678 q 633 706 606 706 l 715 706 l 678 332 q 673 265 676 298 q 670 204 670 233 q 678 155 670 175 q 701 121 687 134 q 734 102 715 108 q 775 96 753 96 l 818 96 z "},"β":{"ha":778,"x_min":94,"x_max":726,"o":"m 230 178 q 295 116 259 136 q 385 96 331 96 q 474 112 435 96 q 538 157 512 128 q 576 223 563 185 q 589 305 589 261 q 572 394 589 358 q 526 452 555 430 q 459 483 497 474 q 377 493 420 493 l 334 493 l 334 601 l 361 601 q 432 609 400 601 q 487 635 464 617 q 522 681 510 653 q 535 751 535 710 q 496 868 535 829 q 388 908 457 908 q 317 893 347 908 q 268 844 288 878 q 239 759 249 811 q 230 631 230 706 l 230 178 m 94 635 q 113 793 94 724 q 167 910 131 863 q 259 983 203 958 q 390 1008 315 1008 q 513 987 461 1008 q 597 933 564 967 q 647 855 631 899 q 663 763 663 810 q 624 630 663 685 q 513 551 584 575 q 603 515 564 538 q 670 457 643 491 q 712 382 698 424 q 726 291 726 340 q 705 176 726 231 q 642 80 683 121 q 545 15 602 39 q 418 -10 488 -10 q 230 67 299 -10 l 230 -251 l 94 -251 l 94 635 z "},"γ":{"ha":760,"x_min":28,"x_max":742,"o":"m 742 706 q 693 535 723 620 q 626 367 663 449 q 544 208 588 285 q 453 60 500 130 l 453 -236 l 317 -236 l 317 63 q 285 206 302 136 q 250 336 269 275 q 209 447 231 397 q 164 533 188 497 q 113 589 140 569 q 55 609 85 609 l 28 609 l 28 660 q 31 680 28 670 q 42 696 34 689 q 63 707 49 703 q 98 711 76 711 q 213 675 163 711 q 300 570 263 639 q 364 403 338 502 q 410 176 391 303 q 469 288 442 229 q 518 409 496 347 q 557 535 540 472 q 586 660 574 599 q 602 696 590 687 q 628 706 614 706 l 742 706 z "},"δ":{"ha":768,"x_min":53,"x_max":715,"o":"m 385 95 q 464 110 428 95 q 526 153 500 125 q 566 222 551 181 q 580 313 580 262 q 564 409 580 367 q 522 484 548 451 q 461 543 495 517 q 389 592 426 569 q 315 555 350 577 q 252 501 279 533 q 209 425 225 469 q 192 324 192 381 q 204 236 192 278 q 240 163 216 194 q 300 114 264 132 q 385 95 336 95 m 623 894 q 612 870 621 876 q 586 865 603 865 q 554 870 576 865 q 503 881 532 875 q 442 892 474 887 q 382 897 410 897 q 299 880 324 897 q 275 837 275 862 q 294 793 275 813 q 344 752 313 772 q 415 710 375 732 q 495 662 454 688 q 576 604 536 636 q 647 530 615 572 q 697 436 678 488 q 715 317 715 383 q 692 185 715 244 q 626 82 669 125 q 522 15 583 39 q 385 -9 461 -9 q 244 16 306 -9 q 140 85 183 41 q 75 190 97 130 q 53 320 53 250 q 115 518 53 436 q 300 643 176 599 q 241 681 269 662 q 193 724 213 701 q 160 774 172 747 q 148 836 148 801 q 162 903 148 872 q 206 956 176 933 q 281 991 235 978 q 390 1004 326 1004 q 445 1002 415 1004 q 509 997 476 1001 q 574 989 542 994 q 633 978 606 984 l 623 894 z "},"ε":{"ha":631,"x_min":57,"x_max":597,"o":"m 597 101 q 542 50 573 71 q 478 16 512 29 q 409 -3 444 3 q 340 -9 374 -9 q 231 6 283 -9 q 141 48 180 20 q 80 114 102 75 q 57 203 57 153 q 92 306 57 263 q 187 370 128 348 q 134 400 156 383 q 99 439 113 418 q 78 482 85 460 q 72 526 72 505 q 90 598 72 564 q 141 659 107 633 q 227 701 176 685 q 348 717 279 717 q 484 693 427 717 q 581 632 541 669 l 550 580 q 536 564 542 568 q 519 560 529 560 q 497 568 510 560 q 465 586 484 576 q 418 604 446 596 q 350 612 390 612 q 286 604 313 612 q 240 583 258 597 q 213 552 222 570 q 203 515 203 535 q 245 442 203 470 q 363 414 287 414 l 476 414 l 476 324 l 363 324 q 236 294 277 324 q 194 215 194 264 q 205 167 194 189 q 235 129 215 145 q 283 104 255 113 q 348 95 312 95 q 422 106 392 95 q 472 129 452 117 q 506 152 492 142 q 533 163 519 163 q 558 151 549 163 l 597 101 z "},"ζ":{"ha":549,"x_min":53,"x_max":573,"o":"m 563 940 q 563 924 565 933 q 553 904 561 916 q 529 875 544 892 q 488 833 514 858 q 423 770 458 803 q 355 698 388 736 q 290 619 321 660 q 236 532 259 577 q 199 440 213 488 q 185 341 185 392 q 197 264 185 296 q 232 208 208 231 q 290 169 256 185 q 369 139 324 153 q 473 98 433 119 q 535 53 513 76 q 565 4 558 30 q 573 -49 573 -22 q 557 -140 573 -96 q 514 -228 542 -184 l 408 -187 q 434 -136 422 -165 q 447 -78 447 -107 q 442 -51 447 -65 q 422 -25 437 -38 q 378 1 406 -12 q 302 28 349 15 q 196 70 242 47 q 118 127 149 94 q 70 206 86 161 q 53 313 53 251 q 81 466 53 392 q 156 611 108 540 q 270 753 204 683 q 414 898 336 824 q 323 889 370 892 q 225 886 275 886 l 147 886 q 121 890 131 886 q 104 901 110 894 q 94 915 97 907 q 91 931 91 923 l 91 997 l 551 997 l 563 940 z "},"η":{"ha":814,"x_min":13,"x_max":726,"o":"m 13 666 q 16 683 13 675 q 29 698 20 692 q 51 709 38 705 q 84 713 65 713 q 183 686 141 713 q 244 603 226 660 q 353 685 292 654 q 490 717 414 717 q 592 697 548 717 q 666 643 636 678 q 711 558 696 608 q 726 449 726 509 l 726 -237 l 590 -237 l 590 449 q 556 567 590 525 q 449 609 521 609 q 352 584 397 609 q 267 517 307 560 l 267 0 l 132 0 l 132 510 q 110 586 132 562 q 43 611 88 611 l 13 611 l 13 666 z "},"θ":{"ha":831,"x_min":75,"x_max":756,"o":"m 208 460 q 266 185 213 272 q 417 97 319 97 q 566 185 513 97 q 624 460 619 272 l 208 460 m 623 555 q 563 818 616 734 q 417 903 510 903 q 269 818 322 903 q 209 555 216 734 l 623 555 m 417 1009 q 557 976 494 1009 q 664 879 620 943 q 732 719 708 815 q 756 500 756 624 q 732 280 756 375 q 664 120 708 184 q 557 23 620 56 q 417 -10 494 -10 q 275 23 338 -10 q 167 120 212 56 q 99 280 123 184 q 75 500 75 375 q 99 719 75 624 q 167 879 123 815 q 275 976 212 943 q 417 1009 338 1009 z "},"ι":{"ha":374,"x_min":90,"x_max":377,"o":"m 90 706 l 226 706 l 226 197 q 248 120 226 147 q 318 93 269 93 l 377 93 l 377 51 q 368 26 377 37 q 344 7 359 15 q 308 -5 328 -1 q 265 -8 288 -8 q 189 6 222 -8 q 134 47 156 21 q 101 109 112 73 q 90 190 90 146 l 90 706 z "},"λ":{"ha":752,"x_min":27,"x_max":754,"o":"m 754 94 l 754 40 q 737 2 754 11 q 687 -8 719 -8 q 631 -2 658 -8 q 579 19 603 3 q 533 60 554 34 q 498 128 513 87 l 380 433 q 371 463 374 449 q 366 490 367 476 q 358 463 363 476 q 348 435 353 449 l 184 27 q 169 8 179 17 q 142 0 160 0 l 27 0 l 301 643 l 233 832 q 216 867 225 853 q 195 890 208 881 q 166 901 183 898 q 124 905 149 905 l 74 905 l 74 956 q 77 975 74 966 q 91 992 81 985 q 116 1003 100 999 q 157 1007 132 1007 q 215 1001 187 1007 q 268 982 244 996 q 313 944 293 967 q 347 884 333 920 l 615 169 q 650 112 628 129 q 712 94 672 94 l 754 94 z "},"μ":{"ha":833,"x_min":94,"x_max":829,"o":"m 829 94 l 829 40 q 806 8 829 22 q 740 -7 783 -7 q 684 1 710 -7 q 635 27 657 10 q 597 72 613 45 q 573 135 581 99 q 480 40 532 74 q 363 6 428 6 q 214 64 266 6 q 220 5 219 35 q 222 -50 222 -25 l 222 -237 l 155 -237 q 110 -222 126 -237 q 94 -178 94 -207 l 94 706 l 231 706 l 231 281 q 266 162 231 206 q 372 117 301 117 q 478 151 433 117 q 553 244 524 185 l 553 706 l 690 706 l 690 196 q 716 119 690 144 q 786 94 742 94 l 829 94 z "},"ν":{"ha":717,"x_min":13,"x_max":697,"o":"m 697 706 q 644 515 676 610 q 573 331 613 421 q 485 158 533 242 q 383 0 437 74 l 299 0 l 13 706 l 124 706 q 151 698 140 706 q 165 678 162 690 l 333 245 q 349 194 342 219 q 360 144 355 169 q 424 261 396 198 q 473 392 451 324 q 512 528 495 459 q 542 665 528 598 q 558 697 546 688 q 583 706 569 706 l 697 706 z "},"ξ":{"ha":551,"x_min":54,"x_max":555,"o":"m 539 940 q 522 902 539 916 q 485 888 506 888 l 424 888 q 341 874 378 888 q 277 837 303 860 q 236 781 251 813 q 222 712 222 749 q 271 615 222 649 q 415 581 321 581 l 478 581 l 478 473 l 383 473 q 296 461 333 473 q 236 428 260 449 q 200 376 212 406 q 189 310 189 347 q 202 246 189 273 q 242 198 215 219 q 309 158 269 176 q 403 121 349 140 q 477 88 448 105 q 524 50 506 70 q 548 8 541 31 q 555 -42 555 -15 q 539 -139 555 -93 q 496 -228 524 -184 l 390 -187 q 416 -136 403 -165 q 429 -78 429 -107 q 425 -51 429 -64 q 410 -27 421 -38 q 380 -5 399 -15 q 329 14 360 5 q 225 51 275 29 q 138 106 176 73 q 77 186 100 140 q 54 297 54 233 q 63 364 54 330 q 90 430 71 398 q 139 489 108 462 q 213 533 169 515 q 126 601 156 558 q 96 702 96 643 q 107 763 96 735 q 136 816 117 792 q 181 859 156 840 q 237 894 207 879 l 117 894 q 74 908 87 894 q 62 947 62 922 l 62 997 l 539 997 l 539 940 z "},"π":{"ha":860,"x_min":51,"x_max":817,"o":"m 817 635 q 806 605 817 617 q 774 592 795 592 l 675 592 q 674 533 674 561 q 674 477 674 505 q 676 330 674 391 q 684 226 678 268 q 697 158 690 183 q 716 118 705 132 q 741 100 727 105 q 771 96 754 96 l 799 96 l 799 42 q 774 7 799 19 q 711 -5 749 -5 q 585 53 626 -5 q 544 239 544 112 q 547 306 544 270 q 553 384 549 342 q 560 478 556 427 q 566 592 564 530 l 319 592 q 308 382 316 473 q 287 225 300 291 q 256 114 274 158 q 216 43 238 69 q 169 6 194 17 q 115 -6 144 -6 q 96 -4 106 -6 q 78 0 86 -3 q 64 9 69 3 q 59 21 59 14 l 59 114 l 73 114 q 115 140 94 114 q 154 222 136 165 q 184 370 172 278 q 201 592 197 461 l 51 592 l 51 650 q 54 667 51 658 q 64 683 58 676 q 81 695 71 690 q 103 700 90 700 l 817 700 l 817 635 z "},"ρ":{"ha":783,"x_min":85,"x_max":728,"o":"m 222 186 q 301 117 256 138 q 393 95 346 95 q 537 162 486 95 q 588 358 588 229 q 575 473 588 425 q 536 550 561 520 q 478 595 512 581 q 403 609 444 609 q 332 595 365 609 q 274 556 299 582 q 236 491 250 529 q 222 403 222 452 l 222 186 m 85 403 q 107 533 85 474 q 169 632 128 591 q 269 695 210 673 q 403 717 328 717 q 529 693 470 717 q 633 624 588 669 q 703 511 677 578 q 728 358 728 444 q 708 212 728 279 q 647 96 687 145 q 551 18 608 47 q 424 -10 495 -10 q 312 12 363 -10 q 222 73 261 33 l 222 -237 l 85 -237 l 85 403 z "},"σ":{"ha":836,"x_min":55,"x_max":833,"o":"m 445 598 q 331 581 378 598 q 253 532 283 565 q 209 452 223 500 q 195 342 195 405 q 246 158 195 221 q 396 96 297 96 q 545 161 497 96 q 594 351 594 226 q 588 435 594 394 q 567 508 581 475 q 531 564 553 541 q 480 598 509 588 l 445 598 m 833 703 l 833 638 q 822 612 833 626 q 789 598 810 598 l 626 598 q 705 496 677 559 q 733 345 733 433 q 710 202 733 267 q 643 90 687 137 q 537 17 599 43 q 397 -10 474 -10 q 257 15 320 -10 q 149 84 194 39 q 80 196 104 130 q 55 345 55 262 q 81 495 55 428 q 157 607 107 561 q 279 678 206 653 q 446 703 352 703 l 833 703 z "},"ς":{"ha":647,"x_min":54,"x_max":624,"o":"m 589 574 q 577 561 583 566 q 560 557 571 557 q 536 566 549 557 q 506 584 524 574 q 461 603 488 594 q 397 612 435 612 q 309 594 347 612 q 245 547 271 577 q 206 475 219 516 q 193 387 193 434 q 210 278 193 321 q 260 208 227 236 q 340 160 292 180 q 449 121 388 141 q 523 88 494 105 q 569 50 551 70 q 593 8 586 31 q 600 -42 600 -15 q 584 -139 600 -93 q 541 -228 569 -184 l 435 -187 q 461 -136 449 -165 q 474 -78 474 -107 q 470 -51 474 -64 q 455 -27 466 -38 q 425 -5 444 -15 q 374 14 406 5 q 250 58 308 33 q 148 123 192 83 q 80 225 105 164 q 54 378 54 286 q 76 509 54 448 q 141 617 98 571 q 245 690 183 663 q 389 717 308 717 q 522 692 465 717 q 624 624 580 668 l 589 574 z "},"τ":{"ha":652,"x_min":17,"x_max":631,"o":"m 631 646 q 618 609 631 622 q 583 597 606 597 l 367 597 l 367 200 q 389 122 367 149 q 460 96 411 96 l 519 96 l 519 54 q 510 28 519 40 q 485 10 501 17 q 450 -2 470 2 q 407 -6 429 -6 q 331 9 364 -6 q 276 50 298 24 q 242 112 253 76 q 231 192 231 149 l 231 597 l 17 597 l 17 656 q 28 687 17 674 q 63 700 40 700 l 631 700 l 631 646 z "},"υ":{"ha":770,"x_min":88,"x_max":696,"o":"m 658 706 q 672 622 665 662 q 684 542 679 581 q 693 462 690 502 q 696 377 696 422 q 669 202 696 276 q 597 81 642 128 q 494 11 552 34 q 372 -11 435 -11 q 252 7 305 -11 q 162 60 199 26 q 107 145 126 95 q 88 256 88 194 l 88 706 l 223 706 l 223 256 q 234 189 223 219 q 267 139 246 160 q 316 107 288 118 q 381 97 345 97 q 447 110 414 97 q 505 157 479 124 q 548 243 531 189 q 564 377 564 297 q 560 448 564 413 q 551 519 556 483 q 539 589 545 554 q 527 660 533 624 q 529 681 526 672 q 538 695 533 690 q 551 703 544 701 q 565 706 558 706 l 658 706 z "},"φ":{"ha":1036,"x_min":53,"x_max":982,"o":"m 578 92 q 694 113 644 92 q 778 169 744 133 q 829 257 812 206 q 847 374 847 309 q 832 472 847 428 q 792 548 817 516 q 737 597 768 580 q 672 615 706 615 q 603 587 628 615 q 578 494 578 559 l 578 92 m 451 494 q 466 594 451 552 q 510 664 481 636 q 579 704 538 691 q 672 717 620 717 q 798 690 741 717 q 896 618 856 664 q 959 509 937 572 q 982 374 982 446 q 953 217 982 287 q 872 97 924 147 q 745 19 819 47 q 578 -10 670 -9 l 578 -236 l 451 -236 l 451 -10 q 287 18 360 -9 q 161 94 213 46 q 82 209 110 142 q 53 353 53 275 q 71 472 53 417 q 122 573 89 527 q 201 654 155 619 q 303 713 247 690 l 338 658 q 344 640 343 649 q 342 623 344 631 q 335 609 340 615 q 324 601 330 603 q 224 501 259 566 q 190 353 190 437 q 207 249 190 297 q 257 167 224 201 q 339 113 290 133 q 451 92 388 92 l 451 494 z "},"χ":{"ha":670,"x_min":-1,"x_max":683,"o":"m 683 -146 l 683 -201 q 672 -238 683 -229 q 628 -247 660 -247 q 572 -242 599 -247 q 521 -222 545 -237 q 476 -180 497 -207 q 438 -111 456 -153 l 320 156 q 311 114 317 134 q 301 78 306 94 l 160 -208 q 147 -227 156 -219 q 119 -235 137 -235 l 23 -235 l 260 260 l 136 539 q 117 574 126 560 q 94 596 107 588 q 64 609 81 605 q 24 613 47 613 l -1 613 l -1 663 q -1 682 -1 673 q 5 699 0 692 q 21 710 10 706 q 55 714 33 714 q 174 686 127 714 q 251 591 222 658 l 365 333 q 372 374 367 354 q 383 409 377 394 l 513 678 q 526 698 517 690 q 553 706 535 706 l 649 706 l 424 231 l 558 -72 q 575 -105 566 -90 q 596 -128 585 -119 q 623 -141 608 -137 q 658 -146 638 -146 l 683 -146 z "},"ψ":{"ha":1070,"x_min":84,"x_max":996,"o":"m 958 706 q 973 622 966 662 q 985 542 981 581 q 993 462 990 502 q 996 377 996 422 q 964 203 996 274 q 879 87 933 132 q 754 20 825 42 q 603 -8 683 -2 l 603 -236 l 468 -236 l 468 -9 q 180 93 276 3 q 84 335 84 183 l 84 706 l 178 706 q 194 700 186 706 q 208 688 202 695 q 217 670 213 680 q 220 653 220 661 l 220 335 q 237 242 220 283 q 286 172 254 201 q 364 125 318 143 q 468 100 410 107 l 468 997 l 603 997 l 603 99 q 705 121 658 104 q 786 170 752 138 q 840 253 821 202 q 860 377 860 303 q 855 466 860 428 q 844 537 851 505 q 832 599 838 569 q 822 660 826 628 q 834 695 822 685 q 860 706 847 706 l 958 706 z "},"ω":{"ha":1071,"x_min":58,"x_max":1013,"o":"m 918 706 q 986 536 960 625 q 1013 353 1013 447 q 992 203 1013 270 q 936 88 972 135 q 850 15 900 40 q 740 -11 800 -11 q 671 -2 702 -11 q 614 23 640 7 q 569 62 588 40 q 535 112 549 85 q 500 62 520 85 q 455 23 481 40 q 399 -2 430 7 q 331 -11 367 -11 q 221 15 271 -11 q 135 88 171 40 q 78 203 99 135 q 58 353 58 270 q 85 536 58 447 q 153 706 111 625 l 249 706 q 265 702 256 706 q 280 692 274 699 q 287 673 285 685 q 281 645 288 662 q 255 594 270 626 q 227 521 240 561 q 203 438 213 481 q 194 353 194 394 q 209 226 194 276 q 246 148 224 176 q 296 108 269 119 q 347 97 323 97 q 400 111 378 97 q 438 151 423 125 q 460 212 453 176 q 467 291 467 248 l 467 473 l 603 473 l 603 291 q 611 212 603 248 q 633 151 618 176 q 670 111 648 125 q 724 97 693 97 q 775 108 749 97 q 825 148 802 119 q 862 226 847 176 q 877 353 877 276 q 867 438 877 394 q 844 521 858 481 q 816 594 831 561 q 790 645 801 626 q 784 673 783 662 q 792 692 786 685 q 806 702 798 699 q 822 706 815 706 l 918 706 z "},"΄":{"ha":556,"x_min":236,"x_max":401,"o":"m 236 797 l 282 1040 l 366 1040 q 393 1027 386 1040 q 393 993 401 1015 l 317 797 l 236 797 z "},"΅":{"ha":556,"x_min":60,"x_max":554,"o":"m 235 801 l 280 1044 l 364 1044 q 391 1032 384 1044 q 392 997 399 1019 l 315 801 l 235 801 m 554 893 q 549 867 554 879 q 534 845 543 854 q 511 830 524 835 q 485 825 499 825 q 436 845 456 825 q 416 893 416 865 q 421 920 416 908 q 436 942 426 933 q 458 958 445 952 q 485 963 470 963 q 511 958 499 963 q 534 942 524 952 q 549 920 543 933 q 554 893 554 908 m 198 893 q 192 867 198 879 q 177 845 187 854 q 155 830 167 835 q 128 825 142 825 q 102 830 114 825 q 80 845 90 835 q 65 867 71 854 q 60 893 60 879 q 65 920 60 908 q 80 942 71 933 q 102 958 90 952 q 128 963 114 963 q 155 958 142 963 q 177 942 167 952 q 192 920 187 933 q 198 893 198 908 z "},"ʹ":{"ha":299,"x_min":57,"x_max":242,"o":"m 222 1051 q 217 848 242 947 q 113 665 191 749 l 71 692 q 58 711 59 700 q 63 731 57 722 q 95 781 81 756 q 116 831 110 806 q 120 883 123 856 q 100 940 117 910 l 100 1015 q 109 1041 100 1031 q 137 1051 117 1051 l 222 1051 z "},"͵":{"ha":299,"x_min":57,"x_max":242,"o":"m 222 237 q 217 33 242 132 q 113 -149 191 -65 l 71 -122 q 58 -103 59 -115 q 63 -84 57 -92 q 95 -34 81 -58 q 116 16 110 -9 q 120 68 123 42 q 100 125 117 95 l 100 200 q 109 226 100 216 q 137 237 117 237 l 222 237 z "},"Б":{"ha":865,"x_min":123,"x_max":810,"o":"m 456 117 q 552 130 513 117 q 617 165 592 142 q 653 219 642 188 q 665 288 665 250 q 653 358 665 327 q 617 411 642 390 q 553 444 592 433 q 457 456 513 456 l 271 456 l 271 117 l 456 117 m 457 573 q 616 552 549 573 q 726 496 683 532 q 790 410 769 460 q 810 302 810 360 q 787 177 810 233 q 718 82 763 122 q 606 21 672 42 q 456 0 540 0 l 123 0 l 123 997 l 776 997 l 776 881 l 271 881 l 271 573 l 457 573 z "},"Г":{"ha":748,"x_min":123,"x_max":727,"o":"m 727 881 l 272 881 l 272 0 l 123 0 l 123 997 l 727 997 l 727 881 z "},"Ґ":{"ha":748,"x_min":123,"x_max":727,"o":"m 727 881 l 272 881 l 272 0 l 123 0 l 123 997 l 613 997 l 613 1222 l 727 1222 l 727 881 z "},"Д":{"ha":1099,"x_min":10,"x_max":1067,"o":"m 757 116 l 757 881 l 442 881 q 418 593 433 717 q 383 376 403 468 q 338 220 363 283 q 284 116 313 157 l 757 116 m 1067 116 l 1067 -198 q 1053 -229 1067 -217 q 1019 -241 1040 -241 l 931 -241 l 931 0 l 145 0 l 145 -198 q 132 -229 145 -217 q 98 -241 119 -241 l 10 -241 l 10 116 l 114 116 q 156 150 135 126 q 196 216 176 173 q 232 324 215 258 q 263 484 249 389 q 287 705 277 578 q 303 997 297 832 l 906 997 l 906 116 l 1067 116 z "},"Ж":{"ha":1453,"x_min":10,"x_max":1443,"o":"m 1443 0 l 1345 0 q 1289 14 1313 0 q 1252 53 1266 28 l 1012 397 q 969 439 992 426 q 909 452 945 452 l 796 452 l 796 0 l 656 0 l 656 452 l 544 452 q 484 439 508 452 q 441 397 460 426 l 201 53 q 164 14 187 28 q 108 0 140 0 l 10 0 l 297 429 q 345 490 319 467 q 408 524 372 513 q 357 553 378 534 q 316 602 336 573 l 34 997 l 149 997 q 192 986 172 997 q 224 954 212 974 l 462 616 q 507 576 483 585 q 560 566 530 566 l 656 566 l 656 997 l 796 997 l 796 566 l 892 566 q 946 576 923 566 q 991 616 969 585 l 1229 954 q 1261 986 1241 974 q 1303 997 1281 997 l 1419 997 l 1137 602 q 1096 553 1117 573 q 1045 524 1075 534 q 1107 490 1080 512 q 1156 429 1134 467 l 1443 0 z "},"З":{"ha":801,"x_min":26,"x_max":735,"o":"m 65 904 q 198 981 122 954 q 369 1008 274 1008 q 510 989 447 1008 q 616 935 572 969 q 683 854 660 901 q 707 751 707 807 q 671 620 707 677 q 569 531 635 564 q 637 491 606 514 q 689 439 667 468 q 723 377 711 410 q 735 306 735 343 q 711 182 735 240 q 640 82 687 125 q 525 15 593 40 q 369 -10 457 -10 q 175 26 263 -10 q 26 121 88 61 l 69 192 q 83 206 74 200 q 103 211 92 211 q 139 196 118 211 q 191 162 160 181 q 266 128 222 144 q 374 113 310 113 q 538 161 480 113 q 597 299 597 210 q 582 367 597 336 q 539 421 567 399 q 472 455 511 443 q 382 467 432 467 l 244 467 l 244 588 l 374 588 q 453 598 417 588 q 515 627 489 608 q 555 675 540 647 q 569 739 569 703 q 555 799 569 772 q 516 845 542 826 q 454 875 491 864 q 369 885 417 885 q 276 874 315 885 q 210 848 238 863 q 166 823 183 834 q 135 811 148 811 q 116 817 124 811 q 101 834 108 822 l 65 904 z "},"И":{"ha":1063,"x_min":123,"x_max":940,"o":"m 940 997 l 940 0 l 792 0 l 792 686 q 793 752 792 717 q 800 824 794 786 q 773 762 787 790 q 745 711 759 733 l 299 47 q 272 15 289 29 q 233 0 255 0 l 123 0 l 123 997 l 272 997 l 272 311 q 270 245 272 280 q 263 173 268 211 q 290 235 276 206 q 317 286 303 264 l 764 951 q 791 983 774 968 q 829 997 808 997 l 940 997 z "},"К":{"ha":940,"x_min":123,"x_max":932,"o":"m 932 0 l 799 0 q 762 12 777 0 q 734 46 747 24 l 483 403 q 465 426 474 417 q 444 441 456 435 q 420 450 433 447 q 388 452 406 452 l 271 452 l 271 0 l 123 0 l 123 997 l 271 997 l 271 566 l 372 566 q 424 575 402 566 q 466 613 446 585 l 717 956 q 743 986 728 974 q 781 997 759 997 l 906 997 l 613 590 q 573 549 595 565 q 524 523 551 533 q 588 491 562 513 q 638 428 614 468 l 932 0 z "},"Л":{"ha":1014,"x_min":-4,"x_max":891,"o":"m 891 0 l 742 0 l 742 881 l 428 881 q 401 550 418 690 q 360 311 384 410 q 307 149 337 212 q 241 51 277 87 q 165 3 206 16 q 78 -10 124 -10 q -4 19 -4 -10 l -4 113 l 45 113 q 98 123 72 113 q 150 165 125 133 q 197 256 174 197 q 238 414 219 315 q 268 655 256 512 q 288 997 281 798 l 891 997 l 891 0 z "},"Љ":{"ha":1468,"x_min":-4,"x_max":1431,"o":"m 1076 117 q 1172 130 1133 117 q 1237 165 1212 142 q 1273 219 1262 188 q 1285 288 1285 250 q 1273 358 1285 327 q 1237 411 1262 390 q 1173 444 1213 433 q 1077 456 1133 456 l 891 456 l 891 117 l 1076 117 m 1077 573 q 1236 552 1169 573 q 1346 496 1303 532 q 1410 410 1390 460 q 1431 302 1431 360 q 1407 177 1431 233 q 1338 82 1383 122 q 1226 21 1292 42 q 1076 0 1160 0 l 742 0 l 742 881 l 428 881 q 401 550 418 690 q 360 311 384 410 q 307 149 337 212 q 241 51 277 87 q 165 3 206 16 q 78 -10 124 -10 q -4 19 -4 -10 l -4 113 l 45 113 q 98 123 72 113 q 150 165 125 133 q 197 256 174 197 q 238 414 219 315 q 268 655 256 512 q 288 997 281 798 l 891 997 l 891 573 l 1077 573 z "},"Њ":{"ha":1517,"x_min":123,"x_max":1480,"o":"m 1126 117 q 1222 130 1182 117 q 1286 165 1261 142 q 1323 219 1311 188 q 1334 288 1334 250 q 1323 358 1334 327 q 1286 411 1311 390 q 1222 444 1261 433 q 1126 456 1182 456 l 940 456 l 940 117 l 1126 117 m 1126 573 q 1285 552 1218 573 q 1395 496 1352 532 q 1459 410 1439 460 q 1480 302 1480 360 q 1456 177 1480 233 q 1387 82 1433 122 q 1276 21 1342 42 q 1126 0 1210 0 l 792 0 l 792 449 l 272 449 l 272 0 l 123 0 l 123 997 l 272 997 l 272 557 l 792 557 l 792 997 l 940 997 l 940 573 l 1126 573 z "},"Ѳ":{"ha":1115,"x_min":62,"x_max":1052,"o":"m 215 451 q 248 311 221 373 q 319 206 274 249 q 424 140 363 163 q 557 117 484 117 q 690 140 630 117 q 795 206 751 163 q 866 311 839 249 q 899 451 892 373 l 215 451 m 897 563 q 861 697 889 638 q 790 797 834 756 q 688 859 747 838 q 557 881 628 881 q 427 859 486 881 q 324 797 368 838 q 252 697 280 756 q 216 563 224 638 l 897 563 m 557 1008 q 759 970 668 1008 q 915 865 850 933 q 1016 703 981 797 q 1052 499 1052 610 q 1016 293 1052 387 q 915 132 981 200 q 759 27 850 65 q 557 -10 668 -10 q 355 27 447 -10 q 199 132 264 65 q 98 293 134 200 q 62 499 62 387 q 98 703 62 610 q 199 865 134 797 q 355 970 264 933 q 557 1008 447 1008 z "},"П":{"ha":1025,"x_min":123,"x_max":901,"o":"m 901 0 l 753 0 l 753 881 l 272 881 l 272 0 l 123 0 l 123 997 l 901 997 l 901 0 z "},"У":{"ha":875,"x_min":1,"x_max":879,"o":"m 879 997 l 474 132 q 432 63 455 90 q 384 19 410 35 q 328 -3 358 3 q 264 -10 298 -10 q 182 19 182 -10 l 182 113 l 232 113 q 266 117 249 113 q 299 130 283 120 q 329 155 315 139 q 356 196 343 171 l 402 292 l 1 997 l 140 997 q 170 988 159 997 q 190 963 182 978 l 423 534 q 467 428 451 482 q 485 482 474 455 q 508 535 495 508 l 707 963 q 725 986 713 976 q 757 997 738 997 l 879 997 z "},"Ѵ":{"ha":974,"x_min":-1,"x_max":960,"o":"m 703 864 q 772 968 725 935 q 891 1002 819 1002 q 945 995 931 1002 q 960 974 960 989 l 960 881 l 923 881 q 869 863 892 881 q 833 808 846 845 l 538 0 l 405 0 l -1 997 l 117 997 q 149 988 137 997 q 167 963 161 978 l 437 285 q 456 230 447 260 q 473 167 465 200 q 488 230 480 200 q 506 285 497 260 l 703 864 z "},"Ф":{"ha":1094,"x_min":51,"x_max":1044,"o":"m 617 236 q 732 260 681 237 q 820 322 783 283 q 876 412 856 360 q 897 523 897 464 q 876 633 897 581 q 820 724 856 685 q 732 785 783 763 q 617 810 681 808 l 617 236 m 477 810 q 363 785 414 808 q 275 724 311 763 q 218 633 238 685 q 199 523 199 581 q 218 412 199 464 q 275 322 238 360 q 363 260 311 283 q 477 236 414 237 l 477 810 m 617 925 q 791 890 713 923 q 926 803 869 858 q 1013 677 982 749 q 1044 523 1044 605 q 1013 369 1044 441 q 926 242 982 297 q 791 155 869 188 q 617 120 713 122 l 617 0 l 477 0 l 477 120 q 303 155 382 122 q 169 242 225 188 q 82 369 113 297 q 51 523 51 441 q 82 676 51 604 q 170 803 113 749 q 305 890 226 858 q 477 925 383 923 l 477 1042 l 617 1042 l 617 925 z "},"Ц":{"ha":1088,"x_min":123,"x_max":1051,"o":"m 1051 116 l 1051 -198 q 1038 -229 1051 -217 q 1004 -241 1025 -241 l 917 -241 l 917 0 l 123 0 l 123 997 l 272 997 l 272 116 l 753 116 l 753 997 l 901 997 l 901 116 l 1051 116 z "},"Џ":{"ha":1025,"x_min":123,"x_max":901,"o":"m 901 997 l 901 0 l 580 0 l 580 -198 q 567 -229 580 -217 q 533 -241 553 -241 l 444 -241 l 444 0 l 123 0 l 123 997 l 272 997 l 272 116 l 753 116 l 753 997 l 901 997 z "},"Ч":{"ha":924,"x_min":61,"x_max":800,"o":"m 800 997 l 800 0 l 652 0 l 652 424 q 497 391 572 403 q 357 381 422 379 q 236 398 291 382 q 143 449 182 415 q 83 538 104 483 q 61 671 61 592 l 61 997 l 210 997 l 210 670 q 235 563 210 604 q 315 505 261 522 q 453 495 369 488 q 652 531 537 501 l 652 997 l 800 997 z "},"Ш":{"ha":1498,"x_min":123,"x_max":1375,"o":"m 1375 997 l 1375 0 l 123 0 l 123 997 l 272 997 l 272 116 l 674 116 l 674 997 l 822 997 l 822 116 l 1226 116 l 1226 997 l 1375 997 z "},"Щ":{"ha":1561,"x_min":123,"x_max":1525,"o":"m 1525 116 l 1525 -198 q 1512 -229 1525 -217 q 1478 -241 1499 -241 l 1390 -241 l 1390 0 l 123 0 l 123 997 l 272 997 l 272 116 l 674 116 l 674 997 l 822 997 l 822 116 l 1226 116 l 1226 997 l 1375 997 l 1375 116 l 1525 116 z "},"Ъ":{"ha":1031,"x_min":20,"x_max":993,"o":"m 639 117 q 735 130 695 117 q 799 165 774 142 q 836 219 824 188 q 847 288 847 250 q 836 358 847 327 q 800 411 824 390 q 735 444 775 433 q 640 456 696 456 l 453 456 l 453 117 l 639 117 m 640 573 q 799 552 732 573 q 909 496 865 532 q 973 410 952 460 q 993 302 993 360 q 969 177 993 233 q 900 82 946 122 q 789 21 855 42 q 639 0 723 0 l 306 0 l 306 877 l 20 877 l 20 997 l 453 997 l 453 573 l 640 573 z "},"Ы":{"ha":1256,"x_min":123,"x_max":1133,"o":"m 456 117 q 552 130 513 117 q 617 165 592 142 q 653 219 642 188 q 665 288 665 250 q 653 358 665 327 q 617 411 642 390 q 553 444 592 433 q 457 456 513 456 l 271 456 l 271 117 l 456 117 m 457 573 q 616 552 549 573 q 726 496 683 532 q 790 410 769 460 q 810 302 810 360 q 787 177 810 233 q 718 82 763 122 q 606 21 672 42 q 456 0 540 0 l 123 0 l 123 997 l 271 997 l 271 573 l 457 573 m 1133 0 l 984 0 l 984 997 l 1133 997 l 1133 0 z "},"Ь":{"ha":848,"x_min":123,"x_max":810,"o":"m 456 117 q 552 130 513 117 q 617 165 592 142 q 653 219 642 188 q 665 288 665 250 q 653 358 665 327 q 617 411 642 390 q 553 444 592 433 q 457 456 513 456 l 271 456 l 271 117 l 456 117 m 457 573 q 616 552 549 573 q 726 496 683 532 q 790 410 769 460 q 810 302 810 360 q 787 177 810 233 q 718 82 763 122 q 606 21 672 42 q 456 0 540 0 l 123 0 l 123 997 l 271 997 l 271 573 l 457 573 z "},"Э":{"ha":935,"x_min":36,"x_max":873,"o":"m 51 881 q 194 974 112 939 q 384 1008 277 1008 q 582 971 492 1008 q 737 866 672 933 q 837 705 801 799 q 873 499 873 611 q 839 292 873 386 q 743 131 806 199 q 593 26 681 64 q 397 -11 505 -11 q 185 28 273 -11 q 36 140 97 68 l 94 204 q 116 214 103 214 q 129 211 123 214 q 141 203 135 208 q 192 164 166 180 q 247 137 217 147 q 310 121 276 126 q 388 116 344 116 q 510 139 453 116 q 613 204 568 161 q 685 309 657 247 q 720 451 713 372 l 227 451 l 227 563 l 719 563 q 682 697 710 638 q 610 797 654 756 q 509 859 567 838 q 385 881 452 881 q 279 867 322 881 q 208 838 237 854 q 161 808 179 822 q 131 795 144 795 q 112 800 119 795 q 100 813 105 805 l 51 881 z "},"Є":{"ha":936,"x_min":63,"x_max":899,"o":"m 819 214 q 841 204 832 214 l 899 140 q 750 28 838 68 q 539 -11 663 -11 q 343 26 431 -11 q 193 131 255 64 q 97 292 131 199 q 63 499 63 386 q 98 705 63 611 q 199 866 134 799 q 353 971 263 933 q 552 1008 443 1008 q 741 974 658 1008 q 885 881 824 939 l 836 813 q 824 800 831 805 q 805 795 817 795 q 774 808 792 795 q 727 838 756 822 q 656 867 699 854 q 551 881 614 881 q 426 859 483 881 q 325 797 369 838 q 254 697 282 756 q 217 563 226 638 l 708 563 l 708 451 l 216 451 q 251 309 223 372 q 323 204 279 247 q 425 139 367 161 q 549 116 483 116 q 626 121 592 116 q 689 137 660 126 q 744 164 718 147 q 794 203 769 180 q 806 211 800 208 q 819 214 813 214 z "},"Ю":{"ha":1458,"x_min":123,"x_max":1394,"o":"m 935 114 q 1063 141 1006 114 q 1160 217 1120 167 q 1222 338 1200 267 q 1243 499 1243 409 q 1222 659 1243 588 q 1160 781 1200 731 q 1063 858 1120 831 q 935 885 1006 885 q 807 858 864 885 q 709 781 749 831 q 648 659 669 731 q 626 499 626 588 q 648 338 626 409 q 709 217 669 267 q 807 141 749 167 q 935 114 864 114 m 478 556 q 522 739 486 656 q 617 882 558 822 q 757 975 676 942 q 935 1008 837 1008 q 1124 970 1039 1008 q 1269 865 1209 933 q 1361 703 1328 797 q 1394 499 1394 610 q 1361 293 1394 387 q 1269 133 1328 200 q 1124 28 1209 65 q 935 -10 1039 -10 q 757 23 838 -10 q 617 115 676 56 q 522 257 558 174 q 478 440 486 340 l 272 440 l 272 0 l 123 0 l 123 997 l 272 997 l 272 556 l 478 556 z "},"Я":{"ha":928,"x_min":-4,"x_max":806,"o":"m 658 542 l 658 881 l 468 881 q 372 868 412 881 q 308 834 333 856 q 271 781 283 812 q 260 713 260 750 q 271 641 260 673 q 307 587 283 609 q 372 553 332 565 q 467 542 411 542 l 658 542 m 806 0 l 658 0 l 658 425 l 531 425 q 497 422 513 425 q 465 411 481 419 q 435 389 450 403 q 406 352 421 374 l 199 53 q 162 14 185 28 q 107 0 139 0 l -4 0 l 247 360 q 346 449 288 423 q 244 486 288 462 q 171 543 200 510 q 128 619 142 577 q 114 711 114 662 q 138 828 114 775 q 207 918 161 881 q 318 976 252 956 q 468 997 383 997 l 806 997 l 806 0 z "},"Ђ":{"ha":1031,"x_min":19,"x_max":1003,"o":"m 649 573 q 808 552 742 573 q 918 496 875 532 q 982 410 962 460 q 1003 302 1003 360 q 979 177 1003 233 q 910 82 956 122 q 799 21 865 42 q 649 0 733 0 l 583 0 l 583 117 l 649 117 q 744 130 705 117 q 809 165 784 142 q 845 219 834 188 q 857 288 857 250 q 845 358 857 327 q 809 411 834 390 q 745 444 785 433 q 649 456 706 456 l 441 456 l 441 0 l 293 0 l 293 878 l 19 878 l 19 997 l 750 997 l 750 878 l 441 878 l 441 573 l 649 573 z "},"Ћ":{"ha":1041,"x_min":19,"x_max":984,"o":"m 441 568 q 591 600 519 588 q 722 609 662 611 q 831 591 782 608 q 913 540 879 575 q 966 451 947 506 q 984 319 984 397 l 984 -1 l 836 -1 l 836 319 q 816 426 836 385 q 749 484 796 467 q 627 495 703 501 q 441 460 551 490 l 441 0 l 293 0 l 293 878 l 19 878 l 19 997 l 750 997 l 750 878 l 441 878 l 441 568 z "},"Ѣ":{"ha":1010,"x_min":36,"x_max":972,"o":"m 618 117 q 714 130 674 117 q 778 165 753 142 q 815 219 803 188 q 826 288 826 250 q 815 358 826 327 q 779 411 803 390 q 715 444 754 433 q 619 456 675 456 l 433 456 l 433 117 l 618 117 m 619 573 q 778 552 711 573 q 888 496 844 532 q 952 410 931 460 q 972 302 972 360 q 949 177 972 233 q 880 82 925 122 q 768 21 834 42 q 618 0 702 0 l 285 0 l 285 737 l 36 737 l 36 848 l 285 848 l 285 997 l 433 997 l 433 848 l 738 848 l 738 737 l 433 737 l 433 573 l 619 573 z "},"б":{"ha":815,"x_min":76,"x_max":758,"o":"m 417 91 q 568 155 517 91 q 618 335 618 218 q 569 515 618 451 q 422 579 520 579 q 336 564 374 579 q 272 520 299 549 q 231 448 245 491 q 217 350 217 406 q 267 159 217 227 q 417 91 317 91 m 465 861 q 346 832 396 856 q 264 767 297 808 q 215 669 232 726 q 196 542 199 613 q 239 599 213 573 q 299 643 265 624 q 372 671 332 661 q 455 681 411 681 q 582 656 526 681 q 677 585 638 631 q 738 477 717 540 q 758 335 758 413 q 734 193 758 256 q 665 84 710 129 q 557 15 620 39 q 417 -10 494 -10 q 282 14 344 -10 q 174 93 219 38 q 102 237 128 148 q 76 456 76 326 q 96 659 76 566 q 161 822 116 752 q 278 933 206 891 q 453 984 350 976 l 705 1005 l 713 934 q 706 895 715 911 q 674 878 697 879 l 465 861 z "},"в":{"ha":692,"x_min":95,"x_max":637,"o":"m 370 95 q 474 126 435 95 q 512 210 512 157 q 505 252 512 233 q 481 287 498 272 q 438 309 465 301 q 371 317 410 317 l 224 317 l 224 95 l 370 95 m 224 615 l 224 403 l 354 403 q 408 412 383 403 q 450 435 433 420 q 478 471 468 450 q 488 517 488 492 q 482 553 488 536 q 459 585 475 571 q 418 607 444 599 q 354 615 392 615 l 224 615 m 358 706 q 471 693 424 706 q 549 657 518 680 q 593 603 579 634 q 608 538 608 573 q 601 490 608 515 q 580 442 595 465 q 539 401 565 419 q 472 372 513 382 q 593 316 550 358 q 637 206 637 274 q 616 115 637 153 q 558 51 594 76 q 474 13 522 25 q 371 0 425 0 l 95 0 l 95 706 l 358 706 z "},"г":{"ha":576,"x_min":95,"x_max":558,"o":"m 558 603 l 231 603 l 231 0 l 95 0 l 95 706 l 558 706 l 558 603 z "},"ґ":{"ha":576,"x_min":95,"x_max":558,"o":"m 558 879 l 558 603 l 231 603 l 231 0 l 95 0 l 95 706 l 435 706 l 435 879 l 558 879 z "},"д":{"ha":864,"x_min":15,"x_max":838,"o":"m 577 99 l 577 599 l 366 599 q 347 416 359 497 q 320 275 335 335 q 285 170 304 214 q 246 99 267 127 l 577 99 m 838 103 l 838 -199 q 827 -230 838 -219 q 799 -241 816 -241 l 715 -241 l 715 0 l 138 0 l 138 -202 q 129 -229 138 -217 q 101 -241 120 -241 l 15 -241 l 15 99 l 38 99 q 85 106 62 99 q 131 137 109 114 q 172 201 153 160 q 208 310 192 243 q 235 475 224 378 q 254 706 247 572 l 708 706 l 708 103 l 838 103 z "},"ж":{"ha":1104,"x_min":16,"x_max":1089,"o":"m 1089 0 l 995 0 q 939 11 958 0 q 909 47 920 23 l 780 260 q 740 300 764 287 q 685 313 716 313 l 618 313 l 618 -1 l 486 -1 l 486 313 l 419 313 q 364 300 388 313 q 324 260 340 287 l 196 47 q 165 11 184 23 q 110 0 146 0 l 16 0 l 196 292 q 236 342 214 322 q 292 371 259 361 q 248 396 267 380 q 214 439 230 413 l 35 706 l 142 706 q 177 695 161 706 q 202 669 193 685 l 344 451 q 379 416 358 428 q 429 404 400 404 l 486 404 l 486 706 l 618 706 l 618 404 l 674 404 q 760 451 731 404 l 902 669 q 928 695 912 685 q 963 706 944 706 l 1069 706 l 890 439 q 856 396 874 413 q 812 370 838 379 q 868 341 845 360 q 908 292 890 322 l 1089 0 z "},"з":{"ha":624,"x_min":34,"x_max":567,"o":"m 51 632 q 148 693 90 669 q 286 717 206 717 q 400 701 351 717 q 483 659 449 685 q 534 600 517 633 q 551 531 551 567 q 544 487 551 510 q 523 444 538 465 q 484 405 508 423 q 425 376 460 388 q 528 312 490 356 q 567 203 567 268 q 544 114 567 153 q 483 47 522 74 q 395 5 445 19 q 291 -10 345 -10 q 223 -3 258 -10 q 153 16 188 3 q 89 50 119 29 q 34 101 58 71 l 73 151 q 99 163 82 163 q 126 152 112 163 q 161 129 140 142 q 210 106 181 117 q 282 95 239 95 q 348 104 319 95 q 396 129 376 113 q 426 167 416 145 q 437 214 437 188 q 396 294 437 264 q 269 324 355 324 l 190 324 l 190 414 l 269 414 q 386 442 344 414 q 428 515 428 470 q 419 552 428 534 q 391 583 410 569 q 345 604 373 597 q 282 612 318 612 q 214 604 242 612 q 167 586 186 596 q 134 568 147 576 q 113 560 122 560 q 96 564 103 560 q 82 580 90 568 l 51 632 z "},"и":{"ha":802,"x_min":95,"x_max":708,"o":"m 708 706 l 708 0 l 572 0 l 572 461 q 573 492 572 475 q 577 526 574 509 q 564 499 570 512 q 550 476 557 486 l 226 34 q 206 10 218 22 q 177 -1 193 -1 l 95 -1 l 95 706 l 231 706 l 231 244 q 229 213 231 230 q 225 179 228 196 q 252 228 239 210 l 576 672 q 597 694 584 683 q 626 706 610 706 l 708 706 z "},"к":{"ha":728,"x_min":95,"x_max":712,"o":"m 522 669 q 549 695 532 685 q 586 706 567 706 l 692 706 l 514 439 q 479 396 497 413 q 435 370 461 379 q 491 341 468 360 q 532 292 514 322 l 712 0 l 618 0 q 561 12 581 0 q 528 47 542 24 l 399 260 q 359 300 383 287 q 303 313 335 313 l 231 313 l 231 -1 l 95 -1 l 95 706 l 231 706 l 231 404 l 294 404 q 344 416 324 404 q 379 451 365 428 l 522 669 z "},"л":{"ha":817,"x_min":0,"x_max":722,"o":"m 722 0 l 587 0 l 587 599 l 376 599 q 351 369 368 466 q 311 205 335 272 q 259 95 288 137 q 198 30 230 53 q 131 -2 165 6 q 63 -10 97 -10 q 0 11 0 -10 l 0 97 l 38 97 q 85 105 61 97 q 132 136 109 113 q 176 201 156 159 q 215 310 197 242 q 244 475 232 378 q 264 706 257 572 l 722 706 l 722 0 z "},"љ":{"ha":1165,"x_min":0,"x_max":1128,"o":"m 868 99 q 973 133 938 99 q 1007 219 1007 167 q 999 264 1007 242 q 975 300 992 285 q 932 325 958 316 q 866 335 905 335 l 722 335 l 722 99 l 868 99 m 866 433 q 989 416 939 433 q 1070 368 1040 398 q 1114 300 1101 339 q 1128 220 1128 262 q 1111 132 1128 172 q 1061 62 1094 91 q 979 16 1028 33 q 868 0 931 0 l 587 0 l 587 599 l 376 599 q 351 369 368 466 q 311 205 335 272 q 259 95 288 137 q 198 30 230 53 q 131 -2 165 6 q 63 -10 97 -10 q 0 11 0 -10 l 0 97 l 38 97 q 85 105 61 97 q 132 136 109 113 q 176 201 156 159 q 215 310 197 242 q 244 475 232 378 q 264 706 257 572 l 722 706 l 722 433 l 866 433 z "},"м":{"ha":984,"x_min":95,"x_max":889,"o":"m 889 708 l 889 0 l 767 0 l 767 449 q 769 496 767 469 q 776 544 772 522 l 540 126 q 524 108 534 115 q 501 101 515 101 l 486 101 q 464 108 474 101 q 447 126 453 115 l 208 546 q 215 497 212 524 q 217 449 217 470 l 217 0 l 95 0 l 95 708 l 205 708 q 233 701 219 708 q 256 677 247 695 l 463 328 q 479 293 472 312 q 494 256 487 274 q 508 293 501 274 q 524 328 515 312 l 728 677 q 751 702 738 696 q 779 708 765 708 l 889 708 z "},"н":{"ha":784,"x_min":95,"x_max":690,"o":"m 690 706 l 690 0 l 553 0 l 553 325 l 231 325 l 231 0 l 95 0 l 95 706 l 231 706 l 231 428 l 553 428 l 553 706 l 690 706 z "},"њ":{"ha":1133,"x_min":95,"x_max":1095,"o":"m 835 99 q 940 133 905 99 q 974 219 974 167 q 967 264 974 242 q 942 300 959 285 q 899 325 926 316 q 833 335 872 335 l 690 335 l 690 99 l 835 99 m 833 433 q 956 416 906 433 q 1037 368 1006 398 q 1082 300 1068 339 q 1095 220 1095 262 q 1078 132 1095 172 q 1028 62 1061 91 q 946 16 994 33 q 835 0 898 0 l 553 0 l 553 325 l 231 325 l 231 0 l 95 0 l 95 706 l 231 706 l 231 428 l 553 428 l 553 706 l 690 706 l 690 433 l 833 433 z "},"ѳ":{"ha":790,"x_min":55,"x_max":735,"o":"m 188 312 q 250 148 197 205 q 396 92 303 92 q 540 148 488 92 q 601 312 592 205 l 188 312 m 601 402 q 538 560 590 506 q 396 615 486 615 q 252 560 304 615 q 189 402 199 506 l 601 402 m 396 717 q 536 691 474 717 q 643 618 599 666 q 711 504 688 571 q 735 353 735 437 q 711 203 735 270 q 643 88 688 135 q 536 16 599 41 q 396 -10 474 -10 q 255 16 317 -10 q 147 88 192 41 q 79 203 103 135 q 55 353 55 270 q 79 504 55 437 q 147 618 103 571 q 255 691 192 666 q 396 717 317 717 z "},"п":{"ha":784,"x_min":95,"x_max":690,"o":"m 690 0 l 553 0 l 553 603 l 231 603 l 231 0 l 95 0 l 95 706 l 690 706 l 690 0 z "},"т":{"ha":704,"x_min":18,"x_max":686,"o":"m 686 603 l 420 603 l 420 0 l 284 0 l 284 603 l 18 603 l 18 706 l 686 706 l 686 603 z "},"ѵ":{"ha":752,"x_min":12,"x_max":728,"o":"m 509 586 q 538 651 522 626 q 574 690 554 676 q 616 709 593 704 q 665 714 639 714 q 697 712 684 714 q 716 707 709 710 q 726 700 723 703 q 728 693 728 696 l 728 617 l 708 617 q 658 605 678 617 q 627 563 638 592 l 418 0 l 296 0 l 12 706 l 123 706 q 150 698 139 706 q 164 678 160 690 l 331 245 q 347 189 340 217 q 359 135 353 162 q 372 189 365 162 q 388 245 379 216 l 509 586 z "},"ф":{"ha":988,"x_min":53,"x_max":935,"o":"m 553 92 q 736 167 673 99 q 799 353 799 235 q 736 539 799 470 q 553 614 673 607 l 553 92 m 435 614 q 252 539 315 607 q 189 353 189 470 q 252 167 189 235 q 435 92 315 99 l 435 614 m 558 716 q 714 685 644 712 q 833 611 783 658 q 908 499 882 564 q 935 353 935 433 q 908 208 935 273 q 833 95 882 142 q 714 22 783 49 q 558 -9 644 -5 l 558 -241 l 431 -241 l 431 -9 q 274 22 344 -5 q 156 95 205 49 q 80 208 106 142 q 53 353 53 273 q 80 499 53 433 q 156 611 106 564 q 274 685 205 658 q 431 716 344 712 l 431 997 l 558 997 l 558 716 z "},"ц":{"ha":844,"x_min":95,"x_max":819,"o":"m 819 103 l 819 -199 q 808 -230 819 -219 q 779 -241 797 -241 l 696 -241 l 696 0 l 95 0 l 95 706 l 231 706 l 231 103 l 553 103 l 553 706 l 690 706 l 690 103 l 819 103 z "},"џ":{"ha":784,"x_min":95,"x_max":690,"o":"m 690 706 l 690 0 l 453 0 l 453 -199 q 443 -230 453 -219 q 415 -241 432 -241 l 331 -241 l 331 0 l 95 0 l 95 706 l 231 706 l 231 103 l 553 103 l 553 706 l 690 706 z "},"ч":{"ha":719,"x_min":54,"x_max":624,"o":"m 624 706 l 624 0 l 489 0 l 489 294 q 319 265 398 270 q 181 279 240 260 q 88 345 122 298 q 54 472 54 392 l 54 706 l 190 706 l 190 493 q 209 416 190 444 q 265 375 228 387 q 359 368 303 364 q 489 390 415 373 l 489 706 l 624 706 z "},"ш":{"ha":1146,"x_min":95,"x_max":1051,"o":"m 1051 706 l 1051 0 l 95 0 l 95 706 l 231 706 l 231 103 l 505 103 l 505 706 l 641 706 l 641 103 l 915 103 l 915 706 l 1051 706 z "},"щ":{"ha":1206,"x_min":95,"x_max":1181,"o":"m 1181 103 l 1181 -199 q 1169 -230 1181 -219 q 1141 -241 1158 -241 l 1057 -241 l 1057 0 l 95 0 l 95 706 l 231 706 l 231 103 l 505 103 l 505 706 l 641 706 l 641 103 l 915 103 l 915 706 l 1051 706 l 1051 103 l 1181 103 z "},"ъ":{"ha":815,"x_min":19,"x_max":777,"o":"m 517 99 q 622 133 588 99 q 656 219 656 167 q 649 264 656 242 q 624 300 641 285 q 581 325 608 316 q 515 335 554 335 l 372 335 l 372 99 l 517 99 m 515 433 q 639 416 588 433 q 719 368 689 398 q 764 300 750 339 q 777 220 777 262 q 760 132 777 172 q 710 62 743 91 q 628 16 677 33 q 517 0 580 0 l 242 0 l 242 601 l 19 601 l 19 706 l 372 706 l 372 433 l 515 433 z "},"ы":{"ha":1009,"x_min":95,"x_max":914,"o":"m 370 99 q 474 133 440 99 q 509 219 509 167 q 501 264 509 242 q 477 300 494 285 q 434 325 460 316 q 368 335 407 335 l 224 335 l 224 99 l 370 99 m 368 433 q 491 416 441 433 q 572 368 542 398 q 616 300 603 339 q 630 220 630 262 q 613 132 630 172 q 563 62 596 91 q 481 16 529 33 q 370 0 433 0 l 95 0 l 95 706 l 224 706 l 224 433 l 368 433 m 914 706 l 914 0 l 778 0 l 778 706 l 914 706 z "},"ь":{"ha":667,"x_min":95,"x_max":630,"o":"m 370 99 q 474 133 440 99 q 509 219 509 167 q 501 264 509 242 q 477 300 494 285 q 434 325 460 316 q 368 335 407 335 l 224 335 l 224 99 l 370 99 m 368 433 q 491 416 441 433 q 572 368 542 398 q 616 300 603 339 q 630 220 630 262 q 613 132 630 172 q 563 62 596 91 q 481 16 529 33 q 370 0 433 0 l 95 0 l 95 706 l 224 706 l 224 433 l 368 433 z "},"э":{"ha":672,"x_min":38,"x_max":617,"o":"m 46 624 q 149 692 91 668 q 282 717 206 717 q 425 689 363 717 q 530 614 488 662 q 595 499 573 565 q 617 353 617 432 q 592 200 617 267 q 526 85 568 132 q 427 15 484 39 q 303 -10 369 -10 q 228 -3 265 -10 q 157 16 191 3 q 93 50 123 29 q 38 101 63 71 l 75 147 q 101 159 84 159 q 127 149 114 159 q 159 127 140 139 q 207 105 178 115 q 279 95 235 95 q 416 151 363 95 q 480 313 470 208 l 154 313 l 154 408 l 478 408 q 456 493 472 456 q 414 558 440 531 q 353 598 388 584 q 274 612 317 612 q 209 604 235 612 q 164 586 183 596 q 133 569 146 577 q 109 561 120 561 q 92 566 98 561 q 81 578 86 570 l 46 624 z "},"є":{"ha":672,"x_min":55,"x_max":633,"o":"m 591 578 q 580 566 585 570 q 563 561 574 561 q 539 569 551 561 q 507 586 526 577 q 463 604 489 596 q 398 612 436 612 q 319 598 354 612 q 257 558 283 584 q 215 493 231 531 q 193 408 199 456 l 517 408 l 517 313 l 192 313 q 255 151 201 208 q 392 95 308 95 q 465 105 436 95 q 513 127 493 115 q 545 149 532 139 q 571 159 558 159 q 597 147 588 159 l 633 101 q 579 50 609 71 q 515 16 549 29 q 443 -3 481 3 q 368 -10 406 -10 q 245 15 302 -10 q 145 85 188 39 q 79 200 103 132 q 55 353 55 267 q 77 499 55 432 q 141 614 99 565 q 247 689 184 662 q 390 717 309 717 q 523 692 465 717 q 626 624 581 668 l 591 578 z "},"ю":{"ha":1094,"x_min":95,"x_max":1038,"o":"m 713 96 q 852 163 807 96 q 898 353 898 231 q 852 543 898 475 q 713 610 807 610 q 573 543 619 610 q 528 353 528 475 q 573 163 528 231 q 713 96 619 96 m 394 406 q 426 535 401 478 q 492 633 451 593 q 588 695 533 674 q 713 717 644 717 q 848 691 788 717 q 950 618 908 666 q 1015 504 992 571 q 1038 353 1038 437 q 1015 203 1038 270 q 948 88 991 135 q 845 16 906 41 q 713 -10 785 -10 q 585 12 642 -10 q 489 75 529 34 q 424 175 448 117 q 394 308 399 234 l 231 308 l 231 0 l 95 0 l 95 706 l 231 706 l 231 406 l 394 406 z "},"я":{"ha":690,"x_min":8,"x_max":594,"o":"m 465 380 l 465 615 l 353 615 q 290 605 315 615 q 248 576 264 594 q 226 538 233 559 q 219 497 219 517 q 259 411 219 442 q 367 380 299 380 l 465 380 m 594 706 l 594 0 l 465 0 l 465 294 l 417 294 q 384 291 397 294 q 361 281 371 288 q 345 266 352 275 q 331 246 338 257 l 188 47 q 173 27 181 35 q 156 12 165 18 q 133 3 146 6 q 101 0 119 0 l 8 0 l 206 262 q 276 321 231 306 q 186 346 223 328 q 127 389 150 365 q 94 443 104 414 q 83 503 83 473 q 98 577 83 541 q 144 642 113 613 q 227 688 176 670 q 349 706 278 706 l 594 706 z "},"ђ":{"ha":769,"x_min":-28,"x_max":701,"o":"m 231 556 q 328 629 275 602 q 452 656 382 656 q 640 575 578 656 q 701 344 701 494 q 655 46 701 190 q 525 -229 608 -98 l 416 -186 q 480 -62 451 -124 q 527 64 508 -1 q 556 198 546 129 q 566 344 566 267 q 555 436 566 397 q 524 499 544 474 q 476 536 504 524 q 413 549 448 549 q 315 524 360 549 q 231 457 269 500 l 231 0 l 94 0 l 94 760 l -28 760 l -28 865 l 94 865 l 94 1025 l 231 1025 l 231 865 l 469 865 l 469 760 l 231 760 l 231 556 z "},"ѣ":{"ha":784,"x_min":20,"x_max":752,"o":"m 492 99 q 597 133 562 99 q 631 219 631 167 q 624 264 631 242 q 599 300 616 285 q 556 325 583 316 q 490 335 528 335 l 332 335 l 332 99 l 492 99 m 490 433 q 613 416 563 433 q 694 368 663 398 q 739 300 725 339 q 752 220 752 262 q 735 132 752 172 q 685 62 718 91 q 603 16 651 33 q 492 0 555 0 l 203 0 l 203 600 l 20 600 l 20 705 l 203 705 l 203 899 l 332 899 l 332 705 l 556 705 l 556 600 l 332 600 l 332 433 l 490 433 z "},"!":{"ha":378,"x_min":96,"x_max":279,"o":"m 254 997 l 254 600 q 253 539 254 569 q 249 479 251 509 q 243 417 247 449 q 235 349 240 385 l 144 349 q 136 417 140 385 q 130 479 133 449 q 126 539 128 509 q 125 600 125 569 l 125 997 l 254 997 m 96 81 q 103 117 96 100 q 122 146 110 133 q 151 166 135 158 q 188 173 168 173 q 223 166 206 173 q 252 146 240 158 q 272 117 265 133 q 279 81 279 100 q 272 45 279 62 q 252 16 265 28 q 223 -3 240 3 q 188 -10 206 -10 q 151 -3 168 -10 q 122 16 135 3 q 103 45 110 28 q 96 81 96 62 z "},"?":{"ha":626,"x_min":55,"x_max":567,"o":"m 55 908 q 103 947 77 928 q 161 978 130 965 q 229 1000 192 992 q 308 1008 265 1008 q 411 992 364 1008 q 493 947 459 976 q 547 875 528 917 q 567 781 567 833 q 551 689 567 728 q 512 622 535 651 q 460 573 488 594 q 407 533 432 551 q 365 495 383 514 q 344 454 347 477 l 331 349 l 238 349 l 228 464 q 240 519 225 496 q 277 564 254 543 q 329 603 301 584 q 382 647 358 623 q 423 701 406 671 q 440 773 440 731 q 428 824 440 801 q 398 864 417 847 q 352 889 378 880 q 296 897 326 897 q 225 887 254 897 q 175 865 196 877 q 142 843 155 853 q 119 833 128 833 q 90 851 99 833 l 55 908 m 190 81 q 197 117 190 100 q 216 146 203 133 q 244 166 228 158 q 281 173 261 173 q 316 166 299 173 q 345 146 333 158 q 365 117 358 133 q 372 81 372 100 q 365 45 372 62 q 345 16 358 28 q 316 -3 333 3 q 281 -10 299 -10 q 244 -3 261 -10 q 216 16 228 3 q 197 45 203 28 q 190 81 190 62 z "},"‽":{"ha":683,"x_min":61,"x_max":627,"o":"m 297 173 q 333 166 316 173 q 362 146 349 158 q 382 117 374 133 q 389 81 389 100 q 382 45 389 62 q 362 16 374 28 q 333 -3 349 3 q 297 -10 316 -10 q 261 -3 278 -10 q 232 16 244 3 q 213 45 220 28 q 206 81 206 62 q 213 117 206 100 q 232 146 220 133 q 261 166 244 158 q 297 173 278 173 m 270 979 q 322 992 292 988 q 383 997 352 997 q 482 983 437 997 q 559 942 526 969 q 609 876 591 915 q 627 785 627 837 q 607 692 627 730 q 558 627 588 653 q 492 581 528 600 q 426 543 457 561 q 372 504 394 525 q 345 453 349 483 l 344 338 l 260 338 q 223 444 241 388 q 188 553 204 499 l 61 981 l 187 1013 l 281 649 q 291 611 285 635 q 302 558 297 587 q 340 596 319 579 q 383 628 361 613 q 427 658 406 643 q 465 689 449 672 q 492 726 482 706 q 503 772 503 746 q 494 816 503 796 q 469 851 485 836 q 428 875 452 867 q 376 884 405 884 q 341 881 356 884 q 320 878 326 878 q 298 884 305 878 q 288 901 290 890 l 270 979 z "},",":{"ha":318,"x_min":71,"x_max":248,"o":"m 156 0 q 122 7 138 0 q 95 26 106 14 q 77 55 83 38 q 71 91 71 72 q 77 123 71 108 q 95 149 83 138 q 122 166 106 160 q 158 173 138 173 q 197 165 180 173 q 225 143 214 157 q 242 110 237 128 q 248 69 248 91 q 239 3 248 38 q 213 -65 230 -31 q 169 -131 195 -99 q 111 -190 144 -163 l 88 -169 q 78 -147 78 -159 q 81 -137 78 -142 q 89 -127 84 -132 q 107 -107 96 -119 q 129 -78 118 -94 q 149 -42 140 -62 q 163 0 158 -22 l 156 0 z "},";":{"ha":367,"x_min":91,"x_max":274,"o":"m 181 0 q 146 7 162 0 q 119 26 131 14 q 101 55 108 38 q 95 91 95 72 q 101 123 95 108 q 119 149 108 138 q 147 166 131 160 q 182 173 163 173 q 221 165 204 173 q 250 143 238 157 q 267 110 261 128 q 272 69 272 91 q 263 3 272 38 q 237 -65 254 -31 q 194 -131 219 -99 q 135 -190 168 -163 l 113 -169 q 102 -147 102 -159 q 105 -137 102 -142 q 113 -127 108 -132 q 131 -107 120 -119 q 153 -78 142 -94 q 173 -42 164 -62 q 187 0 183 -22 l 181 0 m 91 595 q 98 631 91 614 q 117 660 105 647 q 146 680 129 672 q 182 687 163 687 q 217 680 201 687 q 247 660 234 672 q 266 631 259 647 q 274 595 274 614 q 266 559 274 576 q 247 530 259 542 q 217 510 234 517 q 182 503 201 503 q 146 510 163 503 q 117 530 129 517 q 98 559 105 542 q 91 595 91 576 z "},":":{"ha":350,"x_min":84,"x_max":267,"o":"m 84 81 q 91 117 84 100 q 110 146 98 133 q 139 166 122 158 q 175 173 156 173 q 210 166 194 173 q 240 146 227 158 q 259 117 252 133 q 267 81 267 100 q 259 45 267 62 q 240 16 252 28 q 210 -3 227 3 q 175 -10 194 -10 q 139 -3 156 -10 q 110 16 122 3 q 91 45 98 28 q 84 81 84 62 m 84 595 q 91 631 84 614 q 110 660 98 647 q 139 680 122 672 q 175 687 156 687 q 210 680 194 687 q 240 660 227 672 q 259 631 252 647 q 267 595 267 614 q 259 559 267 576 q 240 530 252 542 q 210 510 227 517 q 175 503 194 503 q 139 510 156 503 q 110 530 122 517 q 91 559 98 542 q 84 595 84 576 z "},".":{"ha":328,"x_min":73,"x_max":256,"o":"m 73 81 q 80 117 73 100 q 99 146 87 133 q 128 166 111 158 q 164 173 144 173 q 199 166 183 173 q 228 146 216 158 q 248 117 241 133 q 256 81 256 100 q 248 45 256 62 q 228 16 241 28 q 199 -3 216 3 q 164 -10 183 -10 q 128 -3 144 -10 q 99 16 111 3 q 80 45 87 28 q 73 81 73 62 z "},"…":{"ha":1049,"x_min":73,"x_max":976,"o":"m 73 81 q 80 117 73 100 q 99 146 87 133 q 128 166 111 158 q 164 173 144 173 q 199 166 183 173 q 228 146 216 158 q 248 117 241 133 q 256 81 256 100 q 248 45 256 62 q 228 16 241 28 q 199 -3 216 3 q 164 -10 183 -10 q 128 -3 144 -10 q 99 16 111 3 q 80 45 87 28 q 73 81 73 62 m 794 81 q 801 117 794 100 q 820 146 808 133 q 849 166 832 158 q 885 173 865 173 q 920 166 903 173 q 949 146 937 158 q 969 117 962 133 q 976 81 976 100 q 969 45 976 62 q 949 16 962 28 q 920 -3 937 3 q 885 -10 903 -10 q 849 -3 865 -10 q 820 16 832 3 q 801 45 808 28 q 794 81 794 62 m 433 81 q 440 117 433 100 q 459 146 447 133 q 488 166 472 158 q 524 173 505 173 q 560 166 543 173 q 589 146 576 158 q 609 117 601 133 q 616 81 616 100 q 609 45 616 62 q 589 16 601 28 q 560 -3 576 3 q 524 -10 543 -10 q 488 -3 505 -10 q 459 16 472 3 q 440 45 447 28 q 433 81 433 62 z "},"‘":{"ha":299,"x_min":65,"x_max":235,"o":"m 116 656 q 75 762 85 706 q 73 873 65 818 q 109 978 81 928 q 182 1067 136 1028 l 224 1042 q 234 1023 235 1034 q 226 1006 233 1013 q 197 954 210 985 q 180 887 184 923 q 183 812 176 851 q 212 735 190 773 q 217 707 222 719 q 199 689 213 694 l 116 656 z "},"’":{"ha":299,"x_min":68,"x_max":240,"o":"m 188 1064 q 229 957 218 1013 q 231 847 240 901 q 195 742 223 792 q 122 652 167 692 l 80 678 q 69 697 68 686 q 77 714 71 708 q 107 766 94 735 q 124 833 120 797 q 122 908 128 869 q 92 985 115 947 q 87 1013 83 1001 q 105 1031 91 1026 l 188 1064 z "},"“":{"ha":515,"x_min":65,"x_max":451,"o":"m 116 656 q 75 762 85 706 q 73 873 65 818 q 109 978 81 928 q 182 1067 136 1028 l 224 1042 q 234 1023 235 1034 q 226 1006 233 1013 q 197 954 210 985 q 180 887 184 923 q 183 812 176 851 q 212 735 190 773 q 217 707 222 719 q 199 689 213 694 l 116 656 m 332 656 q 291 762 301 706 q 289 873 281 818 q 325 978 297 928 q 398 1067 352 1028 l 440 1042 q 450 1023 451 1034 q 442 1006 449 1013 q 413 954 426 985 q 396 887 400 923 q 399 812 392 851 q 428 735 406 773 q 433 707 438 719 q 415 689 429 694 l 332 656 z "},"”":{"ha":515,"x_min":68,"x_max":456,"o":"m 188 1064 q 229 957 218 1013 q 231 847 240 901 q 195 742 223 792 q 122 652 167 692 l 80 678 q 69 697 68 686 q 77 714 71 708 q 107 766 94 735 q 124 833 120 797 q 122 908 128 869 q 92 985 115 947 q 87 1013 83 1001 q 105 1031 91 1026 l 188 1064 m 403 1064 q 445 957 434 1013 q 447 847 456 901 q 411 742 439 792 q 338 652 383 692 l 296 678 q 285 697 284 686 q 293 714 287 708 q 323 766 310 735 q 340 833 336 797 q 338 908 344 869 q 308 985 331 947 q 303 1013 299 1001 q 321 1031 307 1026 l 403 1064 z "},"‚":{"ha":300,"x_min":58,"x_max":230,"o":"m 178 189 q 219 82 208 138 q 222 -28 230 26 q 185 -133 213 -83 q 112 -223 158 -183 l 70 -197 q 60 -178 58 -189 q 67 -161 61 -167 q 98 -109 85 -140 q 115 -42 110 -78 q 112 33 119 -6 q 83 110 105 72 q 77 138 73 126 q 95 156 81 151 l 178 189 z "},"„":{"ha":516,"x_min":58,"x_max":446,"o":"m 178 189 q 219 82 208 138 q 222 -28 230 26 q 185 -133 213 -83 q 112 -223 158 -183 l 70 -197 q 60 -178 58 -189 q 67 -161 61 -167 q 98 -109 85 -140 q 115 -42 110 -78 q 112 33 119 -6 q 83 110 105 72 q 77 138 73 126 q 95 156 81 151 l 178 189 m 394 189 q 435 82 424 138 q 438 -28 446 26 q 401 -133 429 -83 q 328 -223 374 -183 l 286 -197 q 276 -178 274 -189 q 283 -161 277 -167 q 314 -109 301 -140 q 331 -42 326 -78 q 328 33 335 -6 q 299 110 321 72 q 293 138 289 126 q 311 156 297 151 l 394 189 z "},"‹":{"ha":394,"x_min":68,"x_max":310,"o":"m 300 167 q 307 134 310 149 q 286 110 304 119 l 242 89 l 68 360 l 68 378 l 242 649 l 286 628 q 307 605 304 619 q 300 572 310 590 l 194 395 q 174 369 183 378 q 183 358 178 365 q 194 343 188 352 l 300 167 z "},"›":{"ha":394,"x_min":85,"x_max":326,"o":"m 326 378 l 326 360 l 152 89 l 108 110 q 88 134 90 119 q 94 167 85 149 l 201 343 q 221 369 211 360 q 211 380 215 374 q 201 395 206 387 l 94 572 q 88 605 85 590 q 108 628 90 619 l 152 649 l 326 378 z "},"«":{"ha":605,"x_min":68,"x_max":521,"o":"m 300 167 q 307 134 310 149 q 286 110 304 119 l 242 89 l 68 360 l 68 378 l 242 649 l 286 628 q 307 605 304 619 q 300 572 310 590 l 194 395 q 174 369 183 378 q 183 358 178 365 q 194 343 188 352 l 300 167 m 511 167 q 518 134 521 149 q 497 110 515 119 l 453 89 l 279 360 l 279 378 l 453 649 l 497 628 q 518 605 515 619 q 511 572 521 590 l 405 395 q 385 369 394 378 q 394 358 390 365 q 405 343 399 352 l 511 167 z "},"»":{"ha":606,"x_min":85,"x_max":538,"o":"m 326 378 l 326 360 l 152 89 l 108 110 q 88 134 90 119 q 94 167 85 149 l 201 343 q 221 369 211 360 q 211 380 215 374 q 201 395 206 387 l 94 572 q 88 605 85 590 q 108 628 90 619 l 152 649 l 326 378 m 538 378 l 538 360 l 363 89 l 319 110 q 299 134 301 119 q 306 167 296 149 l 412 343 q 432 369 422 360 q 422 380 426 374 q 412 395 417 387 l 306 572 q 299 605 296 590 q 319 628 301 619 l 363 649 l 538 378 z "},"/":{"ha":633,"x_min":45,"x_max":588,"o":"m 176 -11 q 145 -50 166 -37 q 102 -63 124 -63 l 45 -63 l 459 976 q 487 1012 469 999 q 530 1025 506 1025 l 588 1025 l 176 -11 z "},"|":{"ha":351,"x_min":123,"x_max":228,"o":"m 123 1067 l 228 1067 l 228 -242 l 123 -242 l 123 1067 z "},"¦":{"ha":356,"x_min":125,"x_max":231,"o":"m 125 1067 l 231 1067 l 231 513 l 125 513 l 125 1067 m 125 318 l 231 318 l 231 -237 l 125 -237 l 125 318 z "},"\\":{"ha":633,"x_min":45,"x_max":588,"o":"m 45 1025 l 103 1025 q 145 1012 127 1025 q 173 976 164 999 l 588 -63 l 531 -63 q 488 -50 508 -63 q 457 -11 467 -37 l 45 1025 z "},"-":{"ha":517,"x_min":85,"x_max":432,"o":"m 85 475 l 432 475 l 432 360 l 85 360 l 85 475 z "},"–":{"ha":806,"x_min":124,"x_max":681,"o":"m 124 461 l 681 461 l 681 363 l 124 363 l 124 461 z "},"—":{"ha":1103,"x_min":88,"x_max":1016,"o":"m 88 461 l 1016 461 l 1016 363 l 88 363 l 88 461 z "},"_":{"ha":640,"x_min":47,"x_max":594,"o":"m 594 -109 l 594 -199 l 47 -199 l 47 -109 l 594 -109 z "},"•":{"ha":806,"x_min":134,"x_max":672,"o":"m 134 413 q 155 518 134 469 q 213 604 176 567 q 298 662 249 641 q 402 683 347 683 q 507 662 458 683 q 593 604 556 641 q 650 518 629 567 q 672 413 672 469 q 650 308 672 357 q 593 223 629 260 q 507 165 556 186 q 402 144 458 144 q 298 165 347 144 q 213 223 249 186 q 155 308 176 260 q 134 413 134 357 z "},"·":{"ha":366,"x_min":73,"x_max":294,"o":"m 73 413 q 82 456 73 435 q 105 492 90 476 q 140 516 120 507 q 182 524 160 524 q 225 516 205 524 q 261 492 246 507 q 285 456 276 476 q 294 413 294 435 q 285 370 294 390 q 261 335 276 350 q 225 311 246 319 q 182 302 205 302 q 140 311 160 302 q 105 335 120 319 q 82 370 90 350 q 73 413 73 390 z "},"(":{"ha":374,"x_min":60,"x_max":334,"o":"m 178 436 q 215 149 178 289 q 322 -115 251 10 q 328 -151 334 -138 q 311 -171 323 -163 l 251 -208 q 162 -49 199 -128 q 103 109 126 30 q 70 270 81 189 q 60 436 60 351 q 70 603 60 522 q 103 764 81 684 q 162 922 126 843 q 251 1081 199 1001 l 311 1044 q 328 1024 323 1036 q 322 988 334 1011 q 215 723 251 863 q 178 436 178 583 z "},")":{"ha":374,"x_min":39,"x_max":314,"o":"m 196 436 q 159 723 196 583 q 51 988 122 863 q 45 1024 39 1011 q 63 1044 51 1036 l 123 1081 q 211 922 175 1001 q 270 764 247 843 q 303 603 293 684 q 314 436 314 522 q 303 270 314 351 q 270 109 293 189 q 211 -49 247 30 q 123 -208 175 -128 l 63 -171 q 45 -151 51 -163 q 51 -115 39 -138 q 159 149 122 10 q 196 436 196 289 z "},"[":{"ha":428,"x_min":124,"x_max":386,"o":"m 238 978 l 238 -115 l 349 -115 q 376 -125 365 -115 q 386 -151 386 -135 l 386 -204 l 124 -204 l 124 1067 l 386 1067 l 386 1014 q 376 988 386 999 q 349 978 365 978 l 238 978 z "},"]":{"ha":428,"x_min":41,"x_max":304,"o":"m 304 -204 l 41 -204 l 41 -151 q 51 -125 41 -135 q 78 -115 62 -115 l 190 -115 l 190 978 l 78 978 q 51 988 62 978 q 41 1014 41 999 l 41 1067 l 304 1067 l 304 -204 z "},"{":{"ha":420,"x_min":45,"x_max":376,"o":"m 333 978 q 252 944 281 978 q 222 852 222 910 q 227 778 222 813 q 238 708 232 742 q 248 640 243 674 q 253 573 253 607 q 223 483 253 521 q 147 432 194 445 q 223 381 194 419 q 253 291 253 343 q 248 223 253 257 q 238 155 243 190 q 227 85 232 121 q 222 11 222 49 q 252 -81 222 -47 q 333 -115 281 -115 l 346 -115 q 365 -121 354 -115 q 376 -143 376 -128 l 376 -204 l 338 -204 q 235 -188 279 -204 q 162 -142 191 -172 q 118 -71 133 -112 q 103 19 103 -30 q 109 89 103 55 q 120 157 114 123 q 132 224 127 191 q 138 292 138 258 q 114 364 138 336 q 45 391 91 391 l 45 472 q 114 500 91 472 q 138 571 138 527 q 132 639 138 605 q 120 706 127 672 q 109 774 114 740 q 103 844 103 808 q 118 934 103 893 q 162 1005 133 976 q 235 1051 191 1035 q 338 1067 279 1067 l 376 1067 l 376 1006 q 365 984 376 991 q 346 978 354 978 l 333 978 z "},"}":{"ha":420,"x_min":44,"x_max":374,"o":"m 374 391 q 306 364 328 391 q 283 292 283 336 q 288 224 283 258 q 300 157 293 191 q 311 89 306 123 q 317 19 317 55 q 302 -71 317 -30 q 258 -142 288 -112 q 184 -188 228 -172 q 81 -204 140 -204 l 44 -204 l 44 -143 q 55 -121 44 -128 q 74 -115 66 -115 l 87 -115 q 168 -81 139 -115 q 198 11 198 -47 q 193 85 198 49 q 183 155 188 121 q 172 223 177 190 q 167 291 167 257 q 197 381 167 343 q 273 432 226 419 q 197 483 226 445 q 167 573 167 521 q 172 640 167 607 q 183 708 177 674 q 193 778 188 742 q 198 852 198 813 q 168 944 198 910 q 87 978 139 978 l 74 978 q 55 984 66 978 q 44 1006 44 991 l 44 1067 l 81 1067 q 184 1051 140 1067 q 258 1005 228 1035 q 302 934 288 976 q 317 844 317 893 q 311 774 317 808 q 300 706 306 740 q 288 639 293 672 q 283 571 283 605 q 306 500 283 527 q 374 472 328 472 l 374 391 z "},"*":{"ha":590,"x_min":82,"x_max":508,"o":"m 508 735 l 476 678 l 358 747 q 335 762 346 754 q 317 781 325 770 q 328 729 328 757 l 328 594 l 262 594 l 262 728 q 264 755 262 742 q 271 778 265 767 q 253 761 263 769 q 232 747 244 753 l 115 678 l 83 735 l 199 803 q 224 815 212 810 q 249 821 235 819 q 199 839 222 824 l 82 908 l 115 965 l 232 896 q 255 880 244 888 q 272 860 265 872 q 264 885 267 872 q 262 913 262 899 l 262 1048 l 328 1048 l 328 914 q 326 887 328 900 q 319 863 324 874 q 337 881 327 873 q 358 896 347 888 l 475 963 l 508 906 l 391 839 q 368 827 379 832 q 344 821 356 822 q 391 803 367 818 l 508 735 z "},"†":{"ha":806,"x_min":76,"x_max":730,"o":"m 456 591 l 456 313 l 474 -231 q 441 -244 459 -239 q 403 -249 423 -249 q 365 -244 383 -249 q 332 -231 347 -239 l 350 313 l 350 591 l 76 591 l 76 637 q 91 678 76 660 q 140 697 107 697 q 188 693 163 697 q 241 686 214 690 q 295 678 268 682 q 350 671 323 674 l 332 1010 q 403 1028 363 1028 q 474 1010 443 1028 l 456 671 q 510 678 483 674 q 565 686 538 682 q 617 693 592 690 q 666 697 643 697 q 714 678 699 697 q 730 637 730 660 l 730 591 l 456 591 z "},"‡":{"ha":806,"x_min":76,"x_max":730,"o":"m 456 189 l 730 189 l 730 143 q 714 101 730 119 q 666 83 699 83 q 617 86 643 83 q 565 93 592 89 q 510 102 538 97 q 456 109 483 106 l 474 -231 q 441 -244 459 -239 q 403 -249 423 -249 q 365 -244 383 -249 q 332 -231 347 -239 l 350 109 q 295 102 323 106 q 241 93 268 97 q 188 86 214 89 q 140 83 163 83 q 91 101 107 83 q 76 143 76 119 l 76 189 l 350 189 l 350 591 l 76 591 l 76 637 q 91 678 76 660 q 140 697 107 697 q 188 693 163 697 q 241 686 214 690 q 295 678 268 682 q 350 671 323 674 l 332 1010 q 403 1028 363 1028 q 474 1010 443 1028 l 456 671 q 510 678 483 674 q 565 686 538 682 q 617 693 592 690 q 666 697 643 697 q 714 678 699 697 q 730 637 730 660 l 730 591 l 456 591 l 456 189 z "},"§":{"ha":691,"x_min":68,"x_max":624,"o":"m 188 504 q 211 447 188 471 q 271 404 235 423 q 352 367 308 385 q 439 328 397 349 q 490 370 474 346 q 505 426 505 395 q 483 486 505 461 q 426 530 461 511 q 349 566 392 549 q 265 603 307 583 q 206 559 224 583 q 188 504 188 535 m 562 875 q 550 862 556 865 q 534 858 544 858 q 509 866 523 858 q 477 882 496 874 q 432 899 458 891 q 371 906 406 906 q 313 898 338 906 q 270 877 288 890 q 243 845 253 863 q 234 806 234 827 q 251 762 234 781 q 295 727 267 743 q 357 696 322 710 q 429 666 392 682 q 500 631 465 650 q 563 588 535 613 q 607 531 590 563 q 624 457 624 499 q 597 356 624 401 q 513 285 570 311 q 567 225 546 259 q 588 143 588 191 q 570 52 588 94 q 518 -21 552 10 q 433 -69 483 -51 q 317 -86 383 -86 q 183 -62 244 -86 q 79 0 121 -37 l 111 52 q 125 67 117 62 q 147 72 133 72 q 174 63 160 72 q 208 41 188 53 q 257 20 228 30 q 328 11 285 11 q 432 41 396 11 q 469 121 469 72 q 451 173 469 151 q 406 213 434 195 q 342 244 378 230 q 268 273 306 258 q 195 306 231 288 q 131 348 159 324 q 85 405 103 372 q 68 482 68 438 q 98 580 68 537 q 190 649 127 624 q 135 711 156 675 q 113 800 113 748 q 130 879 113 842 q 180 945 147 917 q 259 991 212 974 q 368 1008 307 1008 q 495 985 438 1008 q 592 924 551 963 l 562 875 z "},"¶":{"ha":985,"x_min":48,"x_max":936,"o":"m 936 881 l 785 881 l 785 -141 l 665 -141 l 665 881 l 481 881 l 481 -141 l 361 -141 l 361 453 q 231 474 289 453 q 133 533 174 496 q 70 620 92 570 q 48 726 48 669 q 70 837 48 787 q 133 922 92 887 q 231 977 174 958 q 361 997 289 997 l 936 997 l 936 881 z "},"^":{"ha":806,"x_min":86,"x_max":719,"o":"m 719 481 l 621 481 q 599 488 608 481 q 584 506 590 494 l 431 803 q 415 840 422 822 q 402 874 408 857 q 390 840 397 857 q 375 803 383 822 l 228 506 q 214 488 224 495 q 190 481 205 481 l 86 481 l 357 997 l 444 997 l 719 481 z "},"~":{"ha":806,"x_min":80,"x_max":730,"o":"m 527 432 q 595 460 571 432 q 620 537 619 489 l 730 537 q 717 448 730 488 q 678 380 703 408 q 617 335 653 351 q 535 319 581 319 q 465 330 499 319 q 398 354 430 341 q 336 378 365 367 q 283 389 307 389 q 215 361 239 389 q 190 285 190 333 l 80 285 q 93 373 80 333 q 131 442 106 413 q 192 486 156 470 q 274 502 228 502 q 345 491 310 502 q 412 467 380 480 q 474 443 444 454 q 527 432 503 432 z "},"'":{"ha":286,"x_min":84,"x_max":202,"o":"m 202 997 l 202 797 l 190 688 q 176 651 186 664 q 142 638 166 638 q 111 651 122 638 q 97 688 101 664 l 84 797 l 84 997 l 202 997 z "},"\"":{"ha":524,"x_min":84,"x_max":440,"o":"m 202 997 l 202 797 l 190 688 q 176 651 186 664 q 142 638 166 638 q 111 651 122 638 q 97 688 101 664 l 84 797 l 84 997 l 202 997 m 440 997 l 440 797 l 427 688 q 414 651 424 664 q 380 638 403 638 q 349 651 360 638 q 334 688 338 664 l 322 797 l 322 997 l 440 997 z "},"&":{"ha":993,"x_min":59,"x_max":983,"o":"m 333 485 q 231 393 265 447 q 197 279 197 340 q 213 202 197 236 q 255 146 228 169 q 314 111 281 123 q 383 99 348 99 q 516 125 457 99 q 621 195 575 151 l 333 485 m 983 0 l 851 0 q 816 5 828 0 q 787 27 803 10 l 694 120 q 545 24 629 59 q 360 -11 460 -11 q 250 8 303 -11 q 153 63 196 27 q 85 151 111 99 q 59 268 59 203 q 75 359 59 316 q 119 439 91 403 q 187 505 148 476 q 272 555 226 534 q 212 659 231 608 q 193 762 193 709 q 212 858 193 813 q 265 936 231 903 q 350 989 300 969 q 464 1008 401 1008 q 566 991 520 1008 q 646 943 613 973 q 698 874 679 913 q 720 793 717 835 l 635 776 q 598 799 610 770 q 582 835 592 817 q 556 869 572 854 q 517 894 540 884 q 464 903 494 903 q 404 892 431 903 q 358 862 377 881 q 330 817 340 843 q 319 763 319 792 q 325 718 319 740 q 342 674 331 696 q 372 630 353 652 q 415 581 390 607 l 696 293 q 737 390 722 339 q 757 491 752 440 q 766 513 758 505 q 787 522 773 522 l 871 522 q 845 359 870 438 q 774 213 820 281 l 983 0 z "},"@":{"ha":1165,"x_min":70,"x_max":1103,"o":"m 728 567 q 672 573 701 573 q 580 552 622 573 q 508 496 538 531 q 460 417 477 462 q 443 326 443 372 q 465 248 443 277 q 530 219 487 219 q 572 226 551 219 q 612 249 593 233 q 648 294 631 266 q 676 365 665 322 l 728 567 m 781 378 q 768 295 768 327 q 778 246 769 264 q 806 221 788 228 q 844 215 823 215 q 906 234 876 215 q 958 288 935 253 q 993 372 980 323 q 1006 478 1006 420 q 976 644 1006 573 q 893 763 946 716 q 767 834 840 810 q 610 858 695 858 q 438 823 518 858 q 298 726 357 788 q 204 580 238 665 q 169 397 169 496 q 206 192 169 281 q 307 43 243 103 q 456 -46 370 -16 q 641 -76 542 -76 q 827 -54 747 -76 q 964 2 908 -32 q 990 8 979 11 q 1007 -10 1001 4 l 1026 -60 q 856 -137 952 -108 q 641 -167 760 -167 q 415 -128 519 -167 q 234 -17 310 -90 q 114 160 157 56 q 70 397 70 265 q 89 542 70 472 q 143 674 108 613 q 227 785 178 735 q 336 872 276 836 q 465 928 396 908 q 610 948 535 948 q 737 934 675 948 q 853 892 799 919 q 954 825 908 865 q 1033 732 1000 785 q 1085 616 1066 680 q 1103 478 1103 553 q 1082 340 1103 403 q 1023 229 1060 276 q 934 155 985 182 q 824 128 883 128 q 737 153 772 128 q 692 231 702 178 q 605 154 651 177 q 503 131 558 131 q 431 145 462 131 q 378 185 399 160 q 348 246 358 211 q 338 322 338 281 q 360 441 338 381 q 427 550 383 501 q 539 629 472 599 q 694 660 606 660 q 778 652 742 660 q 847 631 814 644 l 781 378 z "},"©":{"ha":1153,"x_min":67,"x_max":1085,"o":"m 749 336 q 759 334 754 337 q 768 328 765 331 l 814 278 q 717 207 774 232 q 578 181 659 181 q 454 205 510 181 q 358 272 398 229 q 297 373 319 315 q 275 501 275 431 q 299 630 275 571 q 365 730 323 688 q 466 796 408 772 q 592 819 524 819 q 721 795 667 819 q 813 732 774 771 l 778 682 q 768 673 774 678 q 753 669 763 669 q 732 676 743 669 q 705 693 722 684 q 663 710 688 702 q 599 717 638 717 q 514 702 551 717 q 450 659 476 687 q 410 591 424 631 q 396 501 396 551 q 410 408 396 449 q 450 340 424 368 q 510 298 475 313 q 585 284 544 284 q 644 290 621 284 q 686 303 668 295 q 718 320 703 311 q 749 336 732 329 m 67 499 q 85 634 67 569 q 137 756 103 699 q 217 858 170 812 q 319 938 263 905 q 441 990 376 972 q 576 1008 506 1008 q 774 968 681 1008 q 936 859 867 928 q 1045 697 1005 790 q 1085 499 1085 604 q 1045 301 1085 393 q 936 139 1005 208 q 774 30 867 70 q 576 -10 681 -10 q 441 8 506 -10 q 319 60 376 26 q 217 139 263 93 q 137 242 170 185 q 85 364 103 299 q 67 499 67 428 m 143 499 q 158 381 143 438 q 201 275 174 324 q 269 186 229 226 q 356 118 308 147 q 460 74 404 90 q 576 58 515 58 q 692 74 636 58 q 797 118 748 90 q 885 186 845 147 q 952 275 924 226 q 996 381 981 324 q 1011 499 1011 437 q 996 617 1011 560 q 952 724 981 674 q 885 813 924 773 q 797 882 845 853 q 692 927 748 911 q 576 942 636 942 q 460 927 515 942 q 356 882 404 911 q 269 813 308 853 q 201 724 229 773 q 158 617 174 674 q 143 499 143 560 z "},"℗":{"ha":1153,"x_min":67,"x_max":1085,"o":"m 578 493 q 647 502 619 493 q 689 526 674 510 q 711 563 705 542 q 717 610 717 585 q 711 655 717 635 q 691 689 706 675 q 652 711 676 703 q 590 719 627 719 l 503 719 l 503 493 l 578 493 m 590 810 q 699 795 653 810 q 775 753 744 780 q 819 689 805 726 q 834 610 834 652 q 819 532 834 569 q 774 468 805 496 q 697 423 744 440 q 586 407 651 407 l 503 407 l 503 190 l 384 190 l 384 810 l 590 810 m 576 58 q 692 74 636 58 q 797 118 748 90 q 885 186 845 147 q 952 275 924 226 q 996 381 981 324 q 1011 499 1011 437 q 996 617 1011 560 q 952 724 981 674 q 885 813 924 773 q 797 882 845 853 q 692 927 748 911 q 576 942 636 942 q 460 927 515 942 q 356 882 404 911 q 269 813 308 853 q 201 724 229 773 q 158 617 174 674 q 143 499 143 560 q 158 381 143 438 q 201 275 174 324 q 269 186 229 226 q 356 118 308 147 q 460 74 404 90 q 576 58 515 58 m 576 1008 q 774 968 681 1008 q 936 859 867 928 q 1045 697 1005 790 q 1085 499 1085 604 q 1045 301 1085 393 q 936 139 1005 208 q 774 30 867 70 q 576 -10 681 -10 q 441 8 506 -10 q 319 60 376 26 q 217 139 263 93 q 137 242 170 185 q 85 364 103 299 q 67 499 67 428 q 85 634 67 569 q 137 756 103 699 q 217 858 170 812 q 319 938 263 905 q 441 990 376 972 q 576 1008 506 1008 z "},"®":{"ha":1153,"x_min":67,"x_max":1085,"o":"m 557 517 q 621 524 595 517 q 662 544 647 531 q 684 577 678 557 q 691 622 691 597 q 685 665 691 647 q 665 695 679 683 q 627 713 651 707 q 569 719 604 719 l 482 719 l 482 517 l 557 517 m 569 810 q 749 766 690 810 q 808 636 808 722 q 772 526 808 573 q 664 462 736 480 q 686 443 676 454 q 703 417 695 432 l 853 190 l 740 190 q 704 209 715 190 l 574 411 q 559 426 568 421 q 533 431 551 431 l 482 431 l 482 190 l 363 190 l 363 810 l 569 810 m 576 58 q 692 74 636 58 q 797 118 748 90 q 885 186 845 147 q 952 275 924 226 q 996 381 981 324 q 1011 499 1011 437 q 996 617 1011 560 q 952 724 981 674 q 885 813 924 773 q 797 882 845 853 q 692 927 748 911 q 576 942 636 942 q 460 927 515 942 q 356 882 404 911 q 269 813 308 853 q 201 724 229 773 q 158 617 174 674 q 143 499 143 560 q 158 381 143 438 q 201 275 174 324 q 269 186 229 226 q 356 118 308 147 q 460 74 404 90 q 576 58 515 58 m 576 1008 q 774 968 681 1008 q 936 859 867 928 q 1045 697 1005 790 q 1085 499 1085 604 q 1045 301 1085 393 q 936 139 1005 208 q 774 30 867 70 q 576 -10 681 -10 q 441 8 506 -10 q 319 60 376 26 q 217 139 263 93 q 137 242 170 185 q 85 364 103 299 q 67 499 67 428 q 85 634 67 569 q 137 756 103 699 q 217 858 170 812 q 319 938 263 905 q 441 990 376 972 q 576 1008 506 1008 z "},"™":{"ha":1044,"x_min":60,"x_max":940,"o":"m 60 997 l 400 997 l 400 918 l 278 918 l 278 585 l 183 585 l 183 918 l 60 918 l 60 997 m 940 997 l 940 585 l 856 585 l 856 826 l 863 883 l 741 656 q 727 640 736 645 q 708 635 719 635 l 694 635 q 662 656 671 635 l 540 882 l 546 826 l 546 585 l 463 585 l 463 997 l 543 997 q 561 995 556 997 q 575 983 567 992 l 685 781 q 701 740 694 763 q 708 761 704 751 q 717 781 712 771 l 828 983 q 841 995 835 992 q 859 997 847 997 l 940 997 z "},"℠":{"ha":1038,"x_min":85,"x_max":933,"o":"m 349 920 q 328 907 342 907 q 315 911 322 907 q 298 920 308 915 q 274 930 288 926 q 242 935 260 935 q 200 922 216 935 q 184 890 184 910 q 198 864 184 873 q 233 848 212 855 q 278 832 253 840 q 324 811 303 824 q 358 775 344 797 q 372 718 372 753 q 363 664 372 689 q 334 620 353 639 q 288 591 315 602 q 226 581 260 581 q 186 584 206 581 q 148 595 166 588 q 114 613 130 603 q 85 635 98 623 l 108 678 q 128 690 116 690 q 144 685 136 690 q 164 672 153 679 q 191 660 176 665 q 228 654 206 654 q 275 669 260 654 q 290 707 290 685 q 276 736 290 726 q 241 753 262 747 q 195 768 220 760 q 150 789 171 775 q 115 825 129 802 q 101 885 101 847 q 111 931 101 909 q 138 970 120 953 q 182 997 156 987 q 242 1007 208 1007 q 311 995 279 1007 q 366 963 344 983 l 349 920 m 933 997 l 933 585 l 850 585 l 850 826 l 856 883 l 734 656 q 701 635 724 635 l 688 635 q 668 640 677 635 q 655 656 660 645 l 533 881 l 540 826 l 540 585 l 456 585 l 456 997 l 536 997 q 555 995 549 997 q 568 983 560 992 l 679 781 q 687 761 683 771 q 694 741 691 751 q 701 761 697 751 q 710 781 705 771 l 821 983 q 834 995 828 992 q 852 997 840 997 l 933 997 z "},"°":{"ha":576,"x_min":58,"x_max":518,"o":"m 58 783 q 76 871 58 830 q 125 943 94 913 q 197 991 156 974 q 288 1009 239 1009 q 378 991 336 1009 q 451 943 420 974 q 500 871 483 913 q 518 783 518 830 q 500 695 518 736 q 451 623 483 653 q 378 574 420 592 q 288 556 336 556 q 197 574 239 556 q 125 623 156 592 q 76 695 94 653 q 58 783 58 736 m 154 782 q 164 729 154 753 q 192 686 174 704 q 235 658 210 668 q 288 647 259 647 q 341 658 316 647 q 383 686 365 668 q 411 729 401 704 q 422 782 422 753 q 411 835 422 810 q 383 878 401 860 q 341 907 365 897 q 288 917 316 917 q 235 907 259 917 q 192 878 210 897 q 164 835 174 860 q 154 782 154 810 z "},"¤":{"ha":806,"x_min":88,"x_max":717,"o":"m 253 467 q 265 409 253 436 q 297 362 277 383 q 345 330 317 342 q 403 318 372 318 q 461 330 434 318 q 509 362 489 342 q 542 409 530 383 q 553 467 553 436 q 542 525 553 498 q 509 573 530 553 q 461 606 489 594 q 403 617 434 617 q 345 606 372 617 q 297 573 317 594 q 265 525 277 553 q 253 467 253 498 m 649 154 l 544 260 q 478 228 513 240 q 403 217 442 217 q 329 227 364 217 q 265 258 294 238 l 158 152 l 90 222 l 195 326 q 164 392 175 356 q 153 467 153 427 q 164 540 153 506 q 194 605 174 575 l 88 711 l 157 779 l 262 674 q 328 706 292 694 q 403 717 363 717 q 476 707 442 717 q 541 676 511 696 l 647 782 l 715 713 l 610 608 q 642 542 631 578 q 653 467 653 506 q 643 394 653 428 q 613 329 632 359 l 717 224 l 649 154 z "},"€":{"ha":806,"x_min":17,"x_max":783,"o":"m 17 630 l 116 630 q 164 786 131 717 q 247 905 197 856 q 359 981 296 954 q 498 1007 423 1007 q 658 972 592 1007 q 773 875 725 936 l 726 823 q 715 811 721 816 q 697 806 708 806 q 673 819 685 806 q 639 847 660 832 q 586 875 618 863 q 503 888 554 888 q 343 823 407 888 q 256 630 278 757 l 628 630 l 628 588 q 618 563 628 574 q 590 552 608 552 l 247 552 q 246 526 247 539 q 246 499 246 513 q 246 478 246 488 q 247 459 246 469 l 563 459 l 563 417 q 553 392 563 403 q 524 381 542 381 l 253 381 q 337 177 273 245 q 497 108 401 108 q 560 115 533 108 q 608 133 588 122 q 642 156 628 144 q 667 180 656 169 q 686 197 678 190 q 704 204 695 204 q 716 202 711 204 q 726 194 720 200 l 783 140 q 661 29 734 69 q 490 -10 589 -10 q 344 17 409 -10 q 232 95 280 44 q 155 219 185 147 q 113 381 124 292 l 17 381 l 17 459 l 106 459 q 106 478 106 469 q 106 499 106 488 q 106 526 106 513 q 107 552 106 539 l 17 552 l 17 630 z "},"$":{"ha":806,"x_min":63,"x_max":735,"o":"m 428 106 q 561 162 515 115 q 607 284 607 210 q 595 340 607 317 q 562 382 583 364 q 513 412 541 399 q 453 435 485 424 l 428 106 m 401 890 q 325 872 357 885 q 273 840 294 859 q 243 795 253 820 q 233 743 233 770 q 244 688 233 712 q 275 647 256 665 q 322 616 295 629 q 379 592 349 603 l 401 890 m 462 565 q 561 531 512 549 q 649 484 610 513 q 711 413 688 456 q 735 306 735 370 q 714 188 735 243 q 653 90 693 132 q 554 21 613 47 q 420 -10 495 -6 l 412 -126 q 401 -151 411 -140 q 374 -162 390 -162 l 324 -162 l 335 -8 q 183 34 253 1 q 63 119 113 68 l 103 182 q 119 196 110 190 q 139 201 128 201 q 170 189 153 201 q 210 160 187 176 q 266 128 234 144 q 344 106 299 113 l 369 460 q 274 493 321 474 q 189 541 226 511 q 128 617 151 572 q 106 730 106 662 q 126 830 106 781 q 184 917 146 878 q 280 979 223 955 q 409 1006 336 1003 l 416 1103 q 427 1128 417 1117 q 453 1140 438 1140 l 503 1140 l 494 1003 q 620 964 567 993 q 713 895 673 935 l 681 845 q 647 822 666 822 q 623 831 637 822 q 589 850 608 839 q 543 872 569 860 q 485 888 517 883 l 462 565 z "},"¢":{"ha":806,"x_min":93,"x_max":717,"o":"m 431 611 q 342 588 381 607 q 278 535 304 568 q 240 456 253 501 q 227 353 227 410 q 271 182 227 246 q 394 100 315 117 l 431 611 m 717 100 q 609 23 674 49 q 471 -8 544 -3 l 463 -125 q 451 -150 461 -139 q 425 -161 441 -161 l 374 -161 l 385 -7 q 269 28 322 1 q 176 101 215 56 q 115 210 137 147 q 93 353 93 274 q 116 495 93 430 q 183 608 139 560 q 291 685 226 656 q 439 716 356 713 l 448 835 q 459 860 449 849 q 485 872 469 872 l 535 872 l 524 711 q 625 680 580 702 q 708 624 671 658 l 673 576 q 662 564 667 568 q 645 559 656 559 q 626 565 637 559 q 600 578 615 571 q 564 594 585 586 q 516 608 544 603 l 478 94 q 549 108 521 97 q 597 130 577 119 q 629 151 616 142 q 655 160 642 160 q 670 157 663 160 q 681 148 676 153 l 717 100 z "},"£":{"ha":806,"x_min":31,"x_max":774,"o":"m 31 468 q 43 501 31 488 q 78 515 56 515 l 166 515 l 166 692 q 185 815 166 757 q 242 915 204 872 q 339 983 281 958 q 474 1008 397 1008 q 570 994 528 1008 q 646 957 613 981 q 703 901 679 933 q 745 833 728 869 l 690 798 q 653 790 671 788 q 622 808 636 791 q 594 841 608 826 q 564 868 581 856 q 525 885 547 879 q 474 892 503 892 q 400 878 432 892 q 348 838 369 864 q 316 775 326 812 q 305 692 305 738 l 305 515 l 606 515 l 606 460 q 594 435 606 447 q 567 424 583 424 l 305 424 l 305 265 q 286 177 305 215 q 234 108 267 139 q 319 117 277 117 l 774 117 l 774 60 q 769 39 774 49 q 757 19 765 28 q 739 6 749 11 q 715 0 728 0 l 46 0 l 46 88 q 91 106 69 94 q 130 134 113 117 q 156 174 147 151 q 166 228 166 197 l 166 424 l 31 424 l 31 468 z "},"¥":{"ha":806,"x_min":28,"x_max":778,"o":"m 496 435 l 703 435 l 703 358 l 471 358 l 471 287 l 703 287 l 703 209 l 471 209 l 471 0 l 335 0 l 335 209 l 102 209 l 102 287 l 335 287 l 335 358 l 102 358 l 102 435 l 310 435 l 28 997 l 141 997 q 173 988 160 997 q 192 963 185 979 l 374 585 q 391 538 384 560 q 404 494 399 516 q 416 538 409 516 q 433 585 423 560 l 614 963 q 632 987 619 976 q 664 997 645 997 l 778 997 l 496 435 z "},"℅":{"ha":1162,"x_min":39,"x_max":1128,"o":"m 855 975 q 872 991 863 984 q 900 997 882 997 l 998 997 l 266 22 q 248 6 259 12 q 224 0 238 0 l 123 0 l 855 975 m 415 624 q 428 618 422 624 l 470 572 q 393 512 439 533 q 285 492 348 492 q 182 511 228 492 q 105 565 137 531 q 56 648 73 600 q 39 751 39 695 q 57 856 39 808 q 109 939 76 904 q 189 993 142 974 q 291 1012 235 1012 q 391 993 347 1012 q 463 944 434 974 l 428 895 q 420 887 425 890 q 408 883 416 883 q 391 889 399 883 q 369 902 382 895 q 338 916 357 910 q 290 922 319 922 q 232 910 258 922 q 186 877 205 899 q 156 824 167 856 q 145 751 145 792 q 157 680 145 711 q 188 626 168 648 q 234 593 208 605 q 292 582 261 582 q 324 584 310 582 q 351 590 339 585 q 375 600 364 594 q 397 617 385 607 q 405 622 401 620 q 415 624 409 624 m 1128 249 q 1110 146 1128 193 q 1057 64 1091 99 q 974 9 1022 28 q 868 -11 926 -11 q 762 9 810 -11 q 680 64 714 28 q 626 146 645 99 q 608 249 608 193 q 626 352 608 304 q 680 434 645 399 q 762 489 714 469 q 868 509 810 509 q 974 489 926 509 q 1057 434 1022 469 q 1110 352 1091 399 q 1128 249 1128 304 m 1022 249 q 1011 320 1022 288 q 980 373 1000 351 q 932 407 960 395 q 868 419 903 419 q 804 407 833 419 q 756 373 776 395 q 725 320 736 351 q 715 249 715 288 q 756 125 715 169 q 868 80 797 80 q 981 125 940 80 q 1022 249 1022 169 z "},"№":{"ha":1615,"x_min":140,"x_max":1544,"o":"m 827 997 l 956 997 l 956 0 l 881 0 q 852 6 864 0 q 829 26 841 13 l 266 755 q 268 718 267 736 q 269 684 269 700 l 269 0 l 140 0 l 140 997 l 216 997 q 245 993 235 997 q 267 972 255 988 l 831 243 q 828 282 829 263 q 827 318 827 301 l 827 997 m 1314 918 q 1223 882 1256 918 q 1190 781 1190 846 q 1223 680 1190 716 q 1314 644 1256 644 q 1405 680 1372 644 q 1438 781 1438 716 q 1405 882 1438 846 q 1314 918 1372 918 m 1315 551 q 1221 568 1263 551 q 1148 617 1178 586 q 1102 689 1118 647 q 1085 780 1085 731 q 1102 870 1085 828 q 1148 943 1118 913 q 1221 992 1178 974 q 1315 1009 1263 1009 q 1408 991 1366 1009 q 1481 943 1451 974 q 1528 870 1511 913 q 1544 780 1544 828 q 1528 689 1544 731 q 1481 617 1511 647 q 1408 568 1451 586 q 1315 551 1366 551 m 1087 467 l 1540 467 l 1540 369 l 1087 369 l 1087 467 z "},"#":{"ha":806,"x_min":33,"x_max":774,"o":"m 502 608 l 338 608 l 295 391 l 459 391 l 502 608 m 774 708 l 763 650 q 746 618 760 628 q 703 608 732 608 l 614 608 l 571 391 l 689 391 q 720 378 710 391 q 724 335 729 365 l 718 291 l 556 291 l 499 0 l 438 0 q 420 5 428 0 q 406 17 411 9 q 398 35 400 25 q 398 58 395 46 l 444 291 l 281 291 l 234 51 q 211 12 228 24 q 172 0 194 0 l 112 0 l 169 291 l 73 291 q 42 303 52 291 q 38 347 33 316 l 44 391 l 183 391 l 226 608 l 68 608 l 78 665 q 95 697 81 687 q 138 708 109 708 l 240 708 l 288 949 q 309 984 292 972 q 348 997 326 997 l 409 997 l 352 708 l 517 708 l 573 997 l 633 997 q 668 983 656 997 q 676 947 681 969 l 628 708 l 774 708 z "},"₀":{"ha":464,"x_min":40,"x_max":424,"o":"m 424 97 q 408 -18 424 31 q 367 -99 393 -67 q 306 -147 341 -131 q 231 -162 271 -162 q 156 -147 191 -162 q 96 -99 122 -131 q 55 -18 70 -67 q 40 97 40 31 q 55 213 40 164 q 96 294 70 262 q 156 341 122 326 q 231 357 191 357 q 306 341 271 357 q 367 294 341 326 q 408 213 393 262 q 424 97 424 164 m 324 97 q 317 186 324 151 q 298 241 310 221 q 268 269 285 262 q 231 277 251 277 q 194 269 210 277 q 165 241 177 262 q 146 186 153 221 q 139 97 139 151 q 146 9 139 44 q 166 -47 153 -26 q 195 -75 178 -67 q 231 -83 212 -83 q 266 -75 249 -83 q 296 -47 283 -67 q 317 9 309 -26 q 324 97 324 44 z "},"₁":{"ha":464,"x_min":69,"x_max":394,"o":"m 394 -92 l 394 -157 l 108 -157 l 108 -92 l 209 -92 l 209 198 l 213 230 l 142 174 q 117 167 129 163 q 99 178 104 171 l 69 219 l 225 353 l 307 353 l 307 -92 l 394 -92 z "},"₂":{"ha":464,"x_min":49,"x_max":409,"o":"m 376 -67 q 401 -75 392 -67 q 409 -99 409 -84 l 409 -157 l 49 -157 l 49 -124 q 52 -104 49 -115 q 65 -84 56 -94 l 217 65 q 275 135 251 99 q 298 208 298 172 q 279 259 298 241 q 231 277 260 277 q 182 261 201 277 q 155 219 164 246 q 138 200 147 206 q 108 199 128 195 l 54 208 q 75 273 59 245 q 114 320 90 301 q 168 348 138 338 q 235 357 199 357 q 303 346 273 357 q 353 316 333 335 q 386 270 374 297 q 397 211 397 243 q 389 159 397 183 q 365 114 380 135 q 332 72 351 92 q 293 31 313 51 l 188 -77 q 221 -69 204 -72 q 252 -67 238 -67 l 376 -67 z "},"₃":{"ha":464,"x_min":46,"x_max":405,"o":"m 60 208 q 81 273 65 245 q 119 320 97 301 q 172 348 142 338 q 236 357 202 357 q 301 347 272 357 q 351 318 331 336 q 383 277 372 301 q 394 226 394 253 q 315 106 394 137 q 405 -3 405 79 q 390 -73 405 -43 q 351 -123 375 -103 q 294 -152 326 -142 q 229 -162 263 -162 q 161 -154 190 -162 q 110 -129 132 -146 q 73 -87 88 -112 q 46 -27 57 -62 l 88 -9 q 119 -6 105 -2 q 140 -22 134 -9 q 149 -39 143 -28 q 164 -58 154 -49 q 188 -74 174 -67 q 224 -81 203 -81 q 259 -74 244 -81 q 285 -58 274 -68 q 300 -35 295 -48 q 306 -8 306 -22 q 300 27 306 13 q 281 50 294 41 q 247 64 268 60 q 193 68 225 68 l 193 134 q 276 154 253 135 q 300 208 300 174 q 281 258 300 241 q 231 275 263 275 q 182 260 200 275 q 155 219 163 245 q 139 200 147 205 q 111 199 131 195 l 60 208 z "},"₄":{"ha":464,"x_min":22,"x_max":426,"o":"m 271 31 l 271 185 q 275 251 271 215 l 114 31 l 271 31 m 426 31 l 426 -19 q 421 -32 426 -26 q 406 -37 416 -37 l 353 -37 l 353 -157 l 271 -157 l 271 -37 l 61 -37 q 40 -32 47 -37 q 30 -17 32 -26 l 22 26 l 259 351 l 353 351 l 353 31 l 426 31 z "},"₅":{"ha":464,"x_min":55,"x_max":398,"o":"m 176 165 q 235 171 206 171 q 306 160 275 171 q 357 128 336 149 q 388 81 377 108 q 398 20 398 53 q 384 -54 398 -21 q 344 -112 369 -87 q 283 -149 318 -136 q 207 -162 249 -162 q 120 -144 159 -162 q 55 -100 81 -125 l 84 -58 q 109 -45 94 -45 q 127 -51 118 -45 q 148 -62 137 -56 q 175 -74 160 -69 q 213 -80 190 -80 q 245 -75 230 -80 q 273 -58 261 -69 q 293 -31 285 -47 q 300 9 300 -14 q 278 70 300 49 q 215 92 256 92 q 178 88 197 92 q 142 78 160 83 l 82 94 l 126 351 l 381 351 l 381 310 q 368 277 381 290 q 324 263 355 263 l 192 263 l 176 165 z "},"₆":{"ha":464,"x_min":54,"x_max":415,"o":"m 235 -87 q 271 -80 255 -87 q 299 -62 287 -74 q 317 -35 310 -51 q 324 -1 324 -19 q 301 64 324 41 q 240 87 279 87 q 202 80 219 87 q 174 62 185 74 q 157 34 163 50 q 151 0 151 18 q 173 -62 151 -38 q 235 -87 196 -87 m 236 192 q 206 158 222 174 q 174 125 190 142 q 218 150 194 140 q 269 159 242 159 q 322 150 296 159 q 368 124 348 142 q 402 77 389 106 q 415 10 415 49 q 401 -57 415 -25 q 364 -111 388 -88 q 307 -149 340 -135 q 233 -162 274 -162 q 158 -149 191 -162 q 102 -112 125 -136 q 66 -55 78 -88 q 54 18 54 -22 q 114 171 54 92 l 232 329 q 252 345 238 339 q 283 351 265 351 l 368 351 l 236 192 z "},"₇":{"ha":464,"x_min":59,"x_max":413,"o":"m 413 351 l 413 299 q 411 281 413 290 q 405 265 408 273 l 215 -124 q 209 -136 213 -130 q 201 -147 206 -142 q 188 -154 196 -151 q 169 -157 181 -157 l 94 -157 l 285 215 q 313 260 299 242 l 81 260 q 66 268 73 260 q 59 283 59 275 l 59 351 l 413 351 z "},"₈":{"ha":464,"x_min":53,"x_max":410,"o":"m 232 -87 q 292 -65 273 -87 q 312 -10 312 -44 q 306 26 312 11 q 289 50 300 40 q 264 63 278 59 q 232 67 249 67 q 175 50 198 67 q 153 -10 153 32 q 172 -65 153 -44 q 232 -87 192 -87 m 232 284 q 201 278 214 284 q 179 264 188 273 q 166 243 170 255 q 162 218 162 231 q 178 164 162 183 q 232 144 195 144 q 286 164 269 144 q 304 218 304 183 q 300 243 304 231 q 286 264 295 255 q 264 278 277 273 q 232 284 250 284 m 323 108 q 390 61 369 92 q 410 -12 410 31 q 398 -74 410 -47 q 361 -122 385 -102 q 305 -152 338 -141 q 232 -162 272 -162 q 159 -152 192 -162 q 103 -122 126 -141 q 67 -74 80 -102 q 53 -12 53 -47 q 74 61 53 31 q 141 108 95 92 q 88 152 106 124 q 71 219 71 181 q 83 274 71 249 q 116 318 94 299 q 167 347 138 336 q 232 357 197 357 q 297 347 267 357 q 348 318 327 336 q 381 274 369 299 q 393 219 393 249 q 376 152 393 181 q 323 108 358 124 z "},"₉":{"ha":464,"x_min":56,"x_max":402,"o":"m 149 202 q 170 142 149 162 q 230 122 191 122 q 291 144 269 122 q 313 201 313 166 q 290 260 313 239 q 233 282 267 282 q 172 260 194 282 q 149 202 149 239 m 233 19 q 254 44 243 33 q 274 68 265 56 q 201 51 242 51 q 148 61 174 51 q 101 90 122 71 q 68 135 81 108 q 56 197 56 162 q 68 256 56 227 q 104 307 81 285 q 159 343 127 330 q 231 357 192 357 q 302 345 271 357 q 356 313 334 334 q 390 261 378 291 q 402 194 402 231 q 398 144 402 167 q 384 99 393 121 q 363 56 376 77 q 335 12 351 35 l 233 -135 q 213 -151 226 -144 q 183 -157 199 -157 l 95 -157 l 233 19 z "},"₊":{"ha":464,"x_min":60,"x_max":403,"o":"m 403 50 l 270 50 l 270 -92 l 193 -92 l 193 50 l 60 50 l 60 123 l 193 123 l 193 263 l 270 263 l 270 123 l 403 123 l 403 50 z "},"₋":{"ha":464,"x_min":75,"x_max":389,"o":"m 75 123 l 389 123 l 389 50 l 75 50 l 75 123 z "},"₌":{"ha":464,"x_min":75,"x_max":389,"o":"m 75 60 l 389 60 l 389 -12 l 75 -12 l 75 60 m 75 185 l 389 185 l 389 114 l 75 114 l 75 185 z "},"₍":{"ha":232,"x_min":41,"x_max":197,"o":"m 124 90 q 141 -50 124 19 q 188 -179 158 -119 q 192 -203 197 -195 q 180 -217 188 -212 l 138 -244 q 63 -82 85 -164 q 41 90 41 1 q 64 262 41 179 q 138 424 86 344 l 180 398 q 192 384 188 392 q 188 360 197 376 q 141 230 158 299 q 124 90 124 161 z "},"₎":{"ha":232,"x_min":35,"x_max":192,"o":"m 108 90 q 92 230 108 161 q 44 360 75 299 q 40 384 35 376 q 53 398 44 392 l 96 424 q 169 262 147 344 q 192 90 192 180 q 169 -82 192 1 q 96 -244 147 -164 l 53 -217 q 40 -203 44 -212 q 44 -179 35 -195 q 92 -50 75 -119 q 108 90 108 19 z "},"⁄":{"ha":194,"x_min":-253,"x_max":448,"o":"m -126 40 q -157 8 -140 17 q -196 0 -174 0 l -253 0 l 317 951 q 348 985 331 974 q 390 997 365 997 l 448 997 l -126 40 z "},"⅔":{"ha":1032,"x_min":65,"x_max":970,"o":"m 320 40 q 290 8 306 17 q 251 0 273 0 l 193 0 l 764 951 q 795 985 778 974 q 836 997 812 997 l 894 997 l 320 40 m 393 579 q 417 570 409 579 q 426 547 426 562 l 426 489 l 65 489 l 65 522 q 69 542 65 531 q 82 562 73 552 l 233 711 q 291 781 268 744 q 315 853 315 818 q 295 905 315 887 q 247 923 276 923 q 199 907 217 923 q 172 865 181 892 q 155 846 164 851 q 125 844 145 841 l 71 853 q 91 919 76 891 q 131 966 107 947 q 185 993 154 984 q 252 1003 216 1003 q 319 992 290 1003 q 370 962 349 981 q 402 916 391 943 q 414 857 414 889 q 405 805 414 829 q 382 760 397 781 q 349 718 367 738 q 310 676 330 697 l 204 569 q 238 576 221 574 q 269 579 254 579 l 393 579 m 626 365 q 646 430 631 402 q 685 477 662 458 q 738 505 708 495 q 801 514 767 514 q 867 503 838 514 q 917 475 896 493 q 949 434 938 458 q 960 383 960 410 q 880 263 960 294 q 970 153 970 236 q 955 84 970 114 q 916 34 940 54 q 860 5 892 15 q 794 -6 828 -6 q 726 3 756 -6 q 675 28 697 11 q 638 70 653 44 q 611 130 622 95 l 653 148 q 685 151 670 155 q 705 135 699 148 q 714 118 708 128 q 729 99 719 108 q 753 83 739 90 q 790 76 768 76 q 824 83 809 76 q 850 99 840 89 q 866 122 860 109 q 871 149 871 135 q 865 184 871 169 q 847 207 860 198 q 812 221 833 217 q 758 225 790 225 l 758 291 q 842 311 818 292 q 865 365 865 331 q 847 415 865 398 q 797 432 828 432 q 747 417 765 432 q 720 376 728 402 q 704 357 713 362 q 676 356 696 352 l 626 365 z "},"⅖":{"ha":1013,"x_min":64,"x_max":945,"o":"m 319 40 q 288 8 305 17 q 249 0 272 0 l 192 0 l 763 951 q 793 985 776 974 q 835 997 810 997 l 893 997 l 319 40 m 392 579 q 416 570 408 579 q 424 547 424 562 l 424 489 l 64 489 l 64 522 q 68 542 64 531 q 81 562 72 552 l 232 711 q 290 781 267 744 q 313 853 313 818 q 294 905 313 887 q 246 923 275 923 q 198 907 216 923 q 170 865 179 892 q 153 846 163 851 q 124 844 144 841 l 69 853 q 90 919 74 891 q 129 966 106 947 q 184 993 153 984 q 251 1003 215 1003 q 318 992 288 1003 q 369 962 348 981 q 401 916 390 943 q 413 857 413 889 q 404 805 413 829 q 381 760 395 781 q 347 718 366 738 q 308 676 328 697 l 203 569 q 236 576 219 574 q 267 579 253 579 l 392 579 m 723 322 q 782 328 753 328 q 853 317 822 328 q 904 285 883 306 q 935 238 924 265 q 945 177 945 210 q 931 103 945 136 q 891 45 917 69 q 831 8 865 21 q 754 -6 796 -6 q 667 13 706 -6 q 602 57 628 32 l 631 99 q 656 112 642 112 q 675 106 665 112 q 695 94 684 101 q 722 83 707 88 q 760 77 738 77 q 793 82 777 77 q 820 99 808 88 q 840 126 833 110 q 847 166 847 143 q 825 227 847 206 q 762 249 803 249 q 725 244 744 249 q 689 235 707 240 l 629 251 l 673 508 l 928 508 l 928 467 q 915 434 928 447 q 872 420 902 420 l 740 420 l 723 322 z "},"+":{"ha":806,"x_min":69,"x_max":738,"o":"m 738 415 l 458 415 l 458 119 l 347 119 l 347 415 l 69 415 l 69 517 l 347 517 l 347 811 l 458 811 l 458 517 l 738 517 l 738 415 z "},"−":{"ha":806,"x_min":102,"x_max":703,"o":"m 102 517 l 703 517 l 703 415 l 102 415 l 102 517 z "},"×":{"ha":806,"x_min":87,"x_max":719,"o":"m 647 150 l 404 394 l 159 149 l 87 222 l 331 466 l 95 702 l 167 775 l 403 538 l 639 774 l 711 701 l 476 466 l 719 223 l 647 150 z "},"÷":{"ha":806,"x_min":68,"x_max":737,"o":"m 68 517 l 737 517 l 737 415 l 68 415 l 68 517 m 310 713 q 317 749 310 732 q 337 778 324 765 q 366 798 349 790 q 402 805 383 805 q 438 798 421 805 q 467 778 454 790 q 486 749 479 765 q 494 713 494 732 q 486 676 494 693 q 467 648 479 660 q 438 628 454 635 q 402 622 421 622 q 366 628 383 622 q 337 648 349 635 q 317 676 324 660 q 310 713 310 693 m 310 218 q 317 254 310 238 q 337 283 324 271 q 366 303 349 296 q 402 310 383 310 q 438 303 421 310 q 467 283 454 296 q 486 254 479 271 q 494 218 494 238 q 486 182 494 199 q 467 153 479 165 q 438 134 454 141 q 402 127 421 127 q 366 134 383 127 q 337 153 349 141 q 317 182 324 165 q 310 218 310 199 z "},"=":{"ha":806,"x_min":102,"x_max":703,"o":"m 102 401 l 703 401 l 703 298 l 102 298 l 102 401 m 102 637 l 703 637 l 703 534 l 102 534 l 102 637 z "},"≠":{"ha":806,"x_min":103,"x_max":704,"o":"m 494 534 l 430 401 l 704 401 l 704 298 l 381 298 l 299 126 l 201 126 l 283 298 l 103 298 l 103 401 l 332 401 l 396 534 l 103 534 l 103 637 l 444 637 l 523 801 l 621 801 l 542 637 l 704 637 l 704 534 l 494 534 z "},"≈":{"ha":806,"x_min":118,"x_max":686,"o":"m 547 603 q 587 608 567 603 q 622 620 606 613 q 650 635 638 627 q 668 651 663 644 l 686 564 q 622 515 662 531 q 538 499 581 499 q 466 510 502 499 q 395 534 430 521 q 327 559 360 548 q 263 571 294 571 q 222 566 242 571 q 186 554 202 561 q 158 538 169 547 q 140 522 146 529 l 118 605 q 184 658 143 641 q 271 676 225 676 q 344 664 308 676 q 415 639 381 653 q 483 614 450 626 q 547 603 516 603 m 547 365 q 587 369 567 365 q 622 382 606 374 q 650 397 638 389 q 668 413 663 406 l 686 326 q 622 276 662 292 q 538 260 581 260 q 466 272 502 260 q 395 296 430 283 q 327 321 360 310 q 263 333 294 333 q 222 328 242 333 q 186 316 202 323 q 158 300 169 308 q 140 283 146 291 l 118 367 q 184 420 143 403 q 271 438 225 438 q 344 426 308 438 q 415 401 381 415 q 483 376 450 388 q 547 365 516 365 z "},"<":{"ha":806,"x_min":110,"x_max":651,"o":"m 328 490 q 263 467 299 476 q 328 444 299 459 l 625 294 q 645 277 639 287 q 651 256 651 267 l 651 158 l 110 440 l 110 495 l 651 776 l 651 679 q 645 658 651 667 q 625 640 639 648 l 328 490 z "},">":{"ha":806,"x_min":155,"x_max":695,"o":"m 695 495 l 695 440 l 155 158 l 155 256 q 161 277 155 267 q 181 294 167 287 l 478 444 q 542 467 506 459 q 478 490 506 476 l 181 640 q 161 658 167 648 q 155 679 155 667 l 155 776 l 695 495 z "},"±":{"ha":806,"x_min":69,"x_max":737,"o":"m 69 158 l 737 158 l 737 56 l 69 56 l 69 158 m 737 585 l 737 482 l 458 482 l 458 231 l 347 231 l 347 482 l 69 482 l 69 585 l 347 585 l 347 842 l 458 842 l 458 585 l 737 585 z "},"≤":{"ha":806,"x_min":126,"x_max":667,"o":"m 126 158 l 667 158 l 667 56 l 126 56 l 126 158 m 344 551 q 274 531 310 539 q 310 521 293 526 q 344 509 328 516 l 635 373 q 660 354 654 365 q 667 332 667 344 l 667 238 l 126 502 l 126 558 l 667 820 l 667 727 q 660 705 667 715 q 635 686 654 694 l 344 551 z "},"≥":{"ha":806,"x_min":139,"x_max":679,"o":"m 139 158 l 679 158 l 679 56 l 139 56 l 139 158 m 679 558 l 679 502 l 139 238 l 139 332 q 145 354 139 344 q 171 373 151 365 l 462 509 q 495 521 478 516 q 532 531 513 526 q 462 551 495 539 l 171 686 q 145 705 151 694 q 139 727 139 715 l 139 820 l 679 558 z "},"¬":{"ha":806,"x_min":100,"x_max":702,"o":"m 702 215 l 587 215 l 587 415 l 100 415 l 100 517 l 702 517 l 702 215 z "},"℮":{"ha":1144,"x_min":72,"x_max":1084,"o":"m 903 613 q 882 736 903 679 q 819 833 860 792 q 719 898 778 874 q 589 921 661 921 q 459 897 518 921 q 357 830 400 873 q 291 729 315 788 q 267 602 267 671 l 267 590 l 903 590 l 903 613 m 267 412 q 292 287 267 347 q 363 181 317 227 q 475 107 409 135 q 625 79 542 79 q 813 120 731 79 q 958 246 895 160 l 1031 192 q 955 106 998 144 q 859 42 913 68 q 740 1 806 15 q 595 -12 674 -12 q 378 26 475 -12 q 213 133 281 65 q 108 294 145 201 q 72 494 72 387 q 109 696 72 603 q 215 859 147 790 q 376 967 283 928 q 583 1007 470 1007 q 796 966 703 1007 q 951 857 888 926 q 1048 696 1015 788 q 1084 504 1081 605 l 267 504 l 267 412 z "},"ℓ":{"ha":759,"x_min":43,"x_max":733,"o":"m 546 905 q 465 874 506 905 q 390 788 425 842 q 328 659 355 733 q 288 501 301 585 q 422 565 361 530 q 526 640 483 600 q 594 724 570 680 q 618 814 618 767 q 599 881 618 858 q 546 905 579 905 m 43 431 q 100 443 72 437 q 156 458 128 450 q 183 600 164 531 q 230 730 202 669 q 294 842 258 791 q 373 931 330 894 q 464 989 415 968 q 565 1009 513 1009 q 640 994 608 1009 q 692 954 672 979 q 723 894 713 928 q 733 821 733 860 q 701 691 733 752 q 609 576 668 629 q 466 479 549 524 q 279 400 382 435 q 278 384 278 392 q 278 369 278 376 q 285 241 278 292 q 304 159 292 190 q 335 116 317 128 q 377 103 353 103 q 426 115 402 103 q 472 149 450 127 q 513 200 494 170 q 547 267 532 231 l 659 239 q 611 142 642 187 q 541 63 581 97 q 452 9 501 28 q 349 -10 403 -10 q 266 8 303 -10 q 203 69 229 27 q 163 180 177 111 q 149 347 149 248 l 149 361 q 105 350 127 356 q 60 340 83 345 l 43 431 z "},"∞":{"ha":1022,"x_min":73,"x_max":949,"o":"m 725 283 q 770 291 749 283 q 807 315 791 299 q 832 354 822 331 q 841 410 841 378 q 832 466 841 442 q 806 506 822 490 q 769 530 790 522 q 725 538 749 538 q 680 527 701 538 q 641 500 660 517 q 606 459 623 483 q 573 410 590 436 q 606 361 590 384 q 641 321 623 338 q 680 293 660 303 q 725 283 701 283 m 297 283 q 342 293 322 283 q 381 321 363 303 q 416 361 399 338 q 449 410 433 384 q 416 459 433 436 q 381 500 399 483 q 342 527 363 517 q 297 538 322 538 q 252 530 274 538 q 215 506 231 522 q 190 466 199 490 q 181 410 181 442 q 190 354 181 378 q 215 315 199 331 q 252 291 231 299 q 297 283 274 283 m 730 649 q 814 631 774 649 q 883 583 853 614 q 931 508 913 551 q 949 410 949 464 q 931 313 949 357 q 883 238 913 269 q 814 190 853 207 q 730 172 774 172 q 660 184 692 172 q 602 215 628 195 q 553 260 575 234 q 511 315 531 286 q 469 260 491 286 q 420 215 447 234 q 362 184 394 195 q 292 172 330 172 q 208 190 248 172 q 139 238 169 207 q 91 313 108 269 q 73 410 73 357 q 91 508 73 464 q 139 583 108 551 q 208 631 169 614 q 292 649 248 649 q 362 637 330 649 q 420 606 394 626 q 469 561 447 587 q 511 506 491 535 q 553 561 531 535 q 602 606 575 587 q 660 637 628 626 q 730 649 692 649 z "},"∂":{"ha":803,"x_min":56,"x_max":747,"o":"m 350 97 q 433 115 394 97 q 505 171 472 133 q 561 266 538 208 q 599 402 585 324 q 580 459 592 431 q 546 507 567 486 q 496 541 525 528 q 428 554 467 554 q 328 534 372 554 q 256 477 285 513 q 211 390 226 440 q 197 281 197 340 q 238 145 197 193 q 350 97 279 97 m 231 928 q 284 963 258 948 q 339 987 310 977 q 397 1002 367 997 q 465 1008 428 1008 q 580 982 528 1008 q 669 907 632 956 q 726 788 706 858 q 747 628 747 717 q 721 369 747 487 q 644 168 695 252 q 515 37 592 83 q 334 -10 438 -10 q 222 10 273 -10 q 134 68 171 31 q 77 159 97 106 q 56 278 56 212 q 83 429 56 359 q 157 550 110 499 q 270 632 205 602 q 413 661 336 661 q 537 632 485 661 q 623 548 590 603 q 624 591 624 570 q 624 628 624 612 q 612 745 624 694 q 576 830 599 796 q 520 881 553 864 q 447 899 488 899 q 394 892 418 899 q 350 876 369 885 q 315 860 330 867 q 291 853 301 853 q 276 858 283 853 q 260 876 268 863 l 231 928 z "},"∫":{"ha":701,"x_min":3,"x_max":698,"o":"m 331 862 q 363 984 340 933 q 420 1068 385 1035 q 500 1117 455 1101 q 599 1133 545 1133 q 649 1128 623 1133 q 698 1112 676 1124 l 690 1054 q 686 1041 689 1046 q 676 1033 683 1035 q 658 1030 669 1031 q 630 1028 647 1028 q 559 1019 589 1028 q 510 991 530 1010 q 477 941 490 972 q 460 866 465 910 l 370 30 q 339 -92 362 -41 q 281 -176 316 -143 q 201 -225 246 -210 q 102 -241 156 -241 q 51 -236 78 -241 q 3 -220 25 -232 l 10 -162 q 16 -149 13 -154 q 25 -141 19 -144 q 43 -138 32 -139 q 72 -137 54 -137 q 141 -128 112 -137 q 191 -99 171 -119 q 224 -49 212 -80 q 241 26 235 -18 l 331 862 z "},"√":{"ha":867,"x_min":28,"x_max":860,"o":"m 860 1188 l 476 0 l 362 0 l 192 456 l 81 456 q 44 469 60 456 q 28 513 28 481 l 28 556 l 264 556 q 291 548 281 556 q 306 528 302 540 l 401 262 q 414 213 408 238 q 422 163 419 188 q 430 203 426 183 q 440 245 435 223 l 733 1160 q 747 1180 736 1172 q 772 1188 758 1188 l 860 1188 z "},"∏":{"ha":965,"x_min":49,"x_max":917,"o":"m 917 881 l 790 881 l 790 -237 l 650 -237 l 650 881 l 315 881 l 315 -237 l 175 -237 l 175 881 l 49 881 l 49 997 l 917 997 l 917 881 z "},"∑":{"ha":949,"x_min":51,"x_max":885,"o":"m 885 881 l 262 881 l 649 400 l 649 360 l 262 -121 l 885 -121 l 885 -237 l 51 -237 l 51 -188 q 54 -167 51 -178 q 65 -146 58 -156 l 497 382 l 65 906 q 54 927 58 916 q 51 949 51 939 l 51 997 l 885 997 l 885 881 z "},"◊":{"ha":806,"x_min":69,"x_max":736,"o":"m 606 490 l 433 844 q 415 889 422 867 q 403 935 408 911 q 374 846 394 889 l 203 490 l 371 143 q 390 94 383 118 q 403 45 397 69 q 416 94 408 69 q 436 142 424 118 l 606 490 m 736 490 l 450 -78 l 356 -78 l 69 490 l 356 1058 l 450 1058 l 736 490 z "},"←":{"ha":1389,"x_min":73,"x_max":1308,"o":"m 73 447 l 472 846 l 518 797 q 530 767 533 782 q 513 738 527 752 l 328 554 q 265 498 293 519 q 344 506 303 503 q 429 508 385 508 l 1308 508 l 1308 385 l 429 385 q 344 388 385 385 q 265 395 303 390 q 295 370 279 383 q 328 339 310 356 l 515 153 q 531 125 528 140 q 519 94 534 110 l 473 46 l 73 447 z "},"→":{"ha":1389,"x_min":81,"x_max":1316,"o":"m 1316 446 l 917 47 l 871 96 q 859 126 856 111 q 876 155 862 141 l 1060 339 q 1123 395 1094 373 q 1044 388 1085 390 q 960 385 1003 385 l 81 385 l 81 508 l 960 508 q 1045 506 1003 508 q 1124 497 1086 503 q 1060 554 1095 520 l 874 740 q 858 768 860 753 q 869 799 855 783 l 916 847 l 1316 446 z "},"↑":{"ha":1042,"x_min":121,"x_max":920,"o":"m 920 680 l 872 633 q 842 621 857 618 q 813 638 827 624 l 628 822 q 572 885 593 858 q 580 806 577 848 q 583 721 583 765 l 583 -157 l 460 -157 l 460 721 q 463 807 460 765 q 470 886 465 849 q 445 856 459 872 q 414 822 431 840 l 228 637 q 199 620 214 623 q 169 632 184 617 l 121 679 l 522 1079 l 920 680 z "},"↓":{"ha":1042,"x_min":122,"x_max":921,"o":"m 921 162 l 520 -239 l 122 160 l 169 208 q 200 219 185 222 q 228 203 215 217 l 413 18 q 469 -44 447 -17 q 462 35 465 -7 q 459 120 459 76 l 459 997 l 582 997 l 582 120 q 579 34 582 76 q 572 -46 576 -8 q 597 -16 583 -31 q 628 18 610 0 l 814 204 q 843 221 828 218 q 873 209 858 224 l 921 162 z "},"↗":{"ha":1042,"x_min":31,"x_max":949,"o":"m 949 909 l 949 344 l 881 346 q 852 359 860 346 q 843 390 843 372 l 843 651 q 847 735 843 699 q 740 612 801 674 l 118 -8 l 31 78 l 653 699 q 716 758 684 731 q 777 809 747 785 q 738 805 759 806 q 692 803 717 803 l 428 803 q 396 812 408 803 q 383 842 383 820 l 382 909 l 949 909 z "},"↖":{"ha":1042,"x_min":93,"x_max":1010,"o":"m 1010 78 l 924 -8 l 302 612 q 194 735 240 674 q 199 651 199 699 l 199 390 q 190 359 199 372 q 160 346 181 346 l 93 344 l 93 909 l 660 909 l 658 842 q 646 812 658 820 q 614 803 633 803 l 350 803 q 304 805 325 803 q 265 809 283 806 q 326 758 294 785 q 389 699 358 731 l 1010 78 z "},"↘":{"ha":1042,"x_min":31,"x_max":949,"o":"m 949 565 l 949 1 l 382 0 l 383 68 q 396 98 383 89 q 428 106 408 106 l 692 106 q 738 104 717 106 q 777 101 759 103 q 716 151 747 124 q 653 210 684 178 l 31 831 l 118 918 l 740 297 q 847 174 801 235 q 843 258 843 210 l 843 519 q 852 551 843 538 q 881 564 860 563 l 949 565 z "},"↙":{"ha":1042,"x_min":93,"x_max":1010,"o":"m 93 0 l 93 565 l 160 563 q 190 550 181 563 q 199 518 199 538 l 199 258 q 197 213 199 233 q 194 174 196 192 q 244 235 217 203 q 302 297 271 266 l 924 917 l 1010 830 l 389 210 q 326 151 358 178 q 265 100 295 124 q 304 104 283 103 q 350 106 325 105 l 614 106 q 646 97 633 106 q 658 67 658 88 l 660 -1 l 93 0 z "},"↔":{"ha":1389,"x_min":73,"x_max":1316,"o":"m 1316 446 l 917 47 l 871 96 q 859 126 856 111 q 876 155 862 141 l 1060 339 q 1123 395 1094 373 q 1044 388 1085 390 q 960 385 1003 385 l 278 385 q 328 339 301 366 l 515 153 q 531 125 528 140 q 519 94 534 110 l 473 46 l 73 447 l 472 846 l 518 797 q 530 767 533 782 q 513 738 527 752 l 328 554 q 302 529 315 540 q 278 508 290 518 l 960 508 q 1045 506 1003 508 q 1124 497 1086 503 q 1060 554 1095 520 l 874 740 q 858 768 860 753 q 869 799 855 783 l 916 847 l 1316 446 z "},"↕":{"ha":1042,"x_min":121,"x_max":922,"o":"m 521 -239 l 122 160 l 170 208 q 200 219 185 222 q 229 203 215 217 l 414 18 q 439 -8 428 4 q 460 -31 450 -19 l 460 721 q 463 806 460 765 q 470 885 465 848 q 445 855 458 871 q 414 822 431 840 l 227 636 q 199 619 214 622 q 169 631 184 617 l 121 678 l 522 1079 l 920 680 l 872 633 q 842 621 857 618 q 813 638 827 624 l 628 822 q 572 885 594 856 q 580 806 577 847 q 583 721 583 765 l 583 -32 q 603 -8 592 -20 q 628 18 615 4 l 815 204 q 843 221 828 218 q 874 209 858 224 l 922 162 l 521 -239 z "},"Ơ":{"ha":1183,"x_min":62,"x_max":1155,"o":"m 557 117 q 699 143 635 117 q 807 219 763 169 q 876 339 852 268 q 901 499 901 409 q 876 658 901 588 q 807 778 852 729 q 699 854 763 828 q 557 881 635 881 q 415 854 478 881 q 306 778 351 828 q 237 658 261 729 q 213 499 213 588 q 237 339 213 409 q 306 219 261 268 q 415 143 351 169 q 557 117 478 117 m 1144 1096 q 1152 1060 1149 1081 q 1155 1019 1155 1040 q 1108 875 1155 934 q 971 795 1060 816 q 1031 659 1010 733 q 1052 499 1052 584 q 1016 293 1052 387 q 915 132 981 200 q 759 27 850 65 q 557 -10 668 -10 q 355 27 447 -10 q 199 132 264 65 q 98 293 134 200 q 62 499 62 387 q 98 703 62 610 q 199 865 134 797 q 355 970 264 933 q 557 1008 447 1008 q 764 969 672 1008 q 922 858 856 930 q 995 889 969 866 q 1022 942 1022 911 q 1017 966 1022 956 q 1006 985 1012 976 q 995 1006 1000 994 q 990 1033 990 1017 q 1069 1096 990 1096 l 1144 1096 z "},"Ư":{"ha":1177,"x_min":110,"x_max":1186,"o":"m 1176 1096 q 1183 1060 1181 1081 q 1186 1019 1186 1040 q 1168 925 1186 967 q 1115 851 1149 882 q 1029 803 1080 820 q 913 785 978 785 l 913 394 q 885 232 913 306 q 806 103 858 158 q 679 19 753 49 q 512 -12 605 -12 q 344 19 419 -12 q 218 103 270 49 q 138 232 166 158 q 110 394 110 306 l 110 997 l 258 997 l 258 394 q 275 283 258 333 q 325 195 292 232 q 405 139 358 159 q 512 119 452 119 q 619 139 572 119 q 699 195 666 159 q 749 282 731 232 q 766 394 766 333 l 766 997 l 913 997 l 913 855 q 1016 881 978 856 q 1053 942 1053 905 q 1048 966 1053 956 q 1037 985 1043 976 q 1026 1006 1031 994 q 1022 1033 1022 1017 q 1101 1096 1022 1096 l 1176 1096 z "},"ơ":{"ha":854,"x_min":55,"x_max":872,"o":"m 396 96 q 545 163 496 96 q 594 353 594 231 q 545 543 594 475 q 396 610 496 610 q 245 543 294 610 q 195 353 195 475 q 245 163 195 231 q 396 96 294 96 m 862 813 q 869 781 866 799 q 872 742 872 762 q 828 608 872 663 q 699 535 784 553 q 735 353 735 456 q 711 203 735 270 q 643 88 688 135 q 536 16 599 41 q 396 -10 474 -10 q 255 16 317 -10 q 147 88 192 41 q 79 203 103 135 q 55 353 55 270 q 79 504 55 437 q 147 618 103 571 q 255 691 192 666 q 396 717 317 717 q 553 684 485 717 q 665 592 621 652 q 729 623 706 601 q 752 676 752 646 q 747 695 752 687 q 736 712 742 703 q 725 731 730 720 q 720 756 720 741 q 738 798 720 783 q 793 813 756 813 l 862 813 z "},"ư":{"ha":888,"x_min":88,"x_max":909,"o":"m 900 813 q 907 781 904 799 q 909 742 909 762 q 894 659 909 697 q 851 593 880 621 q 780 548 822 565 q 682 528 738 531 l 682 0 l 601 0 q 565 27 573 0 l 555 98 q 507 53 532 74 q 453 19 482 33 q 393 -3 425 5 q 324 -11 361 -11 q 222 8 266 -11 q 148 63 178 28 q 103 147 118 98 q 88 256 88 197 l 88 706 l 224 706 l 224 256 q 258 139 224 181 q 365 97 293 97 q 462 121 417 97 q 547 189 507 146 l 547 706 l 682 706 l 682 590 q 761 618 733 594 q 790 676 790 642 q 785 695 790 687 q 774 712 780 703 q 763 731 767 720 q 758 756 758 741 q 775 798 758 783 q 831 813 793 813 l 900 813 z "},"₫":{"ha":847,"x_min":58,"x_max":785,"o":"m 67 -85 l 759 -85 l 759 -172 l 67 -172 l 67 -85 m 551 516 q 480 577 519 559 q 395 594 441 594 q 249 530 300 594 q 198 335 198 465 q 244 157 198 215 q 372 99 290 99 q 472 126 430 99 q 551 201 515 152 l 551 516 m 785 878 l 785 792 l 687 792 l 687 0 l 606 0 q 570 27 577 0 l 558 109 q 456 22 511 54 q 328 -10 401 -10 q 216 14 266 -10 q 131 83 166 38 q 77 190 96 127 q 58 331 58 253 q 79 481 58 413 q 140 597 100 549 q 236 673 180 646 q 364 699 293 699 q 472 678 428 699 q 551 619 516 657 l 551 792 l 384 792 l 384 878 l 551 878 l 551 1025 l 687 1025 l 687 878 l 785 878 z "},"○":{"ha":921,"x_min":79,"x_max":840,"o":"m 79 451 q 109 599 79 530 q 191 720 139 669 q 312 802 242 772 q 460 832 381 832 q 608 802 538 832 q 729 720 677 772 q 810 599 781 669 q 840 451 840 530 q 810 303 840 373 q 729 182 781 234 q 608 101 677 131 q 460 71 538 71 q 312 101 381 71 q 191 182 242 131 q 109 303 139 234 q 79 451 79 373 m 200 451 q 220 350 200 397 q 276 268 241 303 q 358 212 311 233 q 460 192 406 192 q 561 212 514 192 q 644 268 609 233 q 700 350 680 303 q 721 451 721 397 q 700 553 721 506 q 644 636 680 601 q 561 691 609 671 q 460 712 514 712 q 358 691 406 712 q 276 636 311 671 q 220 553 241 601 q 200 451 200 506 z "},"◌":{"ha":921,"x_min":84,"x_max":838,"o":"m 419 785 q 431 816 419 803 q 460 828 443 828 q 491 816 478 828 q 503 785 503 803 q 491 756 503 768 q 460 743 478 743 q 431 756 443 743 q 419 785 419 768 m 545 760 q 558 790 545 778 q 588 803 570 803 q 618 790 606 803 q 630 760 630 778 q 618 730 630 742 q 588 718 606 718 q 558 730 570 718 q 545 760 545 742 m 654 689 q 666 719 654 707 q 697 731 678 731 q 726 719 714 731 q 739 689 739 707 q 726 659 739 672 q 697 647 714 647 q 666 659 678 647 q 654 689 654 672 m 724 581 q 737 611 724 599 q 767 624 749 624 q 797 611 784 624 q 809 581 809 599 q 797 551 809 563 q 767 538 784 538 q 737 551 749 538 q 724 581 724 563 m 753 451 q 766 482 753 469 q 796 494 778 494 q 826 482 813 494 q 838 451 838 469 q 826 422 838 434 q 796 409 813 409 q 766 422 778 409 q 753 451 753 434 m 289 760 q 301 790 289 778 q 331 803 314 803 q 361 790 349 803 q 374 760 374 778 q 361 730 374 742 q 331 718 349 718 q 301 730 314 718 q 289 760 289 742 m 181 689 q 193 719 181 707 q 223 731 206 731 q 253 719 241 731 q 266 689 266 707 q 253 659 266 672 q 223 647 241 647 q 193 659 206 647 q 181 689 181 672 m 110 581 q 122 611 110 599 q 152 624 134 624 q 182 611 169 624 q 194 581 194 599 q 182 551 194 563 q 152 538 169 538 q 122 551 134 538 q 110 581 110 563 m 84 451 q 97 482 84 469 q 126 494 109 494 q 157 482 144 494 q 169 451 169 469 q 157 422 169 434 q 126 409 144 409 q 97 422 109 409 q 84 451 84 434 m 724 324 q 737 355 724 342 q 767 367 749 367 q 797 355 784 367 q 809 324 809 342 q 797 294 809 307 q 767 282 784 282 q 737 294 749 282 q 724 324 724 307 m 110 324 q 122 355 110 342 q 152 367 134 367 q 182 355 169 367 q 194 324 194 342 q 182 294 194 307 q 152 282 169 282 q 122 294 134 282 q 110 324 110 307 m 654 216 q 666 246 654 233 q 697 258 678 258 q 726 246 714 258 q 739 216 739 233 q 726 186 739 198 q 697 174 714 174 q 666 186 678 174 q 654 216 654 198 m 181 216 q 193 246 181 233 q 223 258 206 258 q 253 246 241 258 q 266 216 266 233 q 253 186 266 198 q 223 174 241 174 q 193 186 206 174 q 181 216 181 198 m 545 146 q 558 176 545 163 q 588 188 570 188 q 618 176 606 188 q 630 146 630 163 q 618 115 630 128 q 588 103 606 103 q 558 115 570 103 q 545 146 545 128 m 289 146 q 301 176 289 163 q 331 188 314 188 q 361 176 349 188 q 374 146 374 163 q 361 115 374 128 q 331 103 349 103 q 301 115 314 103 q 289 146 289 128 m 419 117 q 431 147 419 134 q 460 159 443 159 q 491 147 478 159 q 503 117 503 134 q 491 86 503 99 q 460 74 478 74 q 431 86 443 74 q 419 117 419 99 z "},"͏":{"ha":0,"x_min":0,"x_max":0,"o":""},"᷂":{"ha":0,"x_min":-95,"x_max":104,"o":"m -95 -60 q -86 -51 -95 -56 q -64 -41 -77 -46 q -37 -33 -51 -37 q -14 -30 -24 -30 q 1 -32 -6 -30 q 14 -39 7 -35 q 30 -48 21 -43 q 51 -58 38 -53 q 90 -78 75 -65 q 104 -110 104 -90 q 90 -141 104 -129 q 58 -160 75 -153 q 26 -173 40 -168 q 11 -182 11 -177 q 22 -190 11 -186 q 47 -199 33 -193 q 72 -215 60 -205 q 83 -244 83 -226 q 72 -273 83 -263 q 48 -289 61 -283 q 24 -301 35 -295 q 13 -315 13 -306 q 20 -328 13 -323 q 39 -337 27 -334 q 40 -341 40 -338 q 39 -345 40 -343 q 37 -347 38 -347 q -7 -331 10 -343 q -24 -300 -24 -319 q -14 -276 -24 -285 q 8 -262 -4 -267 q 30 -253 19 -256 q 40 -246 40 -250 q 26 -237 40 -241 q -5 -227 12 -233 q -35 -210 -21 -221 q -49 -181 -49 -199 q -35 -150 -49 -162 q -5 -131 -21 -139 q 26 -118 12 -124 q 40 -108 40 -113 q 34 -100 40 -103 q 19 -97 28 -97 q 7 -98 11 -97 q 0 -102 3 -100 q -7 -105 -3 -103 q -19 -106 -11 -106 q -43 -100 -30 -105 q -68 -89 -56 -96 q -87 -75 -79 -83 q -95 -60 -95 -67 z "},"Ɓ":{"ha":1115,"x_min":30,"x_max":1048,"o":"m 692 117 q 788 131 748 117 q 853 167 828 144 q 890 221 878 190 q 902 290 902 253 q 851 407 902 365 q 692 450 799 450 l 483 450 l 483 117 l 692 117 m 483 881 l 483 555 l 654 555 q 816 599 763 555 q 869 718 869 643 q 818 842 869 803 q 660 881 767 881 l 483 881 m 660 997 q 821 979 754 997 q 931 927 888 961 q 995 845 974 893 q 1015 735 1015 797 q 1004 666 1015 699 q 970 604 993 633 q 913 552 947 575 q 831 514 878 529 q 1048 287 1048 471 q 1024 170 1048 223 q 956 80 1001 118 q 844 21 910 42 q 694 0 778 0 l 336 0 l 336 888 l 319 888 q 193 855 232 888 q 155 760 155 821 q 158 725 155 742 q 165 698 161 708 q 165 670 168 683 q 140 651 161 657 l 55 632 q 36 695 43 665 q 30 761 30 725 q 49 859 30 815 q 105 933 68 902 q 195 981 141 964 q 319 997 249 997 l 660 997 z "},"Ƅ":{"ha":946,"x_min":34,"x_max":911,"o":"m 540 637 q 703 611 633 637 q 819 543 772 586 q 888 442 865 499 q 911 322 911 385 q 888 194 911 253 q 819 92 865 135 q 705 25 773 49 q 549 0 638 0 l 188 0 l 188 644 l 34 745 l 227 997 l 335 997 l 335 637 l 540 637 m 547 117 q 649 136 607 117 q 716 184 690 154 q 754 251 742 214 q 765 325 765 288 q 753 397 765 362 q 714 459 740 432 q 645 503 687 486 q 547 519 604 519 l 335 519 l 335 117 l 547 117 z "},"Ɔ":{"ha":932,"x_min":33,"x_max":869,"o":"m 113 214 q 126 211 119 214 q 138 203 132 208 q 188 164 163 180 q 243 137 214 147 q 306 121 272 126 q 383 116 340 116 q 515 142 454 116 q 622 217 576 167 q 692 337 667 266 q 718 499 718 408 q 693 659 718 588 q 624 780 669 731 q 517 855 579 828 q 381 881 455 881 q 275 867 318 881 q 204 838 233 854 q 158 808 176 822 q 127 795 140 795 q 108 800 115 795 q 96 813 101 805 l 47 881 q 191 974 108 939 q 380 1008 273 1008 q 578 971 488 1008 q 733 866 668 933 q 833 705 797 799 q 869 499 869 611 q 835 292 869 386 q 739 131 801 199 q 589 26 676 64 q 392 -11 501 -11 q 181 28 269 -11 q 33 140 94 68 l 91 204 q 113 214 100 214 z "},"Ƈ":{"ha":931,"x_min":64,"x_max":1108,"o":"m 901 140 q 752 28 840 68 q 540 -11 664 -11 q 344 26 432 -11 q 194 131 256 64 q 98 292 131 199 q 64 499 64 386 q 100 705 64 611 q 200 866 135 799 q 355 971 265 933 q 553 1008 444 1008 q 667 997 614 1008 q 765 964 719 985 q 765 976 765 969 q 765 988 765 982 q 775 1075 765 1033 q 810 1148 786 1117 q 874 1199 835 1180 q 972 1217 914 1217 q 1044 1210 1013 1217 q 1108 1192 1075 1203 l 1089 1115 q 1070 1090 1083 1094 q 1043 1090 1057 1087 q 985 1098 1016 1098 q 909 1061 933 1098 q 885 955 885 1024 l 885 881 l 837 813 q 825 800 832 805 q 806 795 818 795 q 775 808 793 795 q 729 838 758 822 q 658 867 700 854 q 552 881 615 881 q 416 855 478 881 q 309 780 353 828 q 239 659 264 731 q 215 499 215 588 q 241 337 215 408 q 312 217 267 266 q 418 142 357 167 q 549 116 479 116 q 627 121 592 116 q 690 137 661 126 q 745 164 719 147 q 796 203 771 180 q 808 211 801 208 q 821 214 814 214 q 842 204 833 214 l 901 140 z "},"Ɗ":{"ha":1269,"x_min":30,"x_max":1206,"o":"m 710 119 q 852 145 789 119 q 961 220 916 171 q 1030 339 1006 269 q 1054 499 1054 409 q 1030 658 1054 588 q 961 777 1006 728 q 852 852 916 826 q 710 878 789 878 l 484 878 l 484 119 l 710 119 m 710 997 q 913 961 822 997 q 1069 859 1003 925 q 1170 702 1134 794 q 1206 499 1206 610 q 1170 295 1206 387 q 1069 138 1134 203 q 913 36 1003 72 q 710 0 822 0 l 336 0 l 336 888 l 319 888 q 193 855 232 888 q 155 760 155 821 q 158 725 155 742 q 165 698 161 708 q 165 670 168 683 q 140 651 161 657 l 55 632 q 36 695 43 665 q 30 761 30 725 q 49 859 30 815 q 105 933 68 902 q 195 981 141 964 q 319 997 249 997 l 710 997 z "},"Ƌ":{"ha":865,"x_min":54,"x_max":742,"o":"m 594 117 l 594 456 l 408 456 q 312 444 351 456 q 248 411 272 433 q 211 358 223 390 q 200 288 200 327 q 211 219 200 250 q 248 165 223 188 q 313 130 273 142 q 408 117 352 117 l 594 117 m 742 997 l 742 0 l 408 0 q 258 21 324 0 q 147 82 192 42 q 78 177 101 122 q 54 302 54 233 q 75 410 54 360 q 139 496 95 460 q 249 552 182 532 q 408 573 315 573 l 594 573 l 594 881 l 89 881 l 89 997 l 742 997 z "},"Ǝ":{"ha":798,"x_min":56,"x_max":674,"o":"m 674 0 l 56 0 l 56 120 l 526 120 l 526 445 l 148 445 l 148 561 l 526 561 l 526 877 l 56 877 l 56 997 l 674 997 l 674 0 z "},"Ə":{"ha":1006,"x_min":58,"x_max":942,"o":"m 201 406 q 220 286 201 340 q 276 194 240 233 q 363 135 312 156 q 477 114 414 114 q 598 135 544 114 q 690 193 651 156 q 753 285 729 231 q 786 406 778 339 l 201 406 m 73 856 q 157 928 111 899 q 252 977 202 958 q 357 1003 303 995 q 466 1012 411 1012 q 656 977 569 1012 q 807 875 744 942 q 907 708 871 808 q 942 481 942 609 q 910 288 942 377 q 818 132 878 198 q 671 28 758 66 q 476 -10 585 -10 q 309 19 385 -10 q 177 106 233 49 q 89 245 121 163 q 58 435 58 328 q 60 470 58 456 q 67 493 62 485 q 81 505 72 501 q 103 508 90 508 l 790 508 q 762 670 787 601 q 694 787 738 740 q 589 857 650 833 q 450 881 527 881 q 370 873 406 881 q 306 855 335 866 q 254 832 277 844 q 213 809 231 819 q 180 791 195 798 q 153 783 165 783 q 132 788 141 783 q 117 801 123 793 l 73 856 z "},"Ɛ":{"ha":824,"x_min":67,"x_max":790,"o":"m 790 144 q 717 73 758 102 q 630 25 676 44 q 531 -2 583 7 q 424 -10 479 -10 q 291 9 356 -10 q 177 67 226 29 q 97 162 127 106 q 67 291 67 218 q 81 372 67 333 q 119 443 94 410 q 180 500 144 475 q 260 542 216 526 q 180 578 213 556 q 127 626 147 599 q 98 682 107 652 q 89 744 89 713 q 114 845 89 797 q 185 930 138 893 q 299 988 232 966 q 453 1009 367 1009 q 637 979 560 1009 q 769 898 714 949 l 735 840 q 716 819 726 824 q 699 815 706 815 q 669 826 686 815 q 623 851 651 838 q 552 875 594 864 q 449 886 510 886 q 357 874 396 886 q 294 841 319 862 q 257 793 269 821 q 244 736 244 766 q 260 673 244 701 q 304 627 276 646 q 373 599 333 608 q 463 590 413 590 l 626 590 l 626 483 l 451 483 q 347 467 391 483 q 275 426 303 451 q 232 369 247 401 q 218 304 218 338 q 234 230 218 264 q 282 170 251 195 q 359 130 313 144 q 463 115 404 115 q 553 126 515 115 q 618 152 592 137 q 662 182 645 167 q 690 206 679 197 q 701 214 695 211 q 715 217 708 217 q 736 208 727 217 l 790 144 z "},"Ƒ":{"ha":785,"x_min":-99,"x_max":741,"o":"m 272 877 l 272 543 l 672 543 l 672 423 l 272 423 l 272 10 q 258 -96 272 -48 q 216 -179 244 -144 q 145 -233 188 -214 q 44 -252 102 -252 q 2 -250 21 -252 q -34 -245 -17 -249 q -67 -237 -51 -242 q -99 -226 -83 -233 l -80 -150 q -61 -126 -74 -129 q -34 -126 -48 -122 q -6 -131 -22 -129 q 24 -133 9 -133 q 99 -97 76 -133 q 123 10 123 -60 l 123 997 l 741 997 l 741 877 l 272 877 z "},"Ɠ":{"ha":1017,"x_min":62,"x_max":1152,"o":"m 930 881 l 888 815 q 862 794 878 799 q 827 802 846 790 q 787 826 809 813 q 735 852 765 840 q 665 872 705 864 q 569 881 624 881 q 422 854 488 881 q 309 777 356 827 q 238 657 263 727 q 213 499 213 586 q 239 334 213 406 q 312 211 265 261 q 424 135 359 161 q 568 108 490 108 q 639 112 606 108 q 699 123 671 116 q 752 140 727 130 q 803 163 778 151 l 803 372 l 656 372 q 633 381 642 372 q 624 401 624 389 l 624 485 l 937 485 l 937 97 q 859 49 899 69 q 772 16 818 29 q 673 -5 726 2 q 558 -11 619 -11 q 358 26 449 -11 q 201 131 267 64 q 99 292 135 199 q 62 499 62 386 q 98 706 62 612 q 200 867 133 800 q 361 971 267 934 q 574 1008 456 1008 q 702 996 644 1008 q 808 962 760 984 l 808 988 q 819 1075 808 1033 q 854 1148 830 1117 q 918 1199 878 1180 q 1015 1217 958 1217 q 1088 1210 1057 1217 q 1152 1192 1119 1203 l 1133 1115 q 1114 1090 1127 1094 q 1087 1090 1101 1087 q 1059 1096 1074 1094 q 1029 1098 1044 1098 q 953 1061 977 1098 q 930 955 930 1024 l 930 881 z "},"Ɣ":{"ha":938,"x_min":-24,"x_max":962,"o":"m 632 113 q 610 135 619 122 l 467 335 q 454 304 461 319 q 436 276 447 290 l 332 129 q 313 113 326 121 l 632 113 m 558 411 l 853 0 l 85 0 l 384 419 l -24 998 l 119 998 q 143 992 135 998 q 158 975 151 987 l 477 509 l 788 975 q 821 997 801 997 l 962 997 l 558 411 z "},"Ɩ":{"ha":451,"x_min":118,"x_max":429,"o":"m 118 998 l 267 998 l 267 216 q 290 132 267 159 q 367 105 314 105 l 429 105 l 429 56 q 420 25 429 38 q 394 6 410 13 q 357 -5 378 -2 q 310 -8 335 -8 q 227 8 263 -8 q 167 52 192 24 q 131 121 143 81 q 118 208 118 160 l 118 998 z "},"Ƙ":{"ha":960,"x_min":123,"x_max":949,"o":"m 271 566 l 319 566 q 364 572 346 566 q 397 601 381 578 l 582 876 q 686 977 626 947 q 828 1007 746 1007 q 899 1001 871 1007 q 949 985 927 994 l 935 910 q 917 886 930 889 q 890 885 904 883 q 865 890 880 888 q 835 892 851 892 q 766 875 797 892 q 715 828 735 858 l 547 584 q 517 548 533 562 q 482 526 501 534 q 522 505 504 518 q 556 469 540 491 l 932 0 l 803 0 q 780 2 790 0 q 762 8 769 4 q 749 17 755 12 q 738 31 743 23 l 417 417 q 385 443 403 435 q 335 452 368 452 l 271 452 l 271 0 l 123 0 l 123 998 l 271 998 l 271 566 z "},"Ɯ":{"ha":1503,"x_min":113,"x_max":1381,"o":"m 1381 997 l 1381 2 l 1304 2 q 1257 40 1265 2 l 1241 160 q 1192 89 1219 121 q 1132 35 1165 58 q 1061 1 1099 13 q 978 -10 1022 -10 q 890 2 930 -10 q 818 39 850 15 q 764 96 787 63 q 725 172 740 130 q 670 90 703 124 q 599 33 638 55 q 517 0 560 10 q 431 -10 474 -10 q 292 14 352 -10 q 193 87 233 39 q 133 205 153 135 q 113 364 113 274 l 113 997 l 261 997 l 261 364 q 275 251 261 300 q 316 170 290 203 q 379 121 342 138 q 461 104 416 104 q 545 120 506 104 q 612 169 583 137 q 656 251 640 202 q 672 364 672 299 l 672 997 l 821 997 l 821 364 q 832 256 821 304 q 867 174 844 208 q 925 122 890 140 q 1008 104 960 104 q 1138 156 1080 104 q 1232 308 1197 207 l 1232 997 l 1381 997 z "},"Ɲ":{"ha":1063,"x_min":-99,"x_max":940,"o":"m 940 997 l 940 0 l 865 0 q 836 6 847 0 q 813 26 824 13 l 249 755 q 252 718 251 736 q 253 684 253 700 l 253 -12 q 241 -118 253 -70 q 203 -201 229 -167 q 136 -255 177 -236 q 38 -274 95 -274 q -35 -268 -4 -274 q -99 -249 -67 -261 l -80 -172 q -61 -148 -74 -151 q -34 -148 -48 -144 q -6 -153 -22 -151 q 24 -156 9 -156 q 99 -119 76 -156 q 123 -12 123 -82 l 123 997 l 199 997 q 228 993 219 997 q 250 972 238 988 l 815 243 q 811 282 813 263 q 810 318 810 301 l 810 997 l 940 997 z "},"Ɵ":{"ha":1115,"x_min":62,"x_max":1052,"o":"m 215 451 q 248 311 221 373 q 319 206 274 249 q 424 140 363 163 q 557 117 484 117 q 690 140 630 117 q 795 206 751 163 q 866 311 839 249 q 899 451 892 373 l 215 451 m 897 563 q 861 697 889 638 q 790 797 834 756 q 688 859 747 838 q 557 881 628 881 q 427 859 486 881 q 324 797 368 838 q 252 697 280 756 q 216 563 224 638 l 897 563 m 557 1008 q 759 970 668 1008 q 915 865 850 933 q 1016 703 981 797 q 1052 499 1052 610 q 1016 293 1052 387 q 915 132 981 200 q 759 27 850 65 q 557 -10 668 -10 q 355 27 447 -10 q 199 132 264 65 q 98 293 134 200 q 62 499 62 387 q 98 703 62 610 q 199 865 134 797 q 355 970 264 933 q 557 1008 447 1008 z "},"Ƣ":{"ha":1399,"x_min":64,"x_max":1281,"o":"m 524 114 q 650 141 593 114 q 748 217 707 167 q 810 338 788 267 q 832 499 832 409 q 810 659 832 588 q 748 781 788 731 q 650 858 707 831 q 524 885 593 885 q 397 858 453 885 q 299 781 340 831 q 236 659 258 731 q 215 499 215 588 q 236 338 215 409 q 299 217 258 267 q 397 141 340 167 q 524 114 453 114 m 1133 755 q 1126 807 1133 783 q 1106 848 1119 831 q 1072 876 1092 866 q 1024 886 1052 886 q 954 869 988 886 q 890 826 920 853 q 959 678 935 760 q 983 499 983 596 q 951 293 983 387 q 859 133 919 200 q 714 28 799 65 q 524 -10 629 -10 q 332 28 417 -10 q 188 133 247 65 q 96 293 128 200 q 64 499 64 387 q 96 703 64 610 q 188 865 128 797 q 332 970 247 933 q 524 1008 417 1008 q 691 980 615 1008 q 824 900 766 952 q 928 977 872 948 q 1055 1007 984 1007 q 1153 989 1111 1007 q 1224 939 1196 972 q 1267 859 1253 906 q 1281 755 1281 813 l 1281 -242 l 1133 -242 l 1133 755 z "},"Ƥ":{"ha":1053,"x_min":30,"x_max":1014,"o":"m 638 484 q 736 499 694 484 q 808 540 779 513 q 851 604 837 567 q 866 686 866 641 q 809 829 866 777 q 638 881 753 881 l 483 881 l 483 484 l 638 484 m 638 997 q 804 975 733 997 q 922 912 875 953 q 991 814 968 872 q 1014 686 1014 756 q 990 557 1014 616 q 918 456 965 499 q 800 391 870 414 q 638 367 730 367 l 483 367 l 483 0 l 336 0 l 336 888 l 319 888 q 193 855 232 888 q 155 760 155 821 q 158 725 155 742 q 165 698 161 708 q 165 670 168 683 q 140 651 161 657 l 55 632 q 36 695 43 665 q 30 761 30 725 q 49 859 30 815 q 105 933 68 902 q 195 981 141 964 q 319 997 249 997 l 638 997 z "},"Ʀ":{"ha":835,"x_min":123,"x_max":871,"o":"m 406 368 q 506 382 463 368 q 578 421 549 396 q 622 481 608 446 q 637 558 637 516 q 580 688 637 644 q 410 732 524 732 l 271 732 l 271 368 l 406 368 m 871 -149 l 739 -149 q 681 -118 699 -149 l 435 228 q 409 253 423 246 q 367 260 395 260 l 271 260 l 271 0 l 123 0 l 123 1008 l 271 1008 l 271 849 l 410 849 q 577 829 507 849 q 692 773 647 809 q 759 685 738 736 q 781 569 781 633 q 765 472 781 517 q 718 389 749 426 q 643 326 688 353 q 542 286 599 300 q 590 240 570 269 l 871 -149 z "},"Ƨ":{"ha":749,"x_min":51,"x_max":705,"o":"m 83 905 q 206 982 135 955 q 360 1008 276 1008 q 494 986 435 1008 q 592 925 552 963 q 653 838 632 888 q 674 735 674 789 q 653 624 674 669 q 599 548 633 579 q 523 496 566 517 q 436 459 481 476 q 349 428 392 443 q 273 392 306 413 q 219 341 240 371 q 199 267 199 312 q 248 152 199 192 q 384 112 298 112 q 480 127 440 112 q 547 161 519 142 q 594 194 575 179 q 628 210 613 210 q 648 204 639 210 q 663 190 656 199 l 705 119 q 642 66 676 90 q 567 25 607 42 q 481 -2 526 8 q 388 -11 436 -11 q 245 10 308 -11 q 140 71 183 32 q 74 164 97 110 q 51 283 51 218 q 72 388 51 344 q 126 461 92 431 q 202 513 159 492 q 290 551 245 534 q 377 584 334 568 q 453 621 420 600 q 507 670 487 642 q 528 739 528 698 q 517 797 528 769 q 485 843 506 824 q 432 875 464 863 q 359 886 401 886 q 279 875 313 886 q 222 849 246 863 q 182 823 198 835 q 153 812 166 812 q 134 817 142 812 q 119 835 126 823 l 83 905 z "},"Ƭ":{"ha":933,"x_min":31,"x_max":913,"o":"m 913 874 l 596 874 l 596 0 l 448 0 l 448 874 l 320 874 q 243 866 274 874 q 192 845 211 859 q 164 809 173 831 q 156 758 156 787 q 159 724 156 741 q 166 698 163 708 q 166 670 169 683 q 141 651 163 657 l 56 632 q 38 695 44 665 q 31 761 31 725 q 50 859 31 815 q 106 933 69 902 q 197 981 143 964 q 320 997 251 997 l 913 997 l 913 874 z "},"Ʈ":{"ha":824,"x_min":21,"x_max":803,"o":"m 486 -31 q 512 -134 486 -97 q 594 -172 538 -172 q 634 -167 618 -172 q 659 -162 649 -162 q 676 -168 667 -162 q 690 -190 685 -173 l 704 -249 q 643 -268 673 -262 q 578 -274 614 -274 q 468 -256 514 -274 q 394 -203 423 -237 q 352 -121 365 -169 q 339 -15 339 -73 l 339 874 l 21 874 l 21 997 l 803 997 l 803 874 l 486 874 l 486 -31 z "},"Ʊ":{"ha":1125,"x_min":69,"x_max":1056,"o":"m 563 -11 q 374 23 462 -11 q 220 118 286 56 q 117 264 155 179 q 79 453 79 349 q 101 599 79 530 q 161 723 122 667 q 253 820 199 779 q 369 883 306 860 q 313 876 342 878 q 258 874 285 874 l 69 874 l 69 949 q 83 984 69 971 q 119 997 97 997 l 483 997 l 483 827 q 382 784 428 817 q 300 702 335 751 q 245 589 265 653 q 226 454 226 526 q 253 306 226 369 q 327 201 281 243 q 434 138 373 158 q 563 117 495 117 q 691 138 630 117 q 798 201 752 158 q 872 306 844 243 q 899 454 899 369 q 879 589 899 526 q 825 702 859 653 q 743 784 790 751 q 642 827 697 817 l 642 997 l 1006 997 q 1042 984 1028 997 q 1056 949 1056 971 l 1056 874 l 867 874 q 811 876 840 874 q 756 883 783 878 q 872 820 819 860 q 964 723 925 779 q 1024 599 1002 667 q 1046 453 1046 530 q 1008 264 1046 349 q 905 118 970 179 q 751 23 839 56 q 563 -11 663 -11 z "},"Ʋ":{"ha":1011,"x_min":115,"x_max":948,"o":"m 578 983 q 641 1002 612 995 q 708 1008 671 1008 q 890 930 832 1008 q 948 706 948 852 q 926 513 948 606 q 865 341 903 421 q 772 197 826 262 q 656 85 719 131 q 523 14 593 39 q 383 -12 453 -12 q 273 8 322 -12 q 188 68 223 27 q 134 170 153 108 q 115 319 115 233 l 115 997 l 262 997 l 262 319 q 272 225 262 264 q 299 162 281 187 q 344 126 317 138 q 404 115 371 115 q 497 134 449 115 q 588 190 544 153 q 671 280 632 227 q 739 399 710 333 q 784 545 767 466 q 801 715 801 625 q 797 783 801 751 q 782 838 793 815 q 751 876 771 862 q 699 890 731 890 q 671 888 685 890 q 643 882 656 885 q 616 882 629 878 q 597 906 603 885 l 578 983 l 578 983 z "},"Ƴ":{"ha":1008,"x_min":-2,"x_max":994,"o":"m 642 859 q 741 973 687 939 q 867 1008 794 1008 q 933 1001 905 1008 q 994 983 961 994 l 975 910 q 956 885 969 889 q 928 885 942 882 q 903 892 918 889 q 872 895 888 895 q 813 877 838 895 q 767 824 788 858 l 510 394 l 510 0 l 363 0 l 363 394 l -2 997 l 128 997 q 159 988 147 997 q 178 963 171 978 l 395 590 q 419 542 408 565 q 438 498 430 520 q 481 590 453 542 l 642 859 z "},"Ƶ":{"ha":842,"x_min":38,"x_max":797,"o":"m 797 942 q 781 894 797 917 l 549 568 l 771 568 l 771 456 l 470 456 l 231 120 l 788 120 l 788 0 l 38 0 l 38 58 q 41 81 38 70 q 51 101 45 91 l 304 456 l 85 456 l 85 568 l 384 568 l 603 877 l 65 877 l 65 997 l 797 997 l 797 942 z "},"Ʒ":{"ha":817,"x_min":33,"x_max":756,"o":"m 426 617 q 577 591 514 613 q 680 531 640 568 q 738 444 719 493 q 756 338 756 394 q 725 193 756 258 q 640 83 693 128 q 516 14 586 38 q 367 -10 445 -10 q 268 0 316 -10 q 177 30 220 10 q 98 78 135 50 q 33 144 62 107 l 90 209 q 105 219 98 217 q 115 220 111 220 q 131 217 124 220 q 151 203 138 215 q 180 176 162 191 q 225 147 199 160 q 287 124 252 133 q 365 115 322 115 q 468 133 424 115 q 543 180 513 150 q 589 249 574 210 q 605 331 605 288 q 592 402 605 369 q 549 458 578 434 q 473 495 520 481 q 356 508 425 508 l 238 508 l 238 572 q 242 597 238 584 q 259 621 247 609 l 522 877 l 63 877 l 63 997 l 728 997 l 728 942 q 724 916 728 930 q 705 888 720 901 l 426 617 z "},"Ƹ":{"ha":817,"x_min":61,"x_max":784,"o":"m 784 144 q 719 78 756 107 q 640 30 683 50 q 549 0 597 10 q 451 -10 501 -10 q 302 14 372 -10 q 178 83 231 38 q 93 193 124 128 q 61 338 61 258 q 80 444 61 394 q 138 531 98 494 q 240 591 178 568 q 392 617 303 613 l 113 888 q 93 916 97 901 q 90 942 90 930 l 90 997 l 754 997 l 754 877 l 296 877 l 558 621 q 575 597 570 609 q 579 572 579 584 l 579 508 l 461 508 q 345 495 392 508 q 268 458 297 481 q 225 402 238 434 q 212 331 212 369 q 227 249 212 288 q 274 180 243 210 q 349 133 304 150 q 452 115 394 115 q 531 124 496 115 q 592 147 565 133 q 637 176 619 160 q 667 203 656 191 q 687 217 680 215 q 701 220 694 220 q 713 219 706 220 q 726 209 719 217 l 784 144 z "},"Ƽ":{"ha":802,"x_min":39,"x_max":743,"o":"m 715 938 q 697 891 715 909 q 635 872 678 872 l 349 872 l 276 631 q 331 639 305 636 q 383 641 358 641 q 541 618 473 641 q 653 553 608 594 q 721 455 699 512 q 743 332 743 399 q 713 190 743 253 q 632 82 683 126 q 517 13 582 37 q 381 -11 451 -11 q 180 30 263 -11 q 39 143 96 70 l 90 202 q 103 214 97 211 q 115 217 109 217 q 128 214 122 217 q 140 205 134 210 q 172 178 153 194 q 218 149 191 163 q 282 125 246 135 q 367 115 319 115 q 472 133 428 115 q 543 181 515 151 q 585 250 572 211 q 599 332 599 290 q 583 412 599 377 q 537 470 567 447 q 464 506 507 494 q 367 518 421 518 q 281 512 325 518 q 194 492 236 506 l 110 517 l 220 883 q 195 881 208 881 q 170 881 183 881 l 128 881 q 102 885 113 881 q 85 896 92 890 q 75 910 78 902 q 72 926 72 918 l 72 997 l 715 997 l 715 938 z "},"Ǥ":{"ha":1053,"x_min":63,"x_max":1049,"o":"m 1049 233 l 937 233 l 937 97 q 859 49 899 69 q 772 16 818 29 q 673 -5 726 2 q 558 -11 619 -11 q 358 26 449 -11 q 202 131 267 64 q 99 292 136 199 q 63 499 63 386 q 98 706 63 612 q 201 867 134 800 q 362 971 267 934 q 575 1008 457 1008 q 686 999 635 1008 q 781 974 737 990 q 861 934 824 957 q 930 881 899 910 l 888 815 q 863 794 878 799 q 828 802 847 790 q 787 826 809 813 q 735 852 765 840 q 665 872 706 864 q 569 881 624 881 q 422 854 488 881 q 310 777 356 827 q 238 657 263 727 q 213 499 213 586 q 240 334 213 406 q 313 211 266 261 q 425 135 360 161 q 569 108 490 108 q 639 112 607 108 q 700 123 672 116 q 753 140 728 130 q 803 163 778 151 l 803 233 l 653 233 q 630 241 639 233 q 622 262 622 249 l 622 335 l 803 335 l 803 418 l 653 418 q 630 426 638 418 q 622 447 622 434 l 622 523 l 937 523 l 937 335 l 1049 335 l 1049 233 z "},"Ƕ":{"ha":1476,"x_min":123,"x_max":1427,"o":"m 1108 699 q 1231 717 1165 717 q 1327 697 1289 717 q 1387 644 1365 677 q 1418 567 1409 610 q 1427 475 1427 523 q 1396 263 1427 353 q 1315 111 1365 172 q 1199 20 1265 50 q 1065 -10 1134 -10 q 959 6 1009 -10 q 872 57 910 22 q 813 149 835 92 q 792 288 792 206 l 792 449 l 272 449 l 272 0 l 123 0 l 123 997 l 272 997 l 272 557 l 792 557 l 792 997 l 940 997 l 939 288 q 973 146 939 192 q 1068 101 1006 101 q 1153 123 1113 101 q 1223 190 1193 144 q 1271 305 1253 235 q 1288 468 1288 374 q 1267 569 1288 535 q 1195 603 1247 603 q 1167 600 1179 603 q 1147 597 1155 597 q 1120 623 1124 597 l 1108 699 z "},"Ƿ":{"ha":979,"x_min":123,"x_max":922,"o":"m 271 114 q 485 224 392 165 q 643 349 579 282 q 740 494 707 417 q 773 663 773 572 q 758 753 773 713 q 715 822 742 794 q 649 866 688 851 q 562 881 610 881 q 478 870 519 881 q 402 837 438 858 q 333 785 365 815 q 271 719 300 756 l 271 114 m 269 861 q 348 930 309 901 q 426 975 386 958 q 506 1000 465 992 q 592 1008 547 1008 q 732 979 671 1008 q 836 904 794 951 q 900 797 878 857 q 922 672 922 736 q 876 456 922 556 q 744 269 829 356 q 539 109 659 183 q 271 -24 419 36 l 271 -237 l 123 -237 l 123 1004 l 230 1004 q 253 992 242 1004 q 266 963 265 981 l 269 861 z "},"Ƞ":{"ha":1018,"x_min":123,"x_max":904,"o":"m 269 853 q 349 928 311 899 q 426 976 388 958 q 504 1001 464 994 q 590 1008 544 1008 q 717 982 659 1008 q 817 913 775 957 q 881 808 858 868 q 904 677 904 747 l 904 -237 l 756 -237 l 756 672 q 743 759 756 720 q 705 825 730 798 q 641 867 679 852 q 553 881 603 881 q 469 870 508 881 q 397 838 431 858 q 332 786 363 817 q 272 719 301 756 l 272 0 l 123 0 l 123 1004 l 230 1004 q 253 992 242 1004 q 266 963 265 981 l 269 853 z "}}}
